<svg width="30" height="30" viewBox="0 0 30 30" fill="none" xmlns="http://www.w3.org/2000/svg">
<path d="M13.875 30V22.6875L8.2875 28.275L6.675 26.7L13.875 19.5V16.125H10.5L3.45 23.175L1.8 21.6375L7.3125 16.125H0V13.875H7.3125L1.6875 8.25L3.3 6.6375L10.5 13.875H13.875V10.4625L6.825 3.4125L8.4 1.7625L13.875 7.275V0H16.125V7.275L21.75 1.65L23.325 3.2625L16.125 10.4625V13.875H19.5375L26.625 6.7875L28.2375 8.3625L22.725 13.875H30V16.125H22.725L28.275 21.7125L26.7375 23.325L19.5375 16.125H16.125V19.5L23.325 26.7375L21.7875 28.35L16.125 22.6875V30H13.875Z" fill="#4A4A4A"/>
</svg>
