<svg width="50" height="50" viewBox="0 0 50 50" fill="none" xmlns="http://www.w3.org/2000/svg">
<circle cx="25" cy="25" r="25" fill="#E8E8E8"/>
<path d="M40 13.5137C38.6942 14.4348 37.2483 15.1393 35.7182 15.6001C34.8969 14.6558 33.8055 13.9865 32.5914 13.6827C31.3774 13.3789 30.0993 13.4553 28.9301 13.9016C27.7609 14.3479 26.757 15.1424 26.0541 16.1779C25.3512 17.2133 24.9832 18.4396 25 19.691V21.0546C22.6036 21.1168 20.229 20.5853 18.0877 19.5075C15.9465 18.4297 14.105 16.8391 12.7273 14.8773C12.7273 14.8773 7.27273 27.1501 19.5455 32.6046C16.7371 34.5109 13.3916 35.4668 10 35.3319C22.2727 42.1501 37.2727 35.3319 37.2727 19.6501C37.2715 19.2702 37.235 18.8913 37.1636 18.5183C38.5554 17.1457 39.5375 15.4129 40 13.5137Z" stroke="#002B4D" stroke-width="3" stroke-linecap="round" stroke-linejoin="round"/>
</svg>
