<svg width="48" height="25" viewBox="0 0 48 25" fill="none" xmlns="http://www.w3.org/2000/svg">
<path d="M19.65 12.3333C18.95 12.3333 18.375 12.0667 17.925 11.5333C17.475 11 17.3167 10.4 17.45 9.73333L18.2 5.23333C18.4667 3.79999 19.1417 2.62499 20.225 1.70833C21.3083 0.791662 22.5667 0.333328 24 0.333328C25.4667 0.333328 26.7417 0.791662 27.825 1.70833C28.9083 2.62499 29.5833 3.79999 29.85 5.23333L30.6 9.73333C30.7333 10.4 30.575 11 30.125 11.5333C29.675 12.0667 29.1 12.3333 28.4 12.3333H19.65ZM20.55 9.33333H27.5L26.9 5.73333C26.7667 5.03333 26.4333 4.45833 25.9 4.00833C25.3667 3.55833 24.7417 3.33333 24.025 3.33333C23.3083 3.33333 22.6833 3.55833 22.15 4.00833C21.6167 4.45833 21.2833 5.03333 21.15 5.73333L20.55 9.33333ZM6.95 15.8882C6.28333 15.9183 5.7025 15.7867 5.2075 15.4933C4.7125 15.2 4.39 14.7453 4.24 14.1293C4.18 13.8653 4.175 13.6 4.225 13.3333C4.275 13.0667 4.35 12.8111 4.45 12.5667C4.45 12.5972 4.43333 12.5361 4.4 12.3833C4.4 12.35 4.25333 11.999 3.96 11.3304C3.88667 10.9657 3.91667 10.6417 4.05 10.3583C4.18333 10.075 4.38333 9.8 4.65 9.53333L4.75 9.43333C4.81667 8.86666 5.04628 8.39999 5.43885 8.03333C5.83138 7.66666 6.31843 7.48333 6.9 7.48333C6.93333 7.48333 7.20263 7.53333 7.7079 7.63333L7.85 7.58333C8.01667 7.45 8.21112 7.34166 8.43335 7.25833C8.65555 7.17499 8.89165 7.13333 9.14165 7.13333C9.44722 7.13333 9.73333 7.19166 10 7.30833C10.2667 7.42499 10.4717 7.58541 10.6151 7.78958C10.6438 7.78958 10.6653 7.79686 10.6797 7.81143C10.694 7.82603 10.7155 7.83333 10.7442 7.83333C11.1457 7.86249 11.4971 7.98646 11.7983 8.20523C12.0994 8.42396 12.3333 8.72221 12.5 9.09998C12.5667 9.30341 12.5917 9.49958 12.575 9.68848C12.5583 9.87735 12.5167 10.059 12.45 10.2333C12.45 10.3 12.4667 10.35 12.5 10.3833C12.7022 10.5884 12.8611 10.8154 12.9766 11.0644C13.0922 11.3134 13.15 11.5697 13.15 11.8333C13.15 11.9 13.0667 12.2032 12.9 12.7428C12.8667 12.8063 12.8667 12.8698 12.9 12.9333C12.9333 13.0667 12.95 13.3 12.95 13.6333C12.95 14.2333 12.6964 14.7591 12.1892 15.2107C11.6819 15.6624 11.0659 15.8882 10.3413 15.8882H6.95ZM40.3955 15.8333C39.4319 15.8333 38.6083 15.4885 37.925 14.7988C37.2417 14.1092 36.9 13.2801 36.9 12.3116C36.9 11.9594 36.9583 11.625 37.075 11.3083C37.1917 10.9917 37.3333 10.7 37.5 10.4333L36.25 9.33333C35.9833 9.06666 35.9333 8.76666 36.1 8.43333C36.2667 8.1 36.5256 7.93333 36.8768 7.93333H40.3884C41.3541 7.93333 42.1808 8.27788 42.8685 8.96698C43.5562 9.65608 43.9 10.4845 43.9 11.4521V12.3318C43.9 13.2995 43.5569 14.125 42.8706 14.8083C42.1843 15.4917 41.3593 15.8333 40.3955 15.8333ZM0 24.3333V21.6833C0 20.3679 0.7 19.314 2.1 18.5217C3.5 17.7295 5.30663 17.3333 7.5199 17.3333C7.92517 17.3333 8.31483 17.3417 8.6889 17.3583C9.06297 17.375 9.43333 17.4121 9.8 17.4697C9.53333 18.0454 9.33333 18.6261 9.2 19.2118C9.06667 19.7974 9 20.4213 9 21.0833V24.3333H0ZM12 24.3333V21.0833C12 18.9167 13.1083 17.1667 15.325 15.8333C17.5417 14.5 20.4333 13.8333 24 13.8333C27.6 13.8333 30.5 14.5 32.7 15.8333C34.9 17.1667 36 18.9167 36 21.0833V24.3333H12ZM40.5 17.3333C42.75 17.3333 44.5625 17.7295 45.9375 18.5217C47.3125 19.314 48 20.3679 48 21.6833V24.3333H39V21.0833C39 20.4213 38.9417 19.7974 38.825 19.2118C38.7083 18.6261 38.5167 18.0454 38.25 17.4697C38.6167 17.4121 38.9862 17.375 39.3586 17.3583C39.731 17.3417 40.1114 17.3333 40.5 17.3333ZM23.99 16.8333C21.33 16.8333 19.1667 17.2333 17.5 18.0333C15.8333 18.8333 15 19.85 15 21.0833V21.3333H33V21.0333C33 19.8333 32.175 18.8333 30.525 18.0333C28.875 17.2333 26.6967 16.8333 23.99 16.8333Z" fill="#4A4A4A"/>
</svg>
