<svg width="50" height="50" viewBox="0 0 50 50" fill="none" xmlns="http://www.w3.org/2000/svg">
<circle cx="25" cy="25" r="25" fill="#E8E8E8"/>
<path d="M32.5 10.5H17.5C13.3579 10.5 10 13.8579 10 18V33C10 37.1421 13.3579 40.5 17.5 40.5H32.5C36.6421 40.5 40 37.1421 40 33V18C40 13.8579 36.6421 10.5 32.5 10.5Z" stroke="#002B4D" stroke-width="3" stroke-linecap="round" stroke-linejoin="round"/>
<path d="M31 24.5551C31.1852 25.8035 30.9719 27.0784 30.3907 28.1986C29.8094 29.3188 28.8898 30.2272 27.7625 30.7946C26.6352 31.362 25.3577 31.5595 24.1117 31.359C22.8657 31.1585 21.7147 30.5702 20.8223 29.6778C19.9299 28.7854 19.3416 27.6344 19.1412 26.3884C18.9407 25.1424 19.1381 23.8649 19.7055 22.7376C20.2729 21.6104 21.1813 20.6907 22.3015 20.1094C23.4217 19.5282 24.6967 19.315 25.945 19.5001C27.2184 19.6889 28.3973 20.2823 29.3076 21.1925C30.2179 22.1028 30.8112 23.2817 31 24.5551Z" stroke="#002B4D" stroke-width="3" stroke-linecap="round" stroke-linejoin="round"/>
<path d="M33.25 17.25H33.265" stroke="#002B4D" stroke-width="3" stroke-linecap="round" stroke-linejoin="round"/>
</svg>
