<svg width="25" height="32" viewBox="0 0 25 32" fill="none" xmlns="http://www.w3.org/2000/svg">
<path d="M12.5035 15.6125C13.2564 15.6125 13.8997 15.3466 14.4336 14.8147C14.9674 14.2828 15.2344 13.6434 15.2344 12.8966C15.2344 12.1497 14.9663 11.5115 14.4301 10.9819C13.894 10.4523 13.2494 10.1875 12.4965 10.1875C11.7436 10.1875 11.1003 10.4534 10.5664 10.9853C10.0326 11.5172 9.76562 12.1566 9.76562 12.9034C9.76562 13.6503 10.0337 14.2885 10.5699 14.8181C11.106 15.3477 11.7506 15.6125 12.5035 15.6125ZM12.5 28.4387C15.9635 25.3129 18.5221 22.4777 20.1758 19.9331C21.8294 17.3885 22.6562 15.1475 22.6562 13.21C22.6562 10.1671 21.6759 7.67553 19.7152 5.73532C17.7545 3.79511 15.3494 2.825 12.5 2.825C9.6506 2.825 7.24555 3.79511 5.28484 5.73532C3.32411 7.67553 2.34375 10.1671 2.34375 13.21C2.34375 15.1475 3.1901 17.3885 4.88281 19.9331C6.57552 22.4777 9.11458 25.3129 12.5 28.4387ZM12.5 31.5C8.30729 27.9608 5.17578 24.6735 3.10547 21.6381C1.03516 18.6027 0 15.7933 0 13.21C0 9.335 1.25651 6.24792 3.76953 3.94875C6.28255 1.64958 9.19271 0.5 12.5 0.5C15.8073 0.5 18.7174 1.64958 21.2305 3.94875C23.7435 6.24792 25 9.335 25 13.21C25 15.7933 23.9648 18.6027 21.8945 21.6381C19.8242 24.6735 16.6927 27.9608 12.5 31.5Z" fill="#055999"/>
</svg>
