<svg width="31" height="30" viewBox="0 0 31 30" fill="none" xmlns="http://www.w3.org/2000/svg">
<path d="M3.48204 13.8158C2.50401 13.8158 1.67917 13.4718 1.0075 12.7839C0.335833 12.096 0 11.2539 0 10.2576C0 9.2613 0.337655 8.42105 1.01296 7.73684C1.68827 7.05263 2.51494 6.71053 3.49296 6.71053C4.47099 6.71053 5.29583 7.05449 5.9675 7.74241C6.63917 8.43033 6.975 9.27243 6.975 10.2687C6.975 11.265 6.63735 12.1053 5.96204 12.7895C5.28673 13.4737 4.46006 13.8158 3.48204 13.8158ZM10.6508 7.10526C9.67276 7.10526 8.84792 6.7613 8.17625 6.07338C7.50458 5.38546 7.16875 4.54336 7.16875 3.54707C7.16875 2.55078 7.5064 1.71053 8.18171 1.02632C8.85702 0.342105 9.68369 0 10.6617 0C11.6397 0 12.4646 0.34396 13.1363 1.03188C13.8079 1.7198 14.1438 2.56191 14.1438 3.5582C14.1438 4.55449 13.8061 5.39474 13.1308 6.07895C12.4555 6.76316 11.6288 7.10526 10.6508 7.10526ZM20.3383 7.10526C19.3603 7.10526 18.5354 6.7613 17.8638 6.07338C17.1921 5.38546 16.8563 4.54336 16.8563 3.54707C16.8563 2.55078 17.1939 1.71053 17.8692 1.02632C18.5445 0.342105 19.3712 0 20.3492 0C21.3272 0 22.1521 0.34396 22.8238 1.03188C23.4954 1.7198 23.8313 2.56191 23.8313 3.5582C23.8313 4.55449 23.4936 5.39474 22.8183 6.07895C22.143 6.76316 21.3163 7.10526 20.3383 7.10526ZM27.507 13.8158C26.529 13.8158 25.7042 13.4718 25.0325 12.7839C24.3608 12.096 24.025 11.2539 24.025 10.2576C24.025 9.2613 24.3627 8.42105 25.038 7.73684C25.7133 7.05263 26.5399 6.71053 27.518 6.71053C28.496 6.71053 29.3208 7.05449 29.9925 7.74241C30.6642 8.43033 31 9.27243 31 10.2687C31 11.265 30.6623 12.1053 29.987 12.7895C29.3117 13.4737 28.4851 13.8158 27.507 13.8158ZM7.2075 30C6.1225 30 5.23125 29.5852 4.53375 28.7556C3.83625 27.9259 3.4875 26.946 3.4875 25.8158C3.4875 24.7105 3.81688 23.7303 4.47563 22.875C5.13438 22.0197 5.83833 21.1974 6.5875 20.4079C7.15583 19.8289 7.68542 19.2171 8.17625 18.5724C8.66708 17.9276 9.13208 17.2632 9.57125 16.5789C10.3204 15.4211 11.16 14.3421 12.09 13.3421C13.02 12.3421 14.1567 11.8421 15.5 11.8421C16.8433 11.8421 17.9865 12.3421 18.9294 13.3421C19.8723 14.3421 20.7183 15.4342 21.4675 16.6184C21.9067 17.3026 22.3652 17.9605 22.8431 18.5921C23.321 19.2237 23.8442 19.8289 24.4125 20.4079C25.1617 21.1974 25.8656 22.0197 26.5244 22.875C27.1831 23.7303 27.5125 24.7105 27.5125 25.8158C27.5125 26.946 27.1638 27.9259 26.4663 28.7556C25.7688 29.5852 24.8775 30 23.7925 30C22.3975 30 21.0154 29.8816 19.6463 29.6447C18.2771 29.4079 16.895 29.2895 15.5 29.2895C14.105 29.2895 12.7229 29.4079 11.3538 29.6447C9.98458 29.8816 8.6025 30 7.2075 30Z" fill="#4A4A4A"/>
</svg>
