<svg width="35" height="30" viewBox="0 0 35 30" fill="none" xmlns="http://www.w3.org/2000/svg">
<path d="M0 30V25.5882H26.6875V30H0ZM28.6562 30V25.5882H30.8437V30H28.6562ZM32.8125 30V25.5882H35V30H32.8125ZM28.6562 23.6029V21.1324C28.6562 19.8971 28.299 18.9265 27.5844 18.2206C26.8698 17.5147 26.0021 17.1618 24.9812 17.1618H21.875C20.3 17.1618 18.9802 16.5515 17.9156 15.3309C16.851 14.1103 16.3187 12.7059 16.3187 11.1176C16.3187 9.52941 16.851 8.19853 17.9156 7.125C18.9802 6.05147 20.3 5.51471 21.875 5.51471V7.72059C20.8542 7.72059 20.0375 8.02941 19.425 8.64706C18.8125 9.26471 18.5062 10.0882 18.5062 11.1176C18.5062 12.1471 18.8125 13.0441 19.425 13.8088C20.0375 14.5735 20.8542 14.9559 21.875 14.9559H24.9812C26.5562 14.9559 27.9271 15.5 29.0937 16.5882C30.2604 17.6765 30.8437 19.0147 30.8437 20.6029V23.6029H28.6562ZM32.8125 23.6029V19.1912C32.8125 16.9853 32.0833 15.1765 30.625 13.7647C29.1667 12.3529 27.3437 11.6471 25.1562 11.6471V9.44118C26.1479 9.44118 26.9573 9.08824 27.5844 8.38235C28.2115 7.67647 28.525 6.82353 28.525 5.82353C28.525 4.82353 28.2115 3.97059 27.5844 3.26471C26.9573 2.55882 26.1479 2.20588 25.1562 2.20588V0C26.7312 0 28.051 0.573529 29.1156 1.72059C30.1802 2.86765 30.7125 4.23529 30.7125 5.82353C30.7125 6.79412 30.5302 7.63235 30.1656 8.33824C29.801 9.04412 29.3271 9.64706 28.7437 10.1471C30.4354 10.7353 31.901 11.8382 33.1406 13.4559C34.3802 15.0735 35 16.9853 35 19.1912V23.6029H32.8125Z" fill="#4A4A4A"/>
</svg>
