<svg width="17" height="20" viewBox="0 0 17 20" fill="none" xmlns="http://www.w3.org/2000/svg">
<path d="M8.50222 9.75C8.98407 9.75 9.39583 9.57843 9.7375 9.23528C10.0792 8.89214 10.25 8.47964 10.25 7.99778C10.25 7.51593 10.0784 7.10417 9.73528 6.7625C9.39214 6.42083 8.97964 6.25 8.49778 6.25C8.01593 6.25 7.60417 6.42157 7.2625 6.76472C6.92083 7.10786 6.75 7.52036 6.75 8.00222C6.75 8.48407 6.92157 8.89583 7.26472 9.2375C7.60786 9.57917 8.02036 9.75 8.50222 9.75ZM8.5 18.025C10.7167 16.0083 12.3542 14.1792 13.4125 12.5375C14.4708 10.8958 15 9.45 15 8.2C15 6.23683 14.3726 4.62937 13.1177 3.37762C11.8629 2.12587 10.3236 1.5 8.5 1.5C6.67638 1.5 5.13715 2.12587 3.8823 3.37762C2.62743 4.62937 2 6.23683 2 8.2C2 9.45 2.54167 10.8958 3.625 12.5375C4.70833 14.1792 6.33333 16.0083 8.5 18.025ZM8.5 20C5.81667 17.7167 3.8125 15.5958 2.4875 13.6375C1.1625 11.6792 0.5 9.86667 0.5 8.2C0.5 5.7 1.30417 3.70833 2.9125 2.225C4.52083 0.741667 6.38333 0 8.5 0C10.6167 0 12.4792 0.741667 14.0875 2.225C15.6958 3.70833 16.5 5.7 16.5 8.2C16.5 9.86667 15.8375 11.6792 14.5125 13.6375C13.1875 15.5958 11.1833 17.7167 8.5 20Z" fill="#055999"/>
</svg>
