<svg width="42" height="31" viewBox="0 0 42 31" fill="none" xmlns="http://www.w3.org/2000/svg">
<path d="M0 30.8333V17.1726C0 16.2798 0.175 15.4405 0.525 14.6548C0.875 13.869 1.4 13.2262 2.1 12.7262V6.5119C2.1 4.90476 2.63375 3.55654 3.70125 2.46726C4.76875 1.37797 6.09 0.833328 7.665 0.833328H17.115C17.885 0.833328 18.6025 1.0119 19.2675 1.36904C19.9325 1.72619 20.51 2.20833 21 2.81547C21.49 2.20833 22.0588 1.72619 22.7062 1.36904C23.3537 1.0119 24.0625 0.833328 24.8325 0.833328H34.2825C35.8575 0.833328 37.1875 1.37797 38.2725 2.46726C39.3575 3.55654 39.9 4.90476 39.9 6.5119V12.7262C40.6 13.2262 41.125 13.869 41.475 14.6548C41.825 15.4405 42 16.2798 42 17.1726V30.8333H38.85V26.5476H3.15V30.8333H0ZM22.575 11.8155H36.75V6.5119C36.75 5.79761 36.5137 5.20833 36.0412 4.74404C35.5687 4.27976 34.9825 4.04761 34.2825 4.04761H24.675C24.08 4.04761 23.5812 4.29761 23.1787 4.79761C22.7762 5.29761 22.575 5.86904 22.575 6.5119V11.8155ZM5.25 11.8155H19.425V6.5119C19.425 5.86904 19.2237 5.29761 18.8212 4.79761C18.4187 4.29761 17.92 4.04761 17.325 4.04761H7.665C7 4.04761 6.43125 4.28869 5.95875 4.77083C5.48625 5.25297 5.25 5.83333 5.25 6.5119V11.8155ZM3.15 23.3333H38.85V17.1726C38.85 16.5655 38.6488 16.0565 38.2463 15.6458C37.8438 15.2351 37.345 15.0298 36.75 15.0298H5.25C4.655 15.0298 4.15625 15.2351 3.75375 15.6458C3.35125 16.0565 3.15 16.5655 3.15 17.1726V23.3333Z" fill="#4A4A4A"/>
</svg>
