<svg width="75" height="57" viewBox="0 0 75 57" fill="none" xmlns="http://www.w3.org/2000/svg">
<path d="M41.1751 0.500925C40.4706 0.503789 39.8995 1.07433 39.8972 1.77889C39.9 2.48347 40.4706 3.054 41.1751 3.05686H44.3205V7.85078C33.4935 10.4669 25.4328 20.2932 25.4328 31.9839C25.4328 45.671 36.4815 56.7989 50.0806 56.7989C63.6798 56.7989 74.7153 45.6705 74.7153 31.9839C74.7153 20.293 66.6625 10.4698 55.8393 7.85224V3.05539H58.9744L58.9738 3.05597C59.6824 3.05883 60.2593 2.48658 60.2621 1.778C60.261 1.43774 60.1241 1.1118 59.8829 0.872358C59.6412 0.632347 59.3141 0.498301 58.9739 0.500016L41.1751 0.500925ZM46.8868 3.05692H53.2697V7.37483C52.2249 7.2385 51.1611 7.16919 50.0796 7.16919C48.9981 7.16919 47.9316 7.23793 46.8868 7.37483V3.05692ZM50.0796 9.73549C62.2814 9.73549 72.1582 19.674 72.1582 31.9842C72.1582 44.2945 62.2811 54.2432 50.0796 54.2432C37.8779 54.2432 28.001 44.2943 28.001 31.9842C28.001 19.6741 37.8782 9.73549 50.0796 9.73549ZM10.1545 9.91594L10.1539 9.91651C9.81196 9.91479 9.48373 10.05 9.24199 10.2923C8.99969 10.534 8.8645 10.8622 8.86564 11.2042C8.86736 11.5445 9.00369 11.8704 9.24542 12.1104C9.48657 12.3499 9.81366 12.4839 10.1539 12.4828H26.3507C26.6909 12.4839 27.018 12.3499 27.2592 12.1104C27.5009 11.8704 27.6372 11.5445 27.639 11.2042C27.6401 10.8623 27.5049 10.534 27.2632 10.2923C27.0209 10.05 26.6926 9.9148 26.3507 9.91651L10.1545 9.91594ZM49.8406 16.8105C49.5003 16.8122 49.1744 16.9486 48.9344 17.1897C48.6949 17.4315 48.5609 17.7585 48.562 18.0988V34.0199C48.5603 34.3607 48.6938 34.6884 48.9338 34.9307C49.1733 35.1724 49.4998 35.3093 49.8406 35.3104H59.0007H59.0001C59.3426 35.3121 59.6714 35.1764 59.9138 34.9341C60.1555 34.6918 60.2907 34.3624 60.2884 34.0199C60.2872 33.6796 60.1509 33.3537 59.9092 33.1142C59.6675 32.8748 59.3404 32.7407 59.0001 32.7419H51.1186V18.0988C51.1198 17.7585 50.9863 17.4315 50.7463 17.1897C50.5068 16.9486 50.1809 16.8122 49.8406 16.8105ZM3.97936 20.3168H3.97878C3.63853 20.315 3.31144 20.4491 3.07028 20.6891C2.82856 20.9285 2.69222 21.2545 2.69051 21.5947C2.69222 21.935 2.82856 22.2609 3.07028 22.5004C3.31144 22.7404 3.63853 22.8744 3.97878 22.8727H20.1755C20.5158 22.8744 20.8429 22.7404 21.084 22.5004C21.3258 22.2609 21.4621 21.935 21.4638 21.5947C21.4621 21.2545 21.3258 20.9285 21.084 20.6891C20.8429 20.4491 20.5158 20.3151 20.1755 20.3168H3.97936ZM1.57352 30.7072H1.57295C1.23269 30.7055 0.905607 30.8395 0.664452 31.0789C0.422725 31.319 0.286391 31.6449 0.284675 31.9852C0.28353 32.3271 0.418716 32.6554 0.66102 32.8977C0.902747 33.1394 1.23098 33.2746 1.57297 33.2734H17.7697C18.1117 33.2746 18.4399 33.1394 18.6817 32.8977C18.924 32.6554 19.0592 32.3271 19.058 31.9852C19.0563 31.6449 18.92 31.319 18.6782 31.0789C18.4371 30.8395 18.11 30.7055 17.7697 30.7072H1.57352ZM3.97936 41.0976L3.97878 41.097C3.63853 41.0959 3.31144 41.2299 3.07028 41.4694C2.82856 41.7094 2.69222 42.0347 2.69051 42.3756C2.68936 42.7175 2.82455 43.0458 3.06685 43.2875C3.30858 43.5298 3.63681 43.665 3.9788 43.6633H20.1756C20.5175 43.665 20.8458 43.5298 21.0881 43.2875C21.3298 43.0458 21.465 42.7176 21.4638 42.3756C21.4621 42.0347 21.3258 41.7094 21.0841 41.4694C20.8429 41.2299 20.5158 41.0959 20.1756 41.097L3.97936 41.0976ZM10.1544 51.488L10.1538 51.4874C9.81353 51.4863 9.48644 51.6203 9.24529 51.8598C9.00356 52.0992 8.86723 52.4252 8.86551 52.7654C8.86436 53.1074 8.99955 53.4362 9.24186 53.6779C9.48358 53.9197 9.81181 54.0549 10.1538 54.0537H26.3506C26.6925 54.0549 27.0208 53.9197 27.2625 53.6779C27.5048 53.4362 27.64 53.1074 27.6388 52.7654C27.6371 52.4252 27.5008 52.0992 27.2591 51.8598C27.0179 51.6203 26.6908 51.4863 26.3506 51.4874L10.1544 51.488Z" fill="#E8E8E8"/>
</svg>
