<svg width="164" height="146" viewBox="0 0 164 146" fill="none" xmlns="http://www.w3.org/2000/svg">
<path d="M48.7992 41.8596L40.759 47.6268L45.7619 48.1672L52.7304 42.2206L48.7992 41.8596Z" fill="#2F2E41"/>
<path d="M17.3429 140.33L22.1788 140.33L24.4794 121.52L17.342 121.52L17.3429 140.33Z" fill="#FFB8B8"/>
<path d="M16.1093 138.738L25.6329 138.738H25.6332C27.2428 138.738 28.7865 139.383 29.9247 140.53C31.0628 141.678 31.7023 143.235 31.7024 144.858V145.057L16.1096 145.058L16.1093 138.738Z" fill="#2F2E41"/>
<path d="M14.3026 73.1448C14.3026 73.1448 12.2068 75.5339 15.6772 84.8468L15.0659 135.912L26.3123 135.691L28.7844 110.781L33.2853 74.432L14.3026 73.1448Z" fill="#2F2E41"/>
<path d="M3.07415 65.0839C2.4097 65.0821 1.7721 64.8193 1.29668 64.3511C0.821257 63.883 0.54544 63.2465 0.527764 62.5767L0 42.5192L9.03058 25.242C9.23562 24.853 9.53566 24.523 9.90233 24.2835C10.269 24.0439 10.6902 23.9025 11.1261 23.8728L18.0082 23.4272L17.4139 63.8577L3.29797 65.0743C3.22305 65.0808 3.14845 65.084 3.07415 65.0839Z" fill="#FF9900"/>
<path d="M37.1425 80.205L37.0193 80.1861C22.6321 77.9733 11.7752 75.852 11.6672 75.8308L11.5324 75.8044L15.3039 66.5537C15.2741 65.5871 14.4577 38.4426 16.0205 30.6437C17.5335 23.0939 24.665 21.8566 25.4776 21.7402L26.2936 19.0137L36.6028 24.4234L38.4008 30.6637L38.766 47.767L37.1425 80.205Z" fill="#2F2E41"/>
<path d="M22.9751 54.312C16.3331 54.312 10.9294 47.0293 10.9294 38.0776C10.9294 29.126 16.3331 21.8433 22.9751 21.8433C29.6171 21.8433 35.0208 29.126 35.0208 38.0776C35.0208 47.0293 29.6171 54.312 22.9751 54.312ZM22.9751 23.4326C17.2022 23.4326 12.5055 30.0024 12.5055 38.0776C12.5055 46.1529 17.2022 52.7226 22.9751 52.7226C28.7481 52.7226 33.4447 46.1529 33.4447 38.0776C33.4447 30.0024 28.7481 23.4326 22.9751 23.4326Z" fill="#FF9900"/>
<path d="M43.3515 45.0027C42.8873 45.0026 42.4281 45.0994 42.0027 45.287C41.5774 45.4745 41.1951 45.7489 40.88 46.0927H23.5521L17.2049 47.4552L18.247 55.5607L40.8256 50.6639C41.1994 51.0896 41.6731 51.4141 42.2032 51.6078C42.7334 51.8015 43.3032 51.8582 43.8607 51.7726C44.4182 51.6871 44.9455 51.4621 45.3946 51.1182C45.8437 50.7743 46.2002 50.3225 46.4316 49.8039C46.6629 49.2853 46.7618 48.7166 46.7192 48.1496C46.6765 47.5825 46.4937 47.0353 46.1874 46.5579C45.8811 46.0804 45.4611 45.688 44.9658 45.4163C44.4704 45.1446 43.9154 45.0024 43.3515 45.0027Z" fill="#FFB8B8"/>
<path d="M42.0792 17.8652C45.3406 14.5763 45.3406 9.244 42.0792 5.95514C38.8179 2.66627 33.5302 2.66627 30.2689 5.95514C27.0076 9.24401 27.0076 14.5763 30.2689 17.8652C33.5303 21.154 38.8179 21.154 42.0792 17.8652Z" fill="#FFB8B8"/>
<path d="M28.3197 5.17729L27.9148 4.35555L29.952 3.33486C29.952 3.33486 32.1993 -0.352627 36.2659 0.683637C40.3325 1.7199 42.1621 2.34008 42.1621 2.34008L44.1941 3.37115L43.1742 4.39444L45.0038 5.01464L43.7815 5.62705L45.2037 6.45139L44.4381 10.6772C44.4381 10.6772 43.1665 7.47208 40.722 8.69691C38.2774 9.92173 33.8059 8.06375 33.8059 8.06375L29.9212 15.6454C29.9212 15.6454 29.1198 12.9877 27.6909 13.6963C27.6909 13.6963 24.0404 7.83368 28.3197 5.17729Z" fill="#2F2E41"/>
<path d="M100.884 57.0248L100.527 50.2737L96.9243 47.322L94.8373 53.5736L83.1648 69.2729C82.6129 69.3621 82.0979 69.6088 81.6808 69.9839C81.2636 70.3589 80.9617 70.8467 80.8108 71.3893C80.6598 71.932 80.6662 72.5069 80.8292 73.0461C80.9921 73.5852 81.3048 74.066 81.7302 74.4315C82.1556 74.7971 82.6759 75.0321 83.2296 75.1087C83.7833 75.1854 84.3472 75.1005 84.8546 74.8641C85.3619 74.6278 85.7915 74.2498 86.0925 73.7749C86.3935 73.3 86.5533 72.7481 86.5531 72.1845C86.5531 72.1447 86.5487 72.1061 86.5472 72.0668L100.884 57.0248Z" fill="#FFB8B8"/>
<path d="M107.821 142.111L105.061 142.11L103.747 131.374L107.821 131.374L107.821 142.111Z" fill="#FFB8B8"/>
<path d="M108.525 144.809L99.6242 144.809V144.695C99.6243 143.769 99.9893 142.88 100.639 142.225C101.289 141.57 102.17 141.202 103.089 141.202L108.525 141.202L108.525 144.809Z" fill="#2F2E41"/>
<path d="M120.654 142.111L117.894 142.11L116.581 131.374L120.655 131.374L120.654 142.111Z" fill="#FFB8B8"/>
<path d="M121.358 144.809L112.458 144.809V144.695C112.458 143.769 112.823 142.88 113.473 142.225C114.122 141.57 115.003 141.202 115.922 141.202L121.359 141.202L121.358 144.809Z" fill="#2F2E41"/>
<path d="M117.737 28.822C118.906 23.956 119.896 18.4675 117.692 13.9858C116.162 10.8762 110.505 9.829 107.262 10.9493C104.019 12.0696 101.675 15.109 100.643 18.4229C99.6123 21.7368 99.7321 25.3077 100.182 28.7528C106.146 28.6372 112.11 28.5217 117.737 28.822Z" fill="#2F2E41"/>
<path d="M111.008 27.961C114.378 26.103 115.617 21.8415 113.775 18.4427C111.932 15.0438 107.706 13.7947 104.336 15.6527C100.966 17.5107 99.7269 21.7722 101.569 25.171C103.412 28.5699 107.638 29.819 111.008 27.961Z" fill="#FFB8B8"/>
<path d="M116.174 20.3623C116.196 19.1818 115.983 18.009 115.547 16.9133C115.111 15.8177 114.46 14.8217 113.635 13.9845C112.809 13.1473 111.825 12.4859 110.741 12.0398C109.658 11.5936 108.496 11.3717 107.325 11.3872C106.154 11.4028 104.999 11.6555 103.927 12.1303C102.855 12.6052 101.889 13.2925 101.085 14.1513C100.282 15.0102 99.6582 16.0231 99.2507 17.13C98.8432 18.2368 98.6606 19.415 98.7135 20.5944C104.666 20.6071 110.619 20.6199 116.174 20.3623Z" fill="#2F2E41"/>
<path d="M96.5035 64.0626C96.5035 64.0626 95.3717 80.6402 95.9859 85.6971C96.6001 90.754 103.288 134.964 103.288 134.964L108.332 134.955L109.83 82.8563L115.795 135.461L121.011 134.914L123.971 83.457C123.971 83.457 123.507 64.1922 119.735 62.2605L96.5035 64.0626Z" fill="#2F2E41"/>
<path d="M104.416 80.4954C100.711 80.4941 97.0594 79.6024 93.7641 77.8941L93.692 77.857L96.4802 59.1995L96.2992 36.9633C96.2943 36.353 96.41 35.7478 96.6394 35.183C96.8689 34.6182 97.2076 34.1052 97.6358 33.6738C98.064 33.2424 98.5731 32.9014 99.1334 32.6705C99.6936 32.4397 100.294 32.3237 100.899 32.3293L115.861 32.4678C116.523 32.4739 117.177 32.6174 117.782 32.8894C118.387 33.1614 118.93 33.5561 119.378 34.0488C119.825 34.5416 120.167 35.1219 120.382 35.7536C120.598 36.3854 120.682 37.0551 120.63 37.7211L119.229 55.5471L123.86 70.0159L123.055 71.0948C120.885 74.0135 118.071 76.3825 114.836 78.0142C111.601 79.6459 108.033 80.4954 104.416 80.4954Z" fill="#2F2E41"/>
<path d="M94.796 51.5131L96.3638 35.3804L96.8676 34.6573C97.2128 34.1621 97.6516 33.7405 98.1587 33.4167C98.6659 33.0929 99.2315 32.8734 99.823 32.7706C100.415 32.6678 101.02 32.6839 101.606 32.8178C102.191 32.9518 102.744 33.201 103.234 33.5512L103.666 33.8602L103.24 50.2093L94.796 51.5131Z" fill="#2F2E41"/>
<path d="M159.038 130.331C163.091 129.202 164.82 135.409 160.777 136.574C156.725 137.703 154.995 131.496 159.038 130.331Z" fill="#2F2E41"/>
<path d="M136.566 138.319C140.619 137.19 142.348 143.397 138.306 144.562C134.253 145.691 132.523 139.485 136.566 138.319Z" fill="#2F2E41"/>
<path d="M127.471 72.8579L127.534 72.8401L137.973 101.422L139.35 101.032L128.835 72.245C128.812 71.8013 128.64 71.3788 128.346 71.0477C128.052 70.7165 127.655 70.4967 127.221 70.4245C122 69.592 119.883 74.2656 119.883 74.2656L119.904 74.2967L130.578 103.518L131.954 103.128L121.595 74.7664C124.749 71.6208 127.471 72.8579 127.471 72.8579Z" fill="#2F2E41"/>
<path d="M139.436 139.927C137.946 139.914 136.5 139.422 135.307 138.522C134.114 137.622 133.238 136.362 132.805 134.925C130.812 128.348 126.111 112.59 125.488 108.314C124.677 102.746 129.247 101.163 129.349 101.129C129.472 101.087 131.309 100.568 133.852 99.8507C138.175 98.6307 144.708 96.787 144.948 96.6781C145.96 96.3232 147.034 96.183 148.102 96.2662C149.171 96.3494 150.211 96.6543 151.157 97.1617C152.132 97.679 152.993 98.3909 153.687 99.2541C154.38 100.117 154.893 101.114 155.193 102.183L161.917 126.308C162.332 127.787 162.216 129.366 161.589 130.767C160.962 132.168 159.864 133.301 158.49 133.965C153.301 136.479 145.692 139.832 139.538 139.927C139.504 139.927 139.47 139.927 139.436 139.927Z" fill="#FF9900"/>
<path d="M126.361 71.8694L122.981 51.9572L122.603 45.2371L117.139 47.0422L121.748 73.1158C121.561 73.6232 121.517 74.1725 121.62 74.7035C121.723 75.2345 121.968 75.7268 122.33 76.1266C122.691 76.5264 123.154 76.8183 123.669 76.9704C124.184 77.1224 124.731 77.1288 125.249 76.9888C125.767 76.8488 126.237 76.5678 126.607 76.1765C126.978 75.7853 127.235 75.2988 127.349 74.7703C127.464 74.2418 127.433 73.6917 127.258 73.1801C127.084 72.6684 126.774 72.215 126.361 71.8694Z" fill="#FFB8B8"/>
<path d="M123.905 50.7083L115.376 50.2405L113.372 34.011L113.567 33.8403C114.047 33.4202 114.605 33.0999 115.208 32.8977C115.812 32.6956 116.449 32.6156 117.083 32.6624C117.717 32.7092 118.335 32.8818 118.903 33.1703C119.471 33.4589 119.977 33.8576 120.391 34.3438L120.786 34.8065L120.792 34.8358L123.905 50.7083Z" fill="#2F2E41"/>
<path d="M158.639 129.985L149.921 100.229L129.421 106.072L129.299 105.635L150.227 99.6702L150.29 99.8854L159.071 129.857L158.639 129.985Z" fill="#2F2E41"/>
<path d="M3.72478 62.9503L2.79648 42.5379L12.3051 23.7937L12.7059 24.0005L3.25196 42.6374L4.17464 62.9294L3.72478 62.9503Z" fill="#2F2E41"/>
<path d="M18.3579 57.0801L16.3763 51.1359L15.897 31.3212L16.7413 28.5099C17.0452 27.498 17.5485 26.5584 18.2212 25.7475C18.8938 24.9365 19.7218 24.2708 20.6557 23.7903C21.5895 23.3097 22.61 23.0243 23.6559 22.951C24.7017 22.8777 25.7515 23.0181 26.7423 23.3638C27.7331 23.7095 28.6445 24.2533 29.4218 24.9627C30.1992 25.6721 30.8265 26.5325 31.2663 27.4922C31.706 28.452 31.9491 29.4914 31.9809 30.5482C32.0128 31.6049 31.8327 32.6573 31.4516 33.6422L26.9261 45.3368L27.1561 45.7871L36.9606 45.707L40.4433 52.0288L18.3579 57.0801Z" fill="#2F2E41"/>
<path d="M80.8165 99.3804L80.8096 99.3818L69.9427 101.576L60.5946 105.372C60.4737 105.421 60.3444 105.446 60.2142 105.444C60.0839 105.443 59.9551 105.416 59.8353 105.365C59.7154 105.313 59.6068 105.238 59.5155 105.144C59.4243 105.051 59.3523 104.94 59.3037 104.818C59.2922 104.789 59.2821 104.76 59.2733 104.73L52.4442 81.6702C52.3724 81.4313 52.3922 81.1739 52.4996 80.949C52.607 80.7241 52.7942 80.5481 53.0242 80.4558L62.5433 76.59L62.5503 76.5886L73.4172 74.3947L82.7653 70.5983C83.0093 70.4992 83.2825 70.5019 83.5246 70.6059C83.7667 70.7098 83.9579 70.9065 84.0562 71.1526C84.0676 71.1813 84.0777 71.2104 84.0865 71.2401L90.9156 94.3002C90.9874 94.5391 90.9677 94.7964 90.8602 95.0213C90.7528 95.2462 90.5656 95.4223 90.3356 95.5145L80.8165 99.3804Z" fill="#E8E8E8"/>
<path d="M69.1555 83.8906C66.6636 83.0038 64.0879 82.2269 61.5007 81.5817L61.3708 81.5493L62.6844 85.9849L69.3768 83.9694L69.1555 83.8906ZM62.787 85.7934L61.5936 81.7637C64.0562 82.3819 66.5067 83.1193 68.8834 83.9573L62.787 85.7934ZM82.2136 89.8866C81.0535 89.2252 79.8769 88.5918 78.6836 87.9864C78.3545 87.8192 78.0245 87.6545 77.6934 87.4922C75.6727 86.5009 73.621 85.5971 71.5386 84.7809L71.5143 84.7714L63.0775 87.3123L65.3814 95.0921L82.3698 89.9757L82.2136 89.8866ZM65.484 94.9005L63.2674 87.4157L71.5078 84.9339C73.516 85.7215 75.5012 86.5938 77.4635 87.551C77.8042 87.7171 78.1436 87.8857 78.4818 88.0568C79.6637 88.6534 80.8304 89.2785 81.9821 89.9319L65.484 94.9005ZM82.2136 89.8866C81.0535 89.2252 79.8769 88.5918 78.6836 87.9864C78.3545 87.8192 78.0245 87.6545 77.6934 87.4922C75.6727 86.5009 73.621 85.5971 71.5386 84.7809L71.5143 84.7714L63.0775 87.3123L65.3814 95.0921L82.3698 89.9757L82.2136 89.8866ZM65.484 94.9005L63.2674 87.4157L71.5078 84.9339C73.516 85.7215 75.5012 86.5938 77.4635 87.551C77.8042 87.7171 78.1436 87.8857 78.4818 88.0568C79.6637 88.6534 80.8304 89.2785 81.9821 89.9319L65.484 94.9005ZM69.1555 83.8906C66.6636 83.0038 64.0879 82.2269 61.5007 81.5817L61.3708 81.5493L62.6844 85.9849L69.3768 83.9694L69.1555 83.8906ZM62.787 85.7934L61.5936 81.7637C64.0562 82.3819 66.5067 83.1193 68.8834 83.9573L62.787 85.7934ZM69.1555 83.8906C66.6636 83.0038 64.0879 82.2269 61.5007 81.5817L61.3708 81.5493L62.6844 85.9849L69.3768 83.9694L69.1555 83.8906ZM62.787 85.7934L61.5936 81.7637C64.0562 82.3819 66.5067 83.1193 68.8834 83.9573L62.787 85.7934ZM82.2136 89.8866C81.0535 89.2252 79.8769 88.5918 78.6836 87.9864C78.3545 87.8192 78.0245 87.6545 77.6934 87.4922C75.6727 86.5009 73.621 85.5971 71.5386 84.7809L71.5143 84.7714L63.0775 87.3123L65.3814 95.0921L82.3698 89.9757L82.2136 89.8866ZM65.484 94.9005L63.2674 87.4157L71.5078 84.9339C73.516 85.7215 75.5012 86.5938 77.4635 87.551C77.8042 87.7171 78.1436 87.8857 78.4818 88.0568C79.6637 88.6534 80.8304 89.2785 81.9821 89.9319L65.484 94.9005ZM58.5359 98.5994L58.5796 98.7469L64.3557 97.0074L64.989 99.1459L59.2129 100.885L59.2566 101.033L65.1789 99.2493L64.4583 96.8158L58.5359 98.5994ZM66.8883 100.18L67.3308 101.675L67.473 101.617L67.0782 100.284L89.6006 93.5007L89.5569 93.3532L66.8883 100.18ZM88.4869 89.7399L88.4432 89.5924L65.7745 96.4194L66.4952 98.8529L89.1639 92.0259L89.1202 91.8784L66.5978 98.6614L65.9644 96.5229L88.4869 89.7399ZM71.6515 83.1237C68.1994 81.786 64.6533 80.7096 61.0426 79.9032L60.6004 78.4099L60.4582 78.4676L60.9038 79.9724L61.0534 80.0634C64.6501 80.8688 68.1824 81.9429 71.6211 83.2766L71.6455 83.2861L85.3531 79.1578L85.3094 79.0104L71.6515 83.1237ZM61.1782 86.2779L55.4021 88.0174L55.4458 88.1649L61.3682 86.3813L59.1784 78.9872L59.0362 79.0449L61.1782 86.2779ZM85.7462 80.4852L73.6956 84.1144L73.8918 84.1975C75.7401 84.9818 77.5835 85.8488 79.4222 86.7985C79.6835 86.9334 79.9447 87.0702 80.2055 87.2087C81.5034 87.8961 82.7913 88.6218 84.0691 89.3856L84.211 89.4212L88.0501 88.265L88.0064 88.1175L84.1765 89.271C82.9123 88.5144 81.6363 87.7943 80.3485 87.1107C80.0909 86.9738 79.833 86.8385 79.5748 86.7047C77.7751 85.7725 75.9656 84.9173 74.1465 84.1393L85.7898 80.6327L85.7462 80.4852ZM59.6497 102.36L59.6933 102.508L65.4695 100.768L65.9089 102.252L66.0511 102.194L65.572 100.577L59.6497 102.36ZM55.8389 89.4923L55.8826 89.6398L61.6587 87.9002L63.8753 95.385L58.0991 97.1246L58.1428 97.2721L64.0652 95.4885L61.7613 87.7087L55.8389 89.4923ZM69.1555 83.8906C66.6636 83.0038 64.0879 82.2269 61.5007 81.5817L61.3708 81.5493L62.6844 85.9849L69.3768 83.9694L69.1555 83.8906ZM62.787 85.7934L61.5936 81.7637C64.0562 82.3819 66.5067 83.1193 68.8834 83.9573L62.787 85.7934ZM82.2136 89.8866C81.0535 89.2252 79.8769 88.5918 78.6836 87.9864C78.3545 87.8192 78.0245 87.6545 77.6934 87.4922C75.6727 86.5009 73.621 85.5971 71.5386 84.7809L71.5143 84.7714L63.0775 87.3123L65.3814 95.0921L82.3698 89.9757L82.2136 89.8866ZM65.484 94.9005L63.2674 87.4157L71.5078 84.9339C73.516 85.7215 75.5012 86.5938 77.4635 87.551C77.8042 87.7171 78.1436 87.8857 78.4818 88.0568C79.6637 88.6534 80.8304 89.2785 81.9821 89.9319L65.484 94.9005ZM69.1555 83.8906C66.6636 83.0038 64.0879 82.2269 61.5007 81.5817L61.3708 81.5493L62.6844 85.9849L69.3768 83.9694L69.1555 83.8906ZM62.787 85.7934L61.5936 81.7637C64.0562 82.3819 66.5067 83.1193 68.8834 83.9573L62.787 85.7934ZM82.2136 89.8866C81.0535 89.2252 79.8769 88.5918 78.6836 87.9864C78.3545 87.8192 78.0245 87.6545 77.6934 87.4922C75.6727 86.5009 73.621 85.5971 71.5386 84.7809L71.5143 84.7714L63.0775 87.3123L65.3814 95.0921L82.3698 89.9757L82.2136 89.8866ZM65.484 94.9005L63.2674 87.4157L71.5078 84.9339C73.516 85.7215 75.5012 86.5938 77.4635 87.551C77.8042 87.7171 78.1436 87.8857 78.4818 88.0568C79.6637 88.6534 80.8304 89.2785 81.9821 89.9319L65.484 94.9005Z" fill="#E8E8E8"/>
<path d="M71.0959 84.5852C71.649 86.4528 69.5278 91.6232 69.5278 91.6232C69.5278 91.6232 64.9424 88.4726 64.3893 86.605C64.1237 85.7081 64.2223 84.7416 64.6634 83.9181C65.1044 83.0945 65.8518 82.4813 66.7412 82.2135C67.6305 81.9457 68.5889 82.0451 69.4056 82.4898C70.2223 82.9346 70.8303 83.6883 71.0959 84.5852Z" fill="#FF9900"/>
<path d="M69.2321 84.9863C69.3226 85.2921 69.3212 85.618 69.2281 85.923C69.1349 86.2279 68.9542 86.4982 68.7087 86.6995C68.4633 86.9009 68.1641 87.0243 67.8491 87.0542C67.5341 87.0841 67.2173 87.0192 66.9389 86.8675C66.6605 86.7159 66.4329 86.4844 66.285 86.2024C66.137 85.9203 66.0753 85.6004 66.1077 85.2829C66.1401 84.9655 66.2651 84.6649 66.4668 84.4191C66.6686 84.1734 66.9382 83.9934 67.2413 83.9021C67.4426 83.8414 67.6539 83.8213 67.8629 83.8429C68.0719 83.8645 68.2746 83.9275 68.4595 84.0282C68.6444 84.1289 68.8078 84.2653 68.9403 84.4297C69.0729 84.5941 69.172 84.7833 69.2321 84.9863Z" fill="#E8E8E8"/>
<path d="M69.9806 94.1036C70.5016 94.1036 70.924 93.6777 70.924 93.1523C70.924 92.6269 70.5016 92.2009 69.9806 92.2009C69.4596 92.2009 69.0372 92.6269 69.0372 93.1523C69.0372 93.6777 69.4596 94.1036 69.9806 94.1036Z" fill="#FF9900"/>
<path d="M80.2744 80.6441L73.7181 82.6186C73.71 82.6212 73.7016 82.623 73.6931 82.624L75.1898 76.2738C75.1988 76.2344 75.2179 76.198 75.2453 76.1685C75.2727 76.139 75.3074 76.1173 75.3459 76.1057C75.3843 76.0942 75.4251 76.0931 75.4641 76.1026C75.5031 76.1121 75.5388 76.1319 75.5677 76.16L78.7252 79.1681L78.8764 79.3119L80.2744 80.6441Z" fill="#E8E8E8"/>
<path opacity="0.2" d="M80.2744 80.6438L78.0359 81.3179L78.6582 79.3775L78.7028 79.2377L78.7253 79.1677L78.8764 79.3117L80.2744 80.6438Z" fill="#4A4A4A"/>
<path d="M83.9248 79.5446L78.2542 81.2524L78.8764 79.3119L78.9211 79.1721L79.7318 76.6433C79.7477 76.6036 79.7716 76.5677 79.8021 76.538C79.8325 76.5082 79.8689 76.4853 79.9087 76.4706C79.9485 76.456 79.991 76.4499 80.0333 76.4529C80.0756 76.4558 80.1168 76.4677 80.1542 76.4878C80.1641 76.4938 80.1735 76.5003 80.1825 76.5075L83.9248 79.5446Z" fill="#E8E8E8"/>
</svg>
