<svg width="423" height="460" viewBox="0 0 423 460" fill="none" xmlns="http://www.w3.org/2000/svg">
<path d="M197.713 452.231L209.572 452.23L215.214 406.487L197.711 406.489L197.713 452.231Z" fill="#FFB8B8"/>
<path d="M238.344 451.962C238.713 452.584 238.908 454.591 238.908 455.315C238.908 457.538 237.106 459.34 234.883 459.34H198.157C196.64 459.34 195.411 458.11 195.411 456.594V455.065C195.411 455.065 193.594 450.469 197.335 444.805C197.335 444.805 201.983 449.24 208.93 442.293L210.979 438.582L225.807 449.427L234.026 450.439C235.825 450.66 237.419 450.404 238.344 451.962Z" fill="#2F2E41"/>
<path d="M152.713 452.231L164.572 452.23L170.214 406.487L152.711 406.489L152.713 452.231Z" fill="#FFB8B8"/>
<path d="M193.344 451.962C193.713 452.584 193.908 454.591 193.908 455.315C193.908 457.538 192.106 459.34 189.883 459.34H153.157C151.64 459.34 150.411 458.11 150.411 456.594V455.065C150.411 455.065 148.594 450.469 152.335 444.805C152.335 444.805 156.983 449.24 163.93 442.293L165.979 438.582L180.807 449.427L189.026 450.439C190.825 450.66 192.419 450.404 193.344 451.962Z" fill="#2F2E41"/>
<path d="M143.979 206.516L128.979 240.516L147.979 426.516L171.479 428.016L180.979 263.516L189.979 428.516L217.979 425.516L224.621 216.055L143.979 206.516Z" fill="#2F2E41"/>
<path d="M203.078 71.0159L172.98 65.5159L166.901 71.5946L135.98 84.5159L140.98 181.516C140.98 181.516 130.98 188.177 135.98 197.347C140.98 206.516 139.98 217.516 139.98 217.516H224.621L220.98 162.516L230.98 92.5159L207.613 81.4534L203.078 71.0159Z" fill="#055999"/>
<path d="M189.918 62.6779C204.517 62.6779 216.352 50.8433 216.352 36.2447C216.352 21.646 204.517 9.81143 189.918 9.81143C175.32 9.81143 163.485 21.646 163.485 36.2447C163.485 50.8433 175.32 62.6779 189.918 62.6779Z" fill="#FFB8B8"/>
<path d="M170.96 59.71C167.793 59.993 162.624 51.8922 162.854 44.0468C163.003 38.9998 158.621 38.0074 158.295 31.4986C158.106 27.706 163.931 26.5235 164.331 23.4816C165.057 17.9699 168.612 14.2611 169.056 13.8103C172.888 9.91835 175.593 11.1836 180.1 6.67292C182.813 3.95729 182.118 3.2133 183.945 2.00877C189.218 -1.46757 198.694 2.30012 204.361 7.37535C206.322 9.13158 213.631 7.21212 216.824 12.1715C220.585 18.0146 219.712 29.9309 218.099 31.5036C217.119 32.459 214.881 30.1247 208.815 28.6266C203.199 27.2396 208.497 34.0988 202.004 32.9478C194.327 31.5866 192.823 29.2508 189.948 30.6518C186.909 32.1327 184.534 36.7184 185.223 40.3231C185.565 42.1119 186.557 43.1093 185.998 44.019C184.977 45.6796 183.805 44.0509 182.496 45.7176C180.972 47.6561 184.758 52.6291 184.045 53.1093C183.901 53.2061 183.467 53.1935 179.381 49.2641C177.749 47.6951 177.271 46.7316 176.952 46.8795C176.435 47.1189 173.048 50.2739 174.342 52.7655C176.354 56.6428 173.778 56.7636 174.342 59.3738C174.923 62.0666 172.973 59.5302 170.96 59.71Z" fill="#2F2E41"/>
<path d="M199.059 188.139C191.265 192.207 187.047 199.525 189.636 204.485C192.226 209.444 200.642 210.166 208.438 206.096C211.574 204.513 214.286 202.201 216.346 199.355L249.149 181.703L240.538 166.486L209.113 185.503C205.599 185.566 202.152 186.47 199.059 188.139Z" fill="#FFB8B8"/>
<path d="M224.979 93.5159C224.979 93.5159 233.979 87.5159 239.979 103.516C244.713 116.139 253.492 153.346 256.987 168.491C257.915 172.511 256.572 176.711 253.488 179.452L249.479 183.016L229.979 197.516L216.684 178.169L232.832 168.433L214.417 128.485L224.979 93.5159Z" fill="#055999"/>
<path d="M225.338 176.25V155.743C225.338 154.56 226.3 153.598 227.483 153.598H237.406C238.589 153.598 239.551 154.56 239.551 155.743V176.25C239.551 177.433 238.589 178.395 237.406 178.395H227.483C226.3 178.395 225.338 177.433 225.338 176.25Z" fill="#055999"/>
<path d="M338.123 300.244L304.909 300.702L291.593 152.225C291.27 148.621 292.434 144.977 294.787 142.228L327.446 104.073C332.018 98.7319 339.792 97.7683 345.529 101.833L386.435 130.816C389.772 133.18 391.84 136.877 392.108 140.958L421.967 241.272L417.962 274.726L418.002 274.772L422.735 299.077L338.123 300.244Z" fill="#CCCCCC"/>
<path d="M331.166 138.596L330.631 131.705C330.49 129.886 331.855 128.291 333.674 128.15L343.356 127.398C345.175 127.257 346.77 128.622 346.911 130.441L347.446 137.333C347.587 139.152 346.222 140.747 344.403 140.888L334.721 141.639C332.902 141.78 331.307 140.415 331.166 138.596Z" fill="#055999"/>
<path d="M314.85 193.677L312.872 168.179C312.73 166.36 314.096 164.766 315.915 164.624L330.249 163.512C332.068 163.371 333.662 164.736 333.803 166.555L335.782 192.052C335.923 193.871 334.558 195.466 332.739 195.607L318.405 196.72C316.586 196.861 314.992 195.496 314.85 193.677Z" fill="#2F2E41"/>
<path d="M351.883 250.846C350.146 250.919 348.64 249.622 348.454 247.893L345.817 223.305C345.704 222.255 346.084 221.242 346.858 220.525C347.632 219.807 348.671 219.507 349.709 219.698L350.449 219.835C351.921 220.108 353.03 221.341 353.145 222.833L355.043 247.284C355.113 248.187 354.821 249.058 354.219 249.736C353.645 250.384 352.862 250.772 352.003 250.839C351.963 250.842 351.923 250.844 351.883 250.846Z" fill="#2F2E41"/>
<path d="M321.544 249.78L319.56 224.208C319.42 222.403 320.721 220.845 322.522 220.66L335.526 219.332C337.33 219.167 338.959 220.466 339.152 222.272L341.912 248.103C342.008 249 341.743 249.876 341.166 250.569C340.59 251.263 339.777 251.683 338.878 251.753L325.099 252.823C323.28 252.964 321.685 251.599 321.544 249.78Z" fill="#2F2E41"/>
<path d="M399.905 261.277L411.525 278.638L414.281 298.962L422.452 298.848L417.784 274.876L399.234 252.919C397.99 255.632 398.245 258.797 399.905 261.277Z" fill="#CCCCCC"/>
<path d="M413.501 293.145L380.395 296.17L380.438 296.634L413.544 293.609L413.501 293.145Z" fill="#2F2E41"/>
<path d="M411.172 289.195L379.768 291.88L379.808 292.344L411.212 289.66L411.172 289.195Z" fill="#2F2E41"/>
<path d="M409.216 285.127L379.204 288.047L379.249 288.511L409.261 285.591L409.216 285.127Z" fill="#2F2E41"/>
<path d="M407.959 281.027L379.168 284.226L379.22 284.69L408.011 281.491L407.959 281.027Z" fill="#2F2E41"/>
<path d="M406.275 277.421L378.618 280.548L378.67 281.012L406.328 277.885L406.275 277.421Z" fill="#2F2E41"/>
<path d="M404.169 274.295L377.157 276.392L377.193 276.857L404.205 274.761L404.169 274.295Z" fill="#2F2E41"/>
<path d="M402.517 271.14L376.29 273.485L376.331 273.95L402.559 271.605L402.517 271.14Z" fill="#2F2E41"/>
<path d="M400.864 267.995L375.492 270.814L375.544 271.278L400.916 268.459L400.864 267.995Z" fill="#2F2E41"/>
<path d="M399.686 264.828L374.602 267.219L374.646 267.684L399.731 265.293L399.686 264.828Z" fill="#2F2E41"/>
<path d="M397.572 261.751L373.579 264.369L373.63 264.833L397.623 262.215L397.572 261.751Z" fill="#2F2E41"/>
<path d="M396.427 258.986L372.606 261.069L372.647 261.534L396.467 259.451L396.427 258.986Z" fill="#2F2E41"/>
<path d="M370.102 251.393L367.654 219.848C367.513 218.029 368.878 216.434 370.697 216.293L385.962 215.109C387.781 214.967 389.375 216.332 389.516 218.152L391.964 249.696C392.106 251.515 390.741 253.11 388.922 253.251L373.657 254.435C371.838 254.577 370.244 253.212 370.102 251.393Z" fill="#055999"/>
<path d="M338.123 300.244L310.968 300.62L310.75 300.623L309.127 279.711C308.921 277.067 310.906 274.748 313.551 274.543L340.24 272.471C342.885 272.266 345.203 274.251 345.408 276.896L347.166 299.543L346.933 299.561L338.123 300.244Z" fill="#CCCCCC"/>
<path d="M367.523 194.035L365.652 169.933C365.511 168.114 366.876 166.519 368.695 166.378L373.726 165.987C375.545 165.846 377.14 167.211 377.281 169.03L379.152 193.132C379.293 194.951 377.928 196.546 376.109 196.687L371.078 197.078C369.259 197.219 367.664 195.854 367.523 194.035Z" fill="#2F2E41"/>
<path d="M380.837 299.27L377.854 278.911L372.151 259.7L370.573 254.441C368.057 253.001 364.98 255.059 365.348 257.934L365.639 260.205L371.342 279.417L374.325 299.775" fill="#CCCCCC"/>
<path d="M46.5829 303.997L13.369 304.455L0.0530374 155.977C-0.270063 152.373 0.893958 148.729 3.24704 145.98L35.9067 107.825C40.4786 102.484 48.252 101.521 53.9892 105.586L94.8947 134.568C98.2319 136.932 100.3 140.629 100.568 144.71L130.427 245.024L126.423 278.478L126.462 278.525L131.195 302.829L46.5829 303.997Z" fill="#CCCCCC"/>
<path d="M39.6259 142.349L39.0911 135.457C38.9499 133.638 40.315 132.043 42.134 131.902L51.8166 131.151C53.6356 131.01 55.2302 132.375 55.3713 134.194L55.9062 141.085C56.0473 142.904 54.6825 144.499 52.8634 144.64L43.1809 145.391C41.3619 145.533 39.7671 144.168 39.6259 142.349Z" fill="#055999"/>
<path d="M23.3106 197.429L21.3318 171.932C21.1906 170.113 22.5557 168.518 24.3748 168.377L38.7088 167.264C40.5278 167.123 42.1224 168.488 42.2636 170.307L44.2424 195.805C44.3835 197.624 43.0187 199.219 41.1996 199.36L26.8656 200.472C25.0466 200.613 23.4518 199.248 23.3106 197.429Z" fill="#2F2E41"/>
<path d="M60.3433 254.599C58.6061 254.672 57.0999 253.374 56.9141 251.645L54.2768 227.057C54.1642 226.008 54.5438 224.995 55.3179 224.277C56.0922 223.56 57.1316 223.26 58.1696 223.451L58.9094 223.588C60.381 223.861 61.4898 225.093 61.6056 226.585L63.5032 251.037C63.5733 251.94 63.2808 252.81 62.6796 253.488C62.1052 254.136 61.3222 254.524 60.4636 254.591C60.4237 254.594 60.3837 254.597 60.3433 254.599Z" fill="#2F2E41"/>
<path d="M30.0044 253.532L28.0198 227.961C27.8797 226.155 29.1812 224.597 30.9824 224.413L43.9859 223.084C45.7898 222.919 47.4193 224.218 47.6127 226.024L50.3723 251.855C50.4679 252.752 50.2032 253.628 49.6264 254.322C49.0501 255.015 48.2373 255.436 47.3381 255.506L33.5594 256.575C31.7403 256.716 30.1455 255.351 30.0044 253.532Z" fill="#2F2E41"/>
<path d="M108.365 265.03L119.985 282.39L122.742 302.715L130.912 302.6L126.244 278.629L107.694 256.671C106.451 259.385 106.705 262.549 108.365 265.03Z" fill="#CCCCCC"/>
<path d="M121.962 296.897L88.8555 299.922L88.8979 300.387L122.004 297.362L121.962 296.897Z" fill="#2F2E41"/>
<path d="M119.633 292.948L88.2285 295.632L88.2683 296.097L119.672 293.413L119.633 292.948Z" fill="#2F2E41"/>
<path d="M117.676 288.879L87.6641 291.799L87.7092 292.263L117.721 289.344L117.676 288.879Z" fill="#2F2E41"/>
<path d="M116.419 284.78L87.6284 287.978L87.68 288.442L116.471 285.244L116.419 284.78Z" fill="#2F2E41"/>
<path d="M114.735 281.173L87.0779 284.301L87.1303 284.765L114.788 281.637L114.735 281.173Z" fill="#2F2E41"/>
<path d="M112.629 278.048L85.6169 280.144L85.653 280.609L112.665 278.513L112.629 278.048Z" fill="#2F2E41"/>
<path d="M110.977 274.892L84.7498 277.237L84.7913 277.702L111.019 275.357L110.977 274.892Z" fill="#2F2E41"/>
<path d="M109.324 271.748L83.9526 274.566L84.0042 275.03L109.376 272.212L109.324 271.748Z" fill="#2F2E41"/>
<path d="M108.147 268.581L83.0623 270.971L83.1065 271.436L108.191 269.045L108.147 268.581Z" fill="#2F2E41"/>
<path d="M106.032 265.504L82.0396 268.122L82.0902 268.586L106.083 265.968L106.032 265.504Z" fill="#2F2E41"/>
<path d="M104.887 262.738L81.0662 264.821L81.1068 265.286L104.928 263.203L104.887 262.738Z" fill="#2F2E41"/>
<path d="M78.5626 255.145L76.1145 223.601C75.9733 221.781 77.3384 220.187 79.1575 220.045L94.4218 218.861C96.2409 218.72 97.8354 220.085 97.9766 221.904L100.425 253.448C100.566 255.267 99.201 256.862 97.3819 257.003L82.1176 258.188C80.2986 258.329 78.7038 256.964 78.5626 255.145Z" fill="#055999"/>
<path d="M46.583 303.997L19.4287 304.373L19.2098 304.375L17.5869 283.464C17.3816 280.819 19.3662 278.5 22.0108 278.295L48.7002 276.224C51.3448 276.018 53.6633 278.003 53.8686 280.648L55.6262 303.295L55.3936 303.313L46.583 303.997Z" fill="#CCCCCC"/>
<path d="M75.9831 197.787L74.1126 173.685C73.9714 171.866 75.3365 170.271 77.1555 170.13L82.1866 169.74C84.0056 169.598 85.6002 170.964 85.7413 172.783L87.6118 196.885C87.753 198.704 86.3881 200.298 84.5691 200.439L79.5381 200.83C77.719 200.971 76.1242 199.606 75.9831 197.787Z" fill="#2F2E41"/>
<path d="M89.2977 303.022L86.3139 282.664L80.6113 263.452L79.0333 258.193C76.5176 256.754 73.4399 258.811 73.8082 261.686L74.0992 263.958L79.8018 283.169L82.7856 303.527" fill="#CCCCCC"/>
<path d="M221.722 301.791L188.509 302.249L175.193 153.771C174.87 150.167 176.034 146.523 178.387 143.774L211.047 105.619C215.618 100.278 223.392 99.3148 229.129 103.38L270.035 132.362C273.372 134.726 291.325 148.144 291.593 152.225L283.062 254.373L301.562 276.272L301.602 276.319L306.335 300.623L221.722 301.791Z" fill="#CCCCCC"/>
<path d="M214.766 140.142L214.231 133.251C214.09 131.432 215.455 129.837 217.274 129.696L226.956 128.945C228.776 128.803 230.37 130.169 230.511 131.988L231.046 138.879C231.187 140.698 229.822 142.293 228.003 142.434L218.321 143.185C216.502 143.327 214.907 141.962 214.766 140.142Z" fill="#055999"/>
<path d="M198.45 195.223L196.472 169.726C196.331 167.907 197.696 166.312 199.515 166.171L213.849 165.058C215.667 164.917 217.262 166.282 217.403 168.101L219.382 193.599C219.523 195.418 218.158 197.012 216.34 197.154L202.006 198.266C200.186 198.407 198.592 197.042 198.45 195.223Z" fill="#2F2E41"/>
<path d="M230.775 222.413C230.11 223.029 229.784 223.9 229.881 224.801L232.518 249.389C232.678 250.875 233.972 251.989 235.464 251.926C236.248 251.897 236.954 251.554 237.47 250.972C237.987 250.39 238.238 249.642 238.178 248.867L236.28 224.415C236.181 223.133 235.229 222.075 233.964 221.841L233.224 221.704C232.974 221.657 232.723 221.644 232.478 221.663C231.849 221.712 231.253 221.97 230.775 222.413Z" fill="#2F2E41"/>
<path d="M191.459 254.88C190.761 254.303 190.337 253.488 190.267 252.585L188.37 228.133C188.254 226.641 189.159 225.253 190.571 224.756L191.281 224.506C192.276 224.158 193.35 224.294 194.226 224.883C195.102 225.472 195.633 226.415 195.684 227.469L196.872 252.17C196.955 253.906 195.667 255.421 193.939 255.617C193.899 255.621 193.859 255.625 193.819 255.628C192.961 255.694 192.127 255.431 191.459 254.88Z" fill="#2F2E41"/>
<path d="M283.505 262.823L295.125 280.184L297.882 300.509L306.052 300.394L301.384 276.423L282.834 254.465C281.591 257.178 281.845 260.343 283.505 262.823Z" fill="#CCCCCC"/>
<path d="M297.102 294.691L263.995 297.716L264.038 298.181L297.144 295.156L297.102 294.691Z" fill="#2F2E41"/>
<path d="M294.772 290.742L263.368 293.426L263.408 293.891L294.812 291.207L294.772 290.742Z" fill="#2F2E41"/>
<path d="M292.816 286.673L262.804 289.593L262.849 290.057L292.861 287.138L292.816 286.673Z" fill="#2F2E41"/>
<path d="M291.559 282.574L262.768 285.772L262.82 286.236L291.611 283.038L291.559 282.574Z" fill="#2F2E41"/>
<path d="M289.875 278.967L262.218 282.095L262.27 282.558L289.928 279.431L289.875 278.967Z" fill="#2F2E41"/>
<path d="M287.769 275.842L260.757 277.938L260.793 278.403L287.805 276.307L287.769 275.842Z" fill="#2F2E41"/>
<path d="M286.117 272.686L259.89 275.031L259.931 275.496L286.159 273.151L286.117 272.686Z" fill="#2F2E41"/>
<path d="M284.464 269.542L259.093 272.36L259.144 272.824L284.516 270.006L284.464 269.542Z" fill="#2F2E41"/>
<path d="M283.286 266.374L258.202 268.765L258.246 269.23L283.331 266.839L283.286 266.374Z" fill="#2F2E41"/>
<path d="M281.172 263.298L257.179 265.916L257.23 266.38L281.223 263.762L281.172 263.298Z" fill="#2F2E41"/>
<path d="M280.027 260.532L256.206 262.615L256.247 263.08L280.068 260.997L280.027 260.532Z" fill="#2F2E41"/>
<path d="M253.702 252.939L251.254 221.395C251.113 219.575 252.478 217.981 254.297 217.839L269.562 216.655C271.381 216.514 272.975 217.879 273.116 219.698L275.565 251.242C275.706 253.061 274.341 254.656 272.522 254.797L257.258 255.982C255.438 256.123 253.844 254.758 253.702 252.939Z" fill="#055999"/>
<path d="M221.722 301.791L194.568 302.167L194.35 302.169L192.727 281.258C192.522 278.613 194.506 276.294 197.151 276.089L223.84 274.018C226.485 273.812 228.803 275.797 229.008 278.442L230.766 301.089L230.534 301.107L221.722 301.791Z" fill="#CCCCCC"/>
<path d="M251.123 195.581L249.252 171.479C249.111 169.66 250.476 168.065 252.295 167.924L257.326 167.533C259.145 167.392 260.74 168.757 260.881 170.576L262.752 194.678C262.893 196.497 261.528 198.092 259.709 198.233L254.678 198.624C252.859 198.765 251.264 197.4 251.123 195.581Z" fill="#2F2E41"/>
<path d="M264.437 300.816L261.454 280.458L255.751 261.246L254.173 255.987C251.657 254.548 248.58 256.605 248.948 259.48L249.239 261.752L254.941 280.963L257.925 301.321" fill="#CCCCCC"/>
<path d="M422.788 298.859L28.6899 303.968L28.702 304.901L422.8 299.792L422.788 298.859Z" fill="#CCCCCC"/>
<path d="M181.262 184.024C189.813 186.066 197.798 183.308 199.096 177.866C200.394 172.424 194.515 166.359 185.961 164.318C182.555 163.456 178.992 163.422 175.57 164.219L139.23 156.028L135.75 173.163L171.944 179.419C174.638 181.676 177.833 183.256 181.262 184.024Z" fill="#FFB8B8"/>
<path d="M141.98 89.5159L135.98 84.5159C135.98 84.5159 123.98 90.5159 121.98 95.5159C119.98 100.516 107.98 148.516 107.98 148.516C107.98 148.516 105.625 174.822 111.802 178.169C117.98 181.516 156.98 179.516 156.98 179.516L159.98 159.516L143.98 153.516L141.98 89.5159Z" fill="#055999"/>
</svg>
