<svg width="129" height="52" viewBox="0 0 129 52" fill="none" xmlns="http://www.w3.org/2000/svg">
<path d="M63.8403 32.5L61.2123 27.73H60.4743V32.5H57.3963V19.864H62.5623C63.5583 19.864 64.4043 20.038 65.1003 20.386C65.8083 20.734 66.3363 21.214 66.6843 21.826C67.0323 22.426 67.2063 23.098 67.2063 23.842C67.2063 24.682 66.9663 25.432 66.4863 26.092C66.0183 26.752 65.3223 27.22 64.3983 27.496L67.3143 32.5H63.8403ZM60.4743 25.552H62.3823C62.9463 25.552 63.3663 25.414 63.6423 25.138C63.9303 24.862 64.0743 24.472 64.0743 23.968C64.0743 23.488 63.9303 23.11 63.6423 22.834C63.3663 22.558 62.9463 22.42 62.3823 22.42H60.4743V25.552ZM78.6065 27.316C78.6065 27.604 78.5885 27.904 78.5525 28.216H71.5865C71.6345 28.84 71.8325 29.32 72.1805 29.656C72.5405 29.98 72.9785 30.142 73.4945 30.142C74.2625 30.142 74.7965 29.818 75.0965 29.17H78.3725C78.2045 29.83 77.8985 30.424 77.4545 30.952C77.0225 31.48 76.4765 31.894 75.8165 32.194C75.1565 32.494 74.4185 32.644 73.6025 32.644C72.6185 32.644 71.7425 32.434 70.9745 32.014C70.2065 31.594 69.6065 30.994 69.1745 30.214C68.7425 29.434 68.5265 28.522 68.5265 27.478C68.5265 26.434 68.7365 25.522 69.1565 24.742C69.5885 23.962 70.1885 23.362 70.9565 22.942C71.7245 22.522 72.6065 22.312 73.6025 22.312C74.5745 22.312 75.4385 22.516 76.1945 22.924C76.9505 23.332 77.5385 23.914 77.9585 24.67C78.3905 25.426 78.6065 26.308 78.6065 27.316ZM75.4565 26.506C75.4565 25.978 75.2765 25.558 74.9165 25.246C74.5565 24.934 74.1065 24.778 73.5665 24.778C73.0505 24.778 72.6125 24.928 72.2525 25.228C71.9045 25.528 71.6885 25.954 71.6045 26.506H75.4565ZM86.3503 22.348C87.5263 22.348 88.4623 22.732 89.1583 23.5C89.8663 24.256 90.2203 25.3 90.2203 26.632V32.5H87.1603V27.046C87.1603 26.374 86.9863 25.852 86.6383 25.48C86.2903 25.108 85.8223 24.922 85.2343 24.922C84.6463 24.922 84.1783 25.108 83.8303 25.48C83.4823 25.852 83.3083 26.374 83.3083 27.046V32.5H80.2303V22.456H83.3083V23.788C83.6203 23.344 84.0403 22.996 84.5683 22.744C85.0963 22.48 85.6903 22.348 86.3503 22.348ZM97.9572 29.89V32.5H96.3912C95.2752 32.5 94.4052 32.23 93.7812 31.69C93.1572 31.138 92.8452 30.244 92.8452 29.008V25.012H91.6212V22.456H92.8452V20.008H95.9232V22.456H97.9392V25.012H95.9232V29.044C95.9232 29.344 95.9952 29.56 96.1392 29.692C96.2832 29.824 96.5232 29.89 96.8592 29.89H97.9572ZM109.14 27.316C109.14 27.604 109.122 27.904 109.086 28.216H102.12C102.168 28.84 102.366 29.32 102.714 29.656C103.074 29.98 103.512 30.142 104.028 30.142C104.796 30.142 105.33 29.818 105.63 29.17H108.906C108.738 29.83 108.432 30.424 107.988 30.952C107.556 31.48 107.01 31.894 106.35 32.194C105.69 32.494 104.952 32.644 104.136 32.644C103.152 32.644 102.276 32.434 101.508 32.014C100.74 31.594 100.14 30.994 99.7077 30.214C99.2757 29.434 99.0597 28.522 99.0597 27.478C99.0597 26.434 99.2697 25.522 99.6897 24.742C100.122 23.962 100.722 23.362 101.49 22.942C102.258 22.522 103.14 22.312 104.136 22.312C105.108 22.312 105.972 22.516 106.728 22.924C107.484 23.332 108.072 23.914 108.492 24.67C108.924 25.426 109.14 26.308 109.14 27.316ZM105.99 26.506C105.99 25.978 105.81 25.558 105.45 25.246C105.09 24.934 104.64 24.778 104.1 24.778C103.584 24.778 103.146 24.928 102.786 25.228C102.438 25.528 102.222 25.954 102.138 26.506H105.99ZM113.841 24.13C114.201 23.578 114.651 23.146 115.191 22.834C115.731 22.51 116.331 22.348 116.991 22.348V25.606H116.145C115.377 25.606 114.801 25.774 114.417 26.11C114.033 26.434 113.841 27.01 113.841 27.838V32.5H110.763V22.456H113.841V24.13ZM128.723 22.456L122.423 37.27H119.111L121.415 32.158L117.329 22.456H120.767L123.089 28.738L125.393 22.456H128.723Z" fill="#E8E8E8"/>
<g clip-path="url(#clip0_259_41)">
<path d="M16.9942 44.6577L12.9885 51.5001H21L16.9942 44.6577Z" fill="#FF9900"/>
<path d="M39.7595 8.03414C39.3982 7.47449 38.9931 6.94358 38.5478 6.44625C37.1377 4.86871 35.2879 3.56352 32.9983 2.5307C29.9865 1.17729 26.2971 0.50039 21.9302 0.5H0V51.5H7.32253L17.116 36.0861L26.9101 51.5H34.2326L21.4853 31.4402L28.234 31.0114C32.8227 30.1055 36.2642 28.2728 38.5585 25.5133C40.8528 22.7537 42 19.5637 42 15.9431C42 12.9825 41.2532 10.3462 39.7595 8.03414ZM31.1344 23.2875C29.0919 25.1228 26.0231 26.0404 21.9278 26.0404H16.1835L12.6885 31.5386L6.54502 41.203V6.44625H25.7845C28.0463 6.82658 29.8439 7.58158 31.1772 8.71124C33.1923 10.4204 34.2021 12.831 34.2065 15.9431C34.2061 19.0065 33.182 21.4546 31.1344 23.2875Z" fill="#E8E8E8"/>
</g>
<defs>
<clipPath id="clip0_259_41">
<rect width="42" height="51" fill="white" transform="translate(0 0.5)"/>
</clipPath>
</defs>
</svg>
