<svg width="579" height="466" viewBox="0 0 579 466" fill="none" xmlns="http://www.w3.org/2000/svg">
<path d="M561.075 323.689C560.387 322.928 559.874 322.026 559.572 321.045C559.27 320.064 559.187 319.029 559.328 318.012C559.469 316.996 559.831 316.023 560.389 315.162C560.947 314.3 561.687 313.572 562.556 313.028L556.994 288.71L569.127 293.252L572.549 315.648C573.366 317.17 573.597 318.94 573.197 320.621C572.798 322.301 571.796 323.777 570.381 324.769C568.967 325.76 567.238 326.197 565.523 325.998C563.808 325.799 562.225 324.978 561.075 323.689Z" fill="#FFB8B8"/>
<path d="M560.235 304.389L549.569 283.754L551.011 231.792L551.697 233.238C552.495 234.921 571.211 274.567 569.876 287.84L572.015 299.969L560.235 304.389Z" fill="#2F2E41"/>
<path d="M553.281 456.892H561.834L565.903 423.881L553.279 423.881L553.281 456.892Z" fill="#FFB8B8"/>
<path d="M551.099 454.098L567.943 454.098H567.944C570.791 454.098 573.521 455.229 575.534 457.244C577.547 459.258 578.678 461.99 578.678 464.839V465.188L551.099 465.189L551.099 454.098Z" fill="#2F2E41"/>
<path d="M468.772 450.388L477.013 452.681L489.772 421.967L477.609 418.583L468.772 450.388Z" fill="#FFB8B8"/>
<path d="M467.418 447.111L483.647 451.627L483.648 451.627C486.39 452.39 488.718 454.212 490.118 456.693C491.518 459.173 491.876 462.108 491.113 464.853L491.02 465.189L464.449 457.796L467.418 447.111Z" fill="#2F2E41"/>
<path d="M544.753 444.023L527.492 320.35L490.209 443.324L460.895 433.307L502.91 268.642L503.186 268.622L547.2 265.559L579 434.028L544.753 444.023Z" fill="#2F2E41"/>
<path d="M540.188 210.365C540.188 210.365 524.142 201.988 502.515 205.478C502.515 205.478 491.004 233.267 502.515 244.33L505.655 272.147C505.655 272.147 534.956 289.599 544.723 269.354L543.327 246.317C543.327 246.317 550.304 235.268 544.723 227.18C541.377 222.239 539.781 216.319 540.188 210.365Z" fill="#055999"/>
<path d="M542.221 336.89L545.037 278.411L537.067 208.845L537.433 208.789C547.888 207.212 551.242 225.236 551.379 226.004L569.578 328.966L542.221 336.89Z" fill="#2F2E41"/>
<path d="M506.739 337.499L474.567 333.922L474.575 333.57C474.689 328.804 477.458 216.745 485.218 208.809C493.023 200.825 507.751 204.28 508.375 204.431L508.685 204.506L506.038 251.923L506.739 337.499Z" fill="#2F2E41"/>
<path d="M512.665 270.524C511.69 270.844 510.658 270.946 509.639 270.824C508.621 270.701 507.642 270.357 506.771 269.814C505.901 269.272 505.159 268.546 504.599 267.686C504.04 266.826 503.675 265.854 503.531 264.837L479.066 260.041L488.145 250.793L509.985 256.765C511.707 256.637 513.417 257.145 514.789 258.194C516.162 259.242 517.102 260.758 517.432 262.454C517.763 264.15 517.46 265.908 516.581 267.395C515.702 268.883 514.309 269.996 512.665 270.524Z" fill="#FFB8B8"/>
<path d="M499.61 264.911L491.638 263.196C479.87 266.737 459.328 254.269 451.026 248.731C449.463 247.689 448.957 245.624 449.52 242.595C450.35 238.358 452.684 234.565 456.091 231.915L485.331 208.715L492.711 207.48L494.903 219.911L476.273 239.934L503.697 254.87L499.61 264.911Z" fill="#2F2E41"/>
<path d="M496.457 194.955V178.836C496.457 172.017 499.164 165.476 503.983 160.654C508.802 155.832 515.338 153.123 522.153 153.123C528.968 153.123 535.504 155.832 540.323 160.654C545.142 165.476 547.849 172.017 547.849 178.836V194.955C547.848 195.87 547.484 196.748 546.837 197.396C546.19 198.043 545.313 198.408 544.398 198.409H499.909C498.993 198.408 498.116 198.043 497.469 197.396C496.822 196.748 496.458 195.87 496.457 194.955Z" fill="#2F2E41"/>
<path d="M521.12 198.25C531.525 198.25 539.96 189.81 539.96 179.398C539.96 168.987 531.525 160.546 521.12 160.546C510.716 160.546 502.281 168.987 502.281 179.398C502.281 189.81 510.716 198.25 521.12 198.25Z" fill="#FFB8B8"/>
<path d="M501.764 179.326C501.584 179.118 501.451 178.874 501.373 178.61C501.296 178.346 501.276 178.068 501.315 177.796L503.547 162.245C503.591 161.929 503.713 161.629 503.903 161.371C504.092 161.114 504.343 160.908 504.632 160.772C516.023 155.438 527.574 155.431 538.965 160.752C539.267 160.896 539.527 161.115 539.719 161.389C539.911 161.663 540.029 161.982 540.061 162.315L541.551 177.886C541.576 178.152 541.546 178.421 541.461 178.674C541.377 178.928 541.241 179.161 541.061 179.359C540.881 179.557 540.662 179.715 540.418 179.824C540.173 179.932 539.909 179.988 539.642 179.987H535.863C535.499 179.987 535.142 179.882 534.834 179.686C534.526 179.49 534.281 179.211 534.126 178.88L532.495 175.384C532.39 175.158 532.213 174.972 531.993 174.855C531.773 174.737 531.52 174.695 531.274 174.734C531.027 174.773 530.8 174.891 530.626 175.07C530.452 175.25 530.342 175.481 530.311 175.728L529.989 178.306C529.93 178.77 529.705 179.197 529.355 179.506C529.004 179.816 528.553 179.987 528.086 179.987H503.213C502.938 179.988 502.667 179.928 502.417 179.814C502.166 179.7 501.944 179.533 501.764 179.326Z" fill="#2F2E41"/>
<path d="M422.646 31.7942H0V295.152H422.646V31.7942Z" fill="#CCCCCC"/>
<path d="M105.75 82.5295H28.3418V132.877H105.75V82.5295Z" fill="#E8E8E8"/>
<path d="M201.934 82.5295H124.527V132.877H201.934V82.5295Z" fill="#E8E8E8"/>
<path d="M298.119 82.5295H220.712V132.877H298.119V82.5295Z" fill="#E8E8E8"/>
<path d="M394.304 82.5295H316.897V132.877H394.304V82.5295Z" fill="#E8E8E8"/>
<path d="M105.75 153.791H28.3418V204.139H105.75V153.791Z" fill="#E8E8E8"/>
<path d="M201.934 153.791H124.527V204.139H201.934V153.791Z" fill="#E8E8E8"/>
<path d="M298.119 153.791H220.712V204.139H298.119V153.791Z" fill="#E8E8E8"/>
<path d="M394.304 153.791H316.897V204.139H394.304V153.791Z" fill="#E8E8E8"/>
<path d="M105.75 225.053H28.3418V275.401H105.75V225.053Z" fill="#E8E8E8"/>
<path d="M201.934 225.053H124.527V275.401H201.934V225.053Z" fill="#E8E8E8"/>
<path d="M298.119 225.053H220.712V275.401H298.119V225.053Z" fill="#E8E8E8"/>
<path d="M394.304 225.053H316.897V275.401H394.304V225.053Z" fill="#E8E8E8"/>
<path d="M110.693 62.7775C117.106 62.7775 122.304 57.5756 122.304 51.1588C122.304 44.7419 117.106 39.54 110.693 39.54C104.28 39.54 99.0818 44.7419 99.0818 51.1588C99.0818 57.5756 104.28 62.7775 110.693 62.7775Z" fill="#E8E8E8"/>
<path d="M302.664 62.7775C309.077 62.7775 314.275 57.5756 314.275 51.1588C314.275 44.7419 309.077 39.54 302.664 39.54C296.252 39.54 291.053 44.7419 291.053 51.1588C291.053 57.5756 296.252 62.7775 302.664 62.7775Z" fill="#E8E8E8"/>
<path d="M115.338 0.810913H106.049V54.2571H115.338V0.810913Z" fill="#CCCCCC"/>
<path d="M307.309 0.810913H298.02V54.2571H307.309V0.810913Z" fill="#CCCCCC"/>
<path d="M373.105 107.703C373.101 111.91 371.581 115.974 368.822 119.148C366.064 122.322 362.254 124.394 358.091 124.982C353.929 125.57 349.694 124.636 346.165 122.35C342.636 120.065 340.05 116.582 338.882 112.541C337.714 108.501 338.042 104.174 339.806 100.356C341.571 96.5378 344.653 93.4852 348.486 91.7588C352.319 90.0325 356.646 89.7483 360.672 90.9586C364.698 92.1688 368.152 94.7922 370.4 98.3467C372.17 101.146 373.108 104.391 373.105 107.703Z" fill="#055999"/>
<path d="M370.4 98.3467L353.169 115.586C352.086 113.908 346.052 106.111 346.052 106.111C346.826 105.329 347.651 104.6 348.522 103.93L353.525 110.605L368.382 95.7384C369.136 96.5421 369.811 97.4154 370.4 98.3467Z" fill="#E8E8E8"/>
<path d="M180.735 178.965C180.731 183.171 179.21 187.235 176.452 190.409C173.694 193.584 169.884 195.655 165.721 196.244C161.559 196.832 157.324 195.898 153.795 193.612C150.266 191.327 147.68 187.843 146.512 183.803C145.344 179.762 145.672 175.435 147.436 171.617C149.2 167.799 152.282 164.747 156.116 163.02C159.949 161.294 164.276 161.01 168.302 162.22C172.328 163.43 175.782 166.054 178.03 169.608C179.8 172.407 180.738 175.653 180.735 178.965Z" fill="#055999"/>
<path d="M178.03 169.608L160.799 186.847C159.716 185.17 153.683 177.373 153.683 177.373C154.456 176.591 155.281 175.862 156.152 175.191L161.156 181.866L176.012 167C176.766 167.804 177.441 168.677 178.03 169.608Z" fill="#E8E8E8"/>
<path d="M84.5503 178.965C84.5463 183.171 83.0255 187.235 80.2673 190.409C77.509 193.584 73.6987 195.655 69.5364 196.244C65.374 196.832 61.1393 195.898 57.6103 193.612C54.0813 191.327 51.4951 187.843 50.3268 183.803C49.1586 179.762 49.4868 175.435 51.2511 171.617C53.0154 167.799 56.0974 164.747 59.9307 163.02C63.764 161.294 68.0911 161.01 72.117 162.22C76.1429 163.43 79.5972 166.054 81.845 169.608C83.6152 172.407 84.5535 175.652 84.5503 178.965Z" fill="#055999"/>
<path d="M81.8452 169.608L64.6143 186.847C63.5313 185.17 57.4978 177.373 57.4978 177.373C58.271 176.591 59.0962 175.862 59.9676 175.191L64.9707 181.866L79.8275 167C80.5809 167.804 81.2565 168.677 81.8452 169.608Z" fill="#E8E8E8"/>
</svg>
