<svg width="125" height="51" viewBox="0 0 125 51" fill="none" xmlns="http://www.w3.org/2000/svg">
<g clip-path="url(#clip0_205_94)">
<path d="M16.9942 44.1576L12.9885 51H21L16.9942 44.1576Z" fill="#4A4A4A"/>
<path d="M39.7595 7.53414C39.3982 6.97449 38.9931 6.44358 38.5478 5.94625C37.1377 4.36871 35.2879 3.06352 32.9983 2.0307C29.9865 0.67729 26.2971 0.000390481 21.9302 0H0V51H7.32253L17.116 35.5861L26.9101 51H34.2326L21.4853 30.9402L28.234 30.5114C32.8227 29.6055 36.2642 27.7728 38.5585 25.0133C40.8528 22.2537 42 19.0637 42 15.4431C42 12.4825 41.2532 9.84619 39.7595 7.53414ZM31.1344 22.7875C29.0919 24.6228 26.0231 25.5404 21.9278 25.5404H16.1835L12.6885 31.0386L6.54502 40.703V5.94625H25.7845C28.0463 6.32658 29.8439 7.08158 31.1772 8.21124C33.1923 9.92038 34.2021 12.331 34.2065 15.4431C34.2061 18.5065 33.182 20.9546 31.1344 22.7875Z" fill="#055999"/>
</g>
<path d="M59.8403 32L57.2123 27.23H56.4743V32H53.3963V19.364H58.5623C59.5583 19.364 60.4043 19.538 61.1003 19.886C61.8083 20.234 62.3363 20.714 62.6843 21.326C63.0323 21.926 63.2063 22.598 63.2063 23.342C63.2063 24.182 62.9663 24.932 62.4863 25.592C62.0183 26.252 61.3223 26.72 60.3983 26.996L63.3143 32H59.8403ZM56.4743 25.052H58.3823C58.9463 25.052 59.3663 24.914 59.6423 24.638C59.9303 24.362 60.0743 23.972 60.0743 23.468C60.0743 22.988 59.9303 22.61 59.6423 22.334C59.3663 22.058 58.9463 21.92 58.3823 21.92H56.4743V25.052ZM74.6065 26.816C74.6065 27.104 74.5885 27.404 74.5525 27.716H67.5865C67.6345 28.34 67.8325 28.82 68.1805 29.156C68.5405 29.48 68.9785 29.642 69.4945 29.642C70.2625 29.642 70.7965 29.318 71.0965 28.67H74.3725C74.2045 29.33 73.8985 29.924 73.4545 30.452C73.0225 30.98 72.4765 31.394 71.8165 31.694C71.1565 31.994 70.4185 32.144 69.6025 32.144C68.6185 32.144 67.7425 31.934 66.9745 31.514C66.2065 31.094 65.6065 30.494 65.1745 29.714C64.7425 28.934 64.5265 28.022 64.5265 26.978C64.5265 25.934 64.7365 25.022 65.1565 24.242C65.5885 23.462 66.1885 22.862 66.9565 22.442C67.7245 22.022 68.6065 21.812 69.6025 21.812C70.5745 21.812 71.4385 22.016 72.1945 22.424C72.9505 22.832 73.5385 23.414 73.9585 24.17C74.3905 24.926 74.6065 25.808 74.6065 26.816ZM71.4565 26.006C71.4565 25.478 71.2765 25.058 70.9165 24.746C70.5565 24.434 70.1065 24.278 69.5665 24.278C69.0505 24.278 68.6125 24.428 68.2525 24.728C67.9045 25.028 67.6885 25.454 67.6045 26.006H71.4565ZM82.3503 21.848C83.5263 21.848 84.4623 22.232 85.1583 23C85.8663 23.756 86.2203 24.8 86.2203 26.132V32H83.1603V26.546C83.1603 25.874 82.9863 25.352 82.6383 24.98C82.2903 24.608 81.8223 24.422 81.2343 24.422C80.6463 24.422 80.1783 24.608 79.8303 24.98C79.4823 25.352 79.3083 25.874 79.3083 26.546V32H76.2303V21.956H79.3083V23.288C79.6203 22.844 80.0403 22.496 80.5683 22.244C81.0963 21.98 81.6903 21.848 82.3503 21.848ZM93.9572 29.39V32H92.3912C91.2752 32 90.4052 31.73 89.7812 31.19C89.1572 30.638 88.8452 29.744 88.8452 28.508V24.512H87.6212V21.956H88.8452V19.508H91.9232V21.956H93.9392V24.512H91.9232V28.544C91.9232 28.844 91.9952 29.06 92.1392 29.192C92.2832 29.324 92.5232 29.39 92.8592 29.39H93.9572ZM105.14 26.816C105.14 27.104 105.122 27.404 105.086 27.716H98.1197C98.1677 28.34 98.3657 28.82 98.7137 29.156C99.0737 29.48 99.5117 29.642 100.028 29.642C100.796 29.642 101.33 29.318 101.63 28.67H104.906C104.738 29.33 104.432 29.924 103.988 30.452C103.556 30.98 103.01 31.394 102.35 31.694C101.69 31.994 100.952 32.144 100.136 32.144C99.1517 32.144 98.2757 31.934 97.5077 31.514C96.7397 31.094 96.1397 30.494 95.7077 29.714C95.2757 28.934 95.0597 28.022 95.0597 26.978C95.0597 25.934 95.2697 25.022 95.6897 24.242C96.1217 23.462 96.7217 22.862 97.4897 22.442C98.2577 22.022 99.1397 21.812 100.136 21.812C101.108 21.812 101.972 22.016 102.728 22.424C103.484 22.832 104.072 23.414 104.492 24.17C104.924 24.926 105.14 25.808 105.14 26.816ZM101.99 26.006C101.99 25.478 101.81 25.058 101.45 24.746C101.09 24.434 100.64 24.278 100.1 24.278C99.5837 24.278 99.1457 24.428 98.7857 24.728C98.4377 25.028 98.2217 25.454 98.1377 26.006H101.99ZM109.841 23.63C110.201 23.078 110.651 22.646 111.191 22.334C111.731 22.01 112.331 21.848 112.991 21.848V25.106H112.145C111.377 25.106 110.801 25.274 110.417 25.61C110.033 25.934 109.841 26.51 109.841 27.338V32H106.763V21.956H109.841V23.63ZM124.723 21.956L118.423 36.77H115.111L117.415 31.658L113.329 21.956H116.767L119.089 28.238L121.393 21.956H124.723Z" fill="#055999"/>
<defs>
<clipPath id="clip0_205_94">
<rect width="42" height="51" fill="white"/>
</clipPath>
</defs>
</svg>
