<svg width="425" height="525" viewBox="0 0 425 525" fill="none" xmlns="http://www.w3.org/2000/svg">
<path d="M404.99 276.244C408.456 277.221 412.161 276.893 415.401 275.321C418.642 273.75 421.194 271.044 422.573 267.716C423.952 264.389 424.063 260.671 422.884 257.267C421.705 253.864 419.319 251.011 416.178 249.249L385.088 213.697L358.654 219.302L395.661 255.835C394.741 257.766 394.255 259.876 394.237 262.015C394.22 264.154 394.672 266.272 395.561 268.217C396.451 270.163 397.756 271.89 399.385 273.277C401.014 274.664 402.927 275.676 404.99 276.244Z" fill="#FFB8B8"/>
<path d="M302.743 149.001L380.195 247.008L403.961 236.206L313.032 93.4155L302.743 149.001Z" fill="#2F2E41"/>
<path d="M117.87 523.463C122.584 523.482 126.421 519.674 126.439 514.959C126.457 510.244 122.65 506.407 117.936 506.389C113.222 506.371 109.385 510.178 109.367 514.893C109.349 519.608 113.156 523.445 117.87 523.463Z" fill="#2F2E41"/>
<path d="M124.776 343.039C124.776 343.039 145.189 281.802 146.758 277.54C148.327 273.277 164.596 280.325 168.86 281.506C173.124 282.686 171.943 286.951 171.943 286.951L149.971 349.733L156.556 352.863L176.977 289.687C188.664 277.702 180.131 276.892 180.131 276.892C180.131 276.892 155.33 268.259 146.021 267.447C136.711 266.635 140.16 277.902 140.16 277.902L117.424 337.577L124.776 343.039Z" fill="#2F2E41"/>
<path d="M173.221 357.972L173.217 357.968C170.37 353.851 166.316 350.718 161.615 349.002C161.448 348.939 161.254 348.868 161.033 348.79C150.358 345.011 75.9558 324.61 75.9558 324.61C75.9558 324.61 61.2323 319.121 54.579 333.842C47.9257 348.562 8.26379 470.651 8.26379 470.651C8.26379 470.651 84.7542 511.942 107.083 516.491C108.461 516.829 109.884 516.947 111.299 516.841C115.1 516.329 118.842 515.451 122.473 514.218C126.489 512.927 130.311 511.097 133.836 508.779L177.796 378.945C177.796 378.945 184.06 364.611 173.221 357.972Z" fill="#055999"/>
<path d="M173.221 357.972L173.217 357.968C170.37 353.851 166.316 350.719 161.615 349.002C161.448 348.939 161.254 348.868 161.033 348.79C164.525 354.966 165.823 364.541 165.823 364.541C165.823 364.541 122.651 491.273 118.724 503.288C115.732 512.446 109.756 515.539 107.083 516.491C108.461 516.829 109.884 516.947 111.299 516.841C115.1 516.329 118.842 515.451 122.473 514.218C123.538 513.006 124.483 511.694 125.294 510.298C125.294 510.298 169.254 380.465 173.158 374.271C177.062 368.077 173.221 357.972 173.221 357.972Z" fill="#2F2E41"/>
<path d="M91.6781 523.556C96.3925 523.574 100.229 519.767 100.247 515.052C100.266 510.337 96.4585 506.5 91.7441 506.482C87.0296 506.464 83.1931 510.271 83.1749 514.986C83.1566 519.701 86.9637 523.538 91.6781 523.556Z" fill="#2F2E41"/>
<path d="M8.97517 487.34C13.6896 487.359 17.5262 483.551 17.5444 478.836C17.5626 474.121 13.7556 470.284 9.04113 470.266C4.32671 470.248 0.490147 474.055 0.471933 478.77C0.453718 483.485 4.26075 487.322 8.97517 487.34Z" fill="#2F2E41"/>
<path d="M160.235 282.789C156.797 283.863 153.085 283.638 149.801 282.158C146.518 280.677 143.892 278.044 142.421 274.756C140.949 271.468 140.735 267.755 141.818 264.32C142.901 260.885 145.207 257.966 148.298 256.117L178.384 219.712L204.964 224.577L168.99 262.128C169.964 264.033 170.509 266.128 170.586 268.266C170.663 270.404 170.27 272.533 169.435 274.503C168.601 276.473 167.344 278.236 165.754 279.667C164.165 281.099 162.281 282.165 160.235 282.789Z" fill="#FFB8B8"/>
<path d="M363.705 444.273L382.255 444.054L379.779 507.275L363.464 507.212L363.705 444.273Z" fill="#FFB8B8"/>
<path d="M359.323 501.868L391.454 501.991L391.456 501.991C396.886 502.012 402.086 504.19 405.911 508.045C409.736 511.9 411.874 517.117 411.853 522.549L411.851 523.214L359.242 523.013L359.323 501.868Z" fill="#2F2E41"/>
<path d="M240.957 427.029L261.169 440.118L220.449 488.729L206.753 479.861L240.957 427.029Z" fill="#FFB8B8"/>
<path d="M206.155 473.126L233.127 490.591L233.128 490.592C237.686 493.544 240.885 498.187 242.021 503.498C243.158 508.809 242.138 514.354 239.186 518.913L238.825 519.471L194.665 490.875L206.155 473.126Z" fill="#2F2E41"/>
<path d="M234.483 233.928C234.483 233.928 280.083 84.5526 294.559 82.5875C309.035 80.6225 332.191 121.106 332.191 121.106C362.268 159.791 392.952 284.844 392.952 284.844C392.952 284.844 340.983 287.895 302.925 307.957C264.866 328.02 220.126 306.615 220.126 306.615L234.483 233.928Z" fill="#2F2E41"/>
<path opacity="0.1" d="M234.483 233.928C234.483 233.928 280.083 84.5526 294.559 82.5875C309.035 80.6225 326.269 121.493 326.269 121.493C341.089 183.81 392.952 284.844 392.952 284.844C392.952 284.844 340.983 287.895 302.925 307.957C264.866 328.02 220.126 306.615 220.126 306.615L234.483 233.928Z" fill="#4A4A4A"/>
<path d="M271.593 189.326L271.303 264.474L262.039 373.296L217.543 455.468L238.57 470.612L299.116 392.519L323.244 314.839L359.999 487.148L388.12 485.248L369.517 246.469L332.726 179.137L271.593 189.326Z" fill="#2F2E41"/>
<path d="M317.266 116.817C331.268 130.93 318.158 145.942 318.158 145.942L334.083 182.154L270.762 198.98L249.038 100.107L264.161 84.0981C294.286 83.2103 294.305 82.586 294.305 82.586C299.562 87.7717 317.266 116.817 317.266 116.817Z" fill="#E8E8E8"/>
<path d="M246.18 90.1186C240.936 93.9447 237.246 99.5328 235.788 105.859C234.329 112.185 235.199 118.824 238.238 124.561C245.431 138.424 253.144 159.886 249.033 183.398C241.595 225.949 218.154 258.209 205.126 268.548C200.59 272.147 200.412 277.413 201.061 281.197C202.874 291.769 213.07 303.797 220.145 306.228C220.621 306.388 221.12 306.468 221.623 306.466C233.131 306.514 261.581 269.966 294.388 198.485C314.82 153.967 300.254 118.153 284.438 95.9468C282.362 93.0413 279.729 90.5767 276.694 88.6957C273.658 86.8148 270.28 85.5548 266.754 84.989C263.229 84.4231 259.626 84.5624 256.154 85.399C252.682 86.2355 249.411 87.7527 246.53 89.8625L246.18 90.1186Z" fill="#2F2E41"/>
<path d="M276.019 133.349L184.203 252.873L160.145 242.738L247.056 97.4666L276.019 133.349Z" fill="#2F2E41"/>
<path d="M303.364 69.6059L240.531 69.3632C239.238 69.3567 238.001 68.8378 237.091 67.9203C236.18 67.0027 235.671 65.7614 235.675 64.4688L235.779 37.3824C235.795 32.6144 236.75 27.8962 238.59 23.4974C240.43 19.0987 243.118 15.1055 246.501 11.7461C249.884 8.38676 253.896 5.72698 258.308 3.91877C262.719 2.11056 267.443 1.18935 272.211 1.20777C276.978 1.22618 281.696 2.18387 286.093 4.02611C290.49 5.86835 294.481 8.55905 297.839 11.9445C301.196 15.3299 303.853 19.3437 305.659 23.7565C307.464 28.1694 308.383 32.8948 308.362 37.6628L308.257 64.7492C308.251 66.0418 307.732 67.2791 306.815 68.1896C305.897 69.1001 304.656 69.6095 303.364 69.6059Z" fill="#2F2E41"/>
<path d="M302.808 55.1263C309.907 42.2577 305.23 26.0705 292.363 18.9712C279.496 11.8719 263.311 16.5489 256.212 29.4174C249.114 42.286 253.79 58.4732 266.657 65.5725C279.524 72.6718 295.71 67.9949 302.808 55.1263Z" fill="#FFB8B8"/>
<path d="M316.938 40.4048L278.517 40.2564L278.144 34.7381L276.153 40.2472L270.237 40.2244L269.498 29.2873L265.551 40.2063L254.104 40.1621L254.106 39.6203C254.144 32.0082 257.2 24.7219 262.603 19.3601C268.005 13.9982 275.314 10.9986 282.925 11.0194L288.342 11.0404C295.954 11.0784 303.239 14.1343 308.6 19.5377C313.961 24.9412 316.961 32.2508 316.94 39.8631L316.938 40.4048Z" fill="#2F2E41"/>
<path d="M278.07 74.5649C277.78 74.5635 277.492 74.5369 277.207 74.4854L249.093 69.4122L249.272 22.91L280.242 23.0297L279.472 23.9208C268.756 36.3225 276.715 56.5298 282.413 67.4713C282.833 68.2727 283.018 69.1764 282.947 70.0784C282.876 70.9804 282.552 71.844 282.012 72.5698C281.559 73.1904 280.966 73.6948 280.281 74.0417C279.595 74.3885 278.838 74.5678 278.07 74.5649Z" fill="#2F2E41"/>
</svg>
