<svg width="56" height="57" viewBox="0 0 56 57" fill="none" xmlns="http://www.w3.org/2000/svg">
<path fill-rule="evenodd" clip-rule="evenodd" d="M41.5679 34.3145C42.9095 34.3145 44.001 33.2229 44.001 31.8817C44.001 30.5407 42.9094 29.449 41.5679 29.449C40.2268 29.449 39.1352 30.5406 39.1352 31.8817C39.1352 33.2228 40.2267 34.3145 41.5679 34.3145ZM53.0389 37.186H39.2435L34.5136 31.8819L39.2435 26.5777H53.0389V37.186ZM54.5193 23.6184H53.5323V11.5297C53.5323 10.7137 52.8683 10.0493 52.0524 10.0493H49.2152V4.74556C49.2152 3.9296 48.5511 3.26558 47.7352 3.26558H40.8382C40.2414 3.26558 39.7066 3.62148 39.4749 4.17095C39.2817 4.62971 39.3303 5.14967 39.6046 5.56415C39.8798 5.97821 40.3412 6.2256 40.8382 6.2256H46.2552V10.0493H37.9798C37.3834 10.0493 36.8482 10.4052 36.6161 10.9547C36.4234 11.413 36.472 11.9334 36.7472 12.3479C37.0219 12.7624 37.4833 13.0098 37.9799 13.0098H50.5719V23.6182H38.5798C38.1575 23.6182 37.7539 23.7983 37.4748 24.1134L31.4232 30.8967C30.9233 31.4579 30.9224 32.3056 31.4232 32.8672L37.4748 39.6514C37.7561 39.9661 38.1593 40.1462 38.5798 40.1462H50.5719V50.7546H20.8312C20.2349 50.7546 19.6989 51.1096 19.4667 51.6591C19.274 52.1174 19.3226 52.6387 19.5977 53.0532C19.8734 53.4677 20.3338 53.7142 20.8313 53.7142H52.0531C52.869 53.7142 53.5331 53.0506 53.5331 52.2342V40.1466H54.52C55.336 40.1466 56 39.483 56 38.6662V25.0986C56 24.2826 55.3359 23.6191 54.52 23.6191L54.5193 23.6184ZM37.2762 0.617621C37.0931 0.539931 36.8999 0.5 36.702 0.5C36.1048 0.5 35.5692 0.855895 35.337 1.40668L13.0007 54.4237C12.847 54.7883 12.8444 55.1906 12.9937 55.5569C13.143 55.9232 13.4256 56.2093 13.7897 56.3629C13.9724 56.4402 14.166 56.4788 14.3639 56.4788C14.9611 56.4788 15.4971 56.1238 15.7289 55.5734L38.0653 2.55527C38.383 1.80312 38.0288 0.933738 37.2766 0.617409L37.2762 0.617621ZM10.2277 50.7547H7.64784C5.06365 50.7547 2.96079 48.6514 2.96079 46.0669V12.6307C3.54021 12.8772 4.19511 13.01 4.84354 13.01H27.3766C27.9742 13.01 28.5098 12.6541 28.7411 12.1047C28.9338 11.6463 28.8852 11.1259 28.61 10.7114C28.3353 10.297 27.8744 10.0496 27.3765 10.0496H4.83902C3.80301 10.0496 2.9606 9.2067 2.9606 8.17159V8.10866C2.9606 7.07092 3.80521 6.22591 4.84336 6.22591H30.2352C30.832 6.22591 31.3672 5.87001 31.5993 5.32054C31.7925 4.86265 31.7434 4.34182 31.4687 3.92734C31.1935 3.51285 30.7326 3.26589 30.2351 3.26589H4.84327C2.1693 3.26589 0 5.43475 0 8.10049V46.0666C0 50.2836 3.43095 53.7141 7.64745 53.7141H10.2273C10.8241 53.7141 11.3596 53.3586 11.591 52.8087C11.7837 52.3504 11.7351 51.83 11.4599 51.4155C11.1856 51.001 10.7242 50.7545 10.2272 50.7545L10.2277 50.7547Z" fill="#E8E8E8"/>
</svg>
