<svg width="71" height="57" viewBox="0 0 71 57" fill="none" xmlns="http://www.w3.org/2000/svg">
<path d="M25.5189 56.5H15.8484C15.266 56.5 14.7935 56.0274 14.7935 55.445V51.6716C14.4289 51.5348 14.0655 51.383 13.7033 51.2165L11.0291 53.8891C10.6116 54.2833 9.95919 54.2833 9.54164 53.8891L2.69318 47.0529C2.28432 46.6416 2.28432 45.9769 2.69318 45.5654L5.36571 42.8928C5.19925 42.5295 5.04702 42.1661 4.90862 41.8026H1.13365C0.550822 41.8026 0.0786896 41.3305 0.0786896 40.7477V31.0776C0.0786896 30.4948 0.550811 30.0226 1.13365 30.0226H4.91024C5.04745 29.6584 5.20048 29.2947 5.36575 28.9324L2.69322 26.2599C2.28436 25.8483 2.28436 25.184 2.69322 24.7724L9.53651 17.9275C9.95367 17.5333 10.6065 17.5333 11.0236 17.9275L13.6961 20.6C14.0583 20.4332 14.4241 20.2801 14.7863 20.1429V16.3576C14.7863 15.7748 15.2588 15.3027 15.8413 15.3027H25.5118C26.0942 15.3027 26.5668 15.7748 26.5668 16.3576V20.1322C26.9301 20.2694 27.2939 20.422 27.6585 20.5897L30.331 17.9172C30.7485 17.5225 31.4009 17.5225 31.8185 17.9172L38.6615 24.7621C39.0707 25.1733 39.0707 25.838 38.6615 26.2492L35.9889 28.9217C36.1554 29.2839 36.308 29.6473 36.4464 30.0119H40.221C40.8038 30.0119 41.276 30.4844 41.276 31.0668V40.7373C41.276 41.3198 40.8038 41.7923 40.221 41.7923H36.4481C36.3108 42.1561 36.1578 42.5203 35.9925 42.8825L38.6651 45.555C39.0743 45.9663 39.0743 46.6309 38.6651 47.0421L31.8221 53.887C31.4045 54.2812 30.7521 54.2812 30.3346 53.887L27.6604 51.2145C27.2982 51.381 26.9349 51.5328 26.5702 51.67V55.4466C26.5691 56.0275 26.0993 56.498 25.5188 56.4999L25.5189 56.5ZM16.8912 54.39H24.4656V50.9211C24.466 50.4648 24.7598 50.0603 25.1935 49.9187C25.9504 49.6728 26.6858 49.3659 27.3932 49.001C27.8012 48.7898 28.299 48.8673 28.6236 49.1927L31.0854 51.6541L36.4408 46.2967L33.9794 43.8353C33.6544 43.5107 33.5769 43.0125 33.7877 42.6044C34.1526 41.8978 34.4599 41.1628 34.7054 40.4067C34.8462 39.9726 35.2499 39.6784 35.7058 39.6768H39.1767V32.1079H35.7027C35.2456 32.1072 34.8411 31.8126 34.7003 31.378C34.4547 30.6216 34.1479 29.8866 33.7826 29.1803C33.5714 28.7723 33.6489 28.2745 33.9743 27.9495L36.4357 25.4881L31.0783 20.1516L28.6169 22.6134C28.2919 22.9384 27.7941 23.0159 27.386 22.8048C26.6794 22.4398 25.9444 22.1326 25.1883 21.887C24.7538 21.7463 24.4592 21.3418 24.4584 20.8851V17.409H16.8911V20.8795C16.8903 21.3366 16.5961 21.7411 16.1615 21.8819C15.4051 22.1274 14.6701 22.4342 13.9634 22.7996C13.5554 23.0107 13.0576 22.9332 12.7329 22.6078L10.2712 20.1464L4.91577 25.5039L7.37715 27.9652C7.70217 28.2903 7.77968 28.7881 7.56892 29.1961C7.20395 29.9027 6.89673 30.6378 6.65118 31.3938C6.51041 31.828 6.1067 32.1222 5.6504 32.1237H2.18862V39.6982H5.65951C6.11541 39.6994 6.51913 39.9939 6.65989 40.4277C6.90623 41.1845 7.21306 41.92 7.57764 42.6273C7.78878 43.0354 7.71128 43.5332 7.38586 43.8582L4.92449 46.3196L10.2767 51.6576L12.7381 49.1962C13.0627 48.8708 13.5606 48.7933 13.969 49.0044C14.6752 49.3698 15.4102 49.6774 16.1667 49.9241C16.6001 50.0653 16.8935 50.4686 16.8946 50.9245L16.8912 54.39Z" fill="#E8E8E8"/>
<path d="M20.6784 45.0465C15.629 45.0465 11.5354 40.9528 11.5354 35.9035C11.5354 30.8541 15.629 26.7604 20.6784 26.7604C25.7278 26.7604 29.8214 30.8541 29.8214 35.9035C29.8143 40.95 25.7249 45.0394 20.6784 45.0465ZM20.6784 28.8596C16.7943 28.8596 13.6453 32.0082 13.6453 35.8924C13.6453 39.7769 16.7943 42.9255 20.6784 42.9255C24.5625 42.9255 27.7115 39.7769 27.7115 35.8924C27.7016 32.0127 24.5581 28.87 20.6784 28.8613V28.8596Z" fill="#E8E8E8"/>
<path d="M57.2225 33.5423H57.1557L49.6093 33.0745C49.0304 33.0369 48.5908 32.5391 48.6247 31.9598L48.8007 29.173C48.614 29.0864 48.429 28.9951 48.2451 28.8986L46.1455 30.7483C45.934 30.9286 45.6619 31.0223 45.3843 31.0104C45.1064 30.993 44.8466 30.8669 44.6615 30.6589L39.6561 24.9919C39.2721 24.5558 39.3133 23.8919 39.7474 23.5063L41.8416 21.6567C41.7696 21.4633 41.7008 21.2664 41.6375 21.0711L38.8507 20.8951C38.2718 20.8575 37.8322 20.3597 37.8661 19.7804L38.341 12.2392C38.3786 11.6607 38.8764 11.2207 39.4557 11.2546L42.2425 11.4306C42.3287 11.2443 42.4181 11.0597 42.5165 10.875L40.6669 8.77896C40.2833 8.34322 40.3244 7.67895 40.7586 7.29339L46.4252 2.28945C46.8613 1.90749 47.5244 1.949 47.9091 2.38276L49.7588 4.4769C49.9533 4.40414 50.1487 4.33614 50.3444 4.27287L50.52 1.48605C50.537 1.20769 50.6635 0.947114 50.8719 0.761671C51.0826 0.580175 51.3555 0.486866 51.633 0.501493L59.1794 0.968867C59.7583 1.00683 60.1984 1.50465 60.164 2.08396L59.9884 4.87077C60.1747 4.95737 60.3605 5.04871 60.5456 5.14479L62.6397 3.29703C63.0755 2.91428 63.7382 2.9554 64.1237 3.38837L69.1295 9.05534C69.5119 9.49108 69.4712 10.1538 69.0382 10.5393L66.9441 12.3906C67.016 12.5855 67.0844 12.7824 67.1477 12.9762L69.9345 13.1518C70.5134 13.1897 70.9534 13.6875 70.9195 14.2664L70.4517 21.8128C70.4137 22.3917 69.9159 22.8318 69.337 22.7978L66.5411 22.6132C66.4545 22.7994 66.3631 22.9844 66.2671 23.1687L68.1235 25.2628C68.5063 25.6986 68.4652 26.3613 68.0322 26.7468L62.3672 31.7558C61.9314 32.1385 61.2687 32.0974 60.8832 31.6645L59.0335 29.5703C58.839 29.6431 58.644 29.7111 58.4479 29.7743L58.2724 32.5592C58.2344 33.1116 57.7761 33.5407 57.2225 33.5423ZM50.7908 31.0386L56.2415 31.3762L56.3946 28.9006C56.4234 28.4447 56.7429 28.0592 57.1858 27.9457C57.7749 27.7942 58.3507 27.5942 58.907 27.3482C59.3261 27.1651 59.8152 27.2731 60.1185 27.6151L61.7643 29.4807L65.8556 25.8675L64.2098 24.0039C63.9097 23.6615 63.8631 23.1657 64.094 22.773C64.4064 22.2507 64.6764 21.7039 64.901 21.1381C65.0683 20.7134 65.4898 20.4445 65.9453 20.4718L68.4209 20.6264L68.7586 15.1757L66.2829 15.023C65.8274 14.9938 65.4419 14.6755 65.328 14.2334C65.1758 13.643 64.9761 13.0666 64.7302 12.5086C64.5483 12.0899 64.6562 11.602 64.9975 11.2991L66.8614 9.65146L63.2462 5.55813L61.3826 7.20384C61.0402 7.50395 60.544 7.55101 60.1517 7.32009C59.6298 7.00733 59.0829 6.73765 58.5168 6.51465C58.0921 6.34739 57.8232 5.92588 57.8505 5.47041L58.0031 2.99476L52.5528 2.6555L52.3998 5.13115C52.3709 5.58666 52.0522 5.97179 51.6101 6.08567C51.021 6.23829 50.4444 6.43837 49.8873 6.68352C49.4685 6.86541 48.9806 6.75786 48.6773 6.41622L47.025 4.55622L42.9332 8.16903L44.579 10.033C44.8791 10.375 44.9261 10.8712 44.6952 11.2639C44.382 11.7858 44.1124 12.3327 43.8882 12.8989C43.7166 13.32 43.2978 13.5869 42.8435 13.5651L40.3663 13.4121L40.0286 18.8628L42.5042 19.0174C42.9594 19.0471 43.3437 19.3658 43.4572 19.8071C43.6098 20.3966 43.8095 20.9728 44.055 21.5302C44.2381 21.949 44.1302 22.4381 43.7877 22.7414L41.9257 24.3855L45.5389 28.4768L47.4029 26.8311C47.7449 26.5309 48.2411 26.4843 48.6334 26.7152C49.1569 27.0272 49.7041 27.2972 50.2704 27.5222C50.6939 27.6899 50.9615 28.1102 50.935 28.5649L50.7908 31.0386Z" fill="#E8E8E8"/>
<path d="M54.4084 24.3925C54.2538 24.3925 54.0973 24.3925 53.9411 24.3783C49.9284 24.13 46.8574 20.7085 47.042 16.6923C47.2267 12.6765 50.5991 9.55119 54.6173 9.67216C58.6358 9.79315 61.8141 13.115 61.7571 17.1347C61.7002 21.1549 58.429 24.3854 54.4084 24.3925ZM54.3946 11.7465C51.5892 11.807 49.3219 14.0533 49.2357 16.8584C49.1495 19.663 51.2745 22.0445 54.0712 22.2766C56.9762 22.453 59.4753 20.243 59.6552 17.338C59.8335 14.4333 57.6259 11.9328 54.7217 11.7501C54.6109 11.7501 54.5002 11.7465 54.3927 11.7465L54.3946 11.7465Z" fill="#E8E8E8"/>
</svg>
