<svg width="626" height="502" viewBox="0 0 626 502" fill="none" xmlns="http://www.w3.org/2000/svg">
<g clip-path="url(#clip0_242_13)">
<path d="M274.053 318.851L297.721 356.832L294.153 358.87L296.666 363.265L306.639 357.569L304.125 353.174L301.217 354.836L279.222 315.899L274.053 318.851Z" fill="#4A4A4A"/>
<path d="M288.846 353.642C290.364 352.775 292.298 353.302 293.166 354.818L299.659 366.171C300.526 367.688 299.999 369.62 298.481 370.487C296.963 371.354 295.029 370.827 294.162 369.311L287.669 357.958C286.801 356.441 287.328 354.509 288.846 353.642Z" fill="#4A4A4A"/>
<path d="M302.772 345.688C304.29 344.821 306.224 345.348 307.091 346.865L313.585 358.217C314.452 359.734 313.925 361.667 312.407 362.534C310.889 363.401 308.955 362.874 308.088 361.357L301.595 350.004C300.727 348.488 301.254 346.555 302.772 345.688Z" fill="#4A4A4A"/>
<path d="M292.652 276.141L234.75 305.811L241.241 296.759L291.133 269.235L292.652 276.141Z" fill="#FF9900"/>
<path d="M70.8976 410.348L76.2472 403.892L290.987 288.531L297.478 279.479L308.056 306.475L129.738 384.577L70.8976 410.348Z" fill="#FF9900"/>
<path d="M133.591 393.732L129.738 384.577L308.056 306.475L314.366 319.632L133.591 393.732Z" fill="#4A4A4A"/>
<path d="M261.098 354.429C270.712 348.938 273.77 336.207 267.928 325.993C262.086 315.779 249.557 311.951 239.944 317.441C230.33 322.932 227.272 335.663 233.114 345.877C238.956 356.091 251.485 359.92 261.098 354.429Z" fill="#4A4A4A"/>
<path d="M255.967 345.457C263.051 341.411 265.511 332.392 261.462 325.314C257.413 318.235 248.389 315.776 241.305 319.822C234.221 323.868 231.761 332.886 235.81 339.965C239.858 347.044 248.883 349.503 255.967 345.457Z" fill="#FF9900"/>
<path d="M392.055 251.454L412.791 291.11L416.359 289.072L418.873 293.466L408.9 299.162L406.387 294.768L409.295 293.106L386.886 254.407L392.055 251.454Z" fill="#4A4A4A"/>
<path d="M414.544 281.849L414.544 281.849C413.026 282.716 412.499 284.649 413.367 286.166L419.86 297.518C420.727 299.035 422.661 299.562 424.179 298.695L424.179 298.695C425.697 297.828 426.224 295.895 425.357 294.378L418.864 283.026C417.996 281.509 416.062 280.982 414.544 281.849Z" fill="#4A4A4A"/>
<path d="M400.619 289.803L400.619 289.803C399.101 290.67 398.573 292.602 399.441 294.119L405.934 305.472C406.802 306.989 408.735 307.515 410.253 306.649L410.253 306.648C411.771 305.782 412.299 303.849 411.431 302.332L404.938 290.98C404.07 289.463 402.137 288.936 400.619 289.803Z" fill="#4A4A4A"/>
<path d="M345.79 245.792L400.759 210.995L389.66 211.99L340.606 240.979L345.79 245.792Z" fill="#FF9900"/>
<path d="M321.078 249.439L286.257 194.507L287.252 205.599L316.261 254.619L321.078 249.439Z" fill="#FF9900"/>
<path d="M574.056 122.969L565.774 124.298L357.318 250.646L346.218 251.641L364.126 274.45L521.971 160.553L574.056 122.969Z" fill="#FF9900"/>
<path d="M527.909 168.517L521.971 160.553L364.126 274.451L372.268 286.562L527.909 168.517Z" fill="#4A4A4A"/>
<path d="M429.306 258.357C438.92 252.866 441.978 240.135 436.136 229.921C430.294 219.707 417.765 215.879 408.152 221.369C398.538 226.86 395.48 239.591 401.322 249.805C407.164 260.019 419.693 263.848 429.306 258.357Z" fill="#4A4A4A"/>
<path d="M424.175 249.385C431.259 245.339 433.719 236.32 429.67 229.241C425.622 222.162 416.597 219.704 409.513 223.75C402.429 227.796 399.969 236.814 404.018 243.893C408.066 250.972 417.091 253.43 424.175 249.385Z" fill="#FF9900"/>
<path d="M347.177 235.679L349.849 242.28L368.276 275.501C369.646 277.973 370.736 280.567 371.523 283.236C373.835 291.001 373.649 299.372 370.694 307.05C368.016 314.021 362.939 321.04 353.555 325.671C328.53 338.021 314.629 318.671 314.629 318.671L294.206 280.847L291.405 275.66L287.225 265.801C287.225 265.801 275.285 238.126 302.823 223.37C330.36 208.613 347.177 235.679 347.177 235.679Z" fill="#FF9900"/>
<path d="M289.946 256.959L290.416 245.031L296.122 238.856L319.943 225.251L327.063 224.1L337.411 229.85L325.179 231.006L297.916 246.577L289.946 256.959Z" fill="#E8E8E8"/>
<path d="M346.245 308.634L361.428 332.999L359.139 334.306L360.751 337.125L367.149 333.471L365.536 330.652L363.67 331.718L349.561 306.739L346.245 308.634Z" fill="#4A4A4A"/>
<path d="M355.735 330.952C356.709 330.396 357.949 330.734 358.506 331.707L362.671 338.99C363.228 339.963 362.889 341.203 361.916 341.759C360.942 342.315 359.701 341.977 359.145 341.004L354.979 333.721C354.423 332.748 354.761 331.508 355.735 330.952Z" fill="#4A4A4A"/>
<path d="M364.668 325.85C365.642 325.293 366.883 325.631 367.439 326.605L371.605 333.887C372.161 334.86 371.823 336.1 370.849 336.656C369.875 337.213 368.635 336.875 368.078 335.901L363.913 328.619C363.356 327.646 363.694 326.406 364.668 325.85Z" fill="#4A4A4A"/>
<path d="M293.912 232.958L299.268 254.065L300.398 253.779L295.043 232.671L293.912 232.958Z" fill="#FF9900"/>
<path d="M318.533 222.751L317.651 223.514L331.908 239.981L332.791 239.218L318.533 222.751Z" fill="#FF9900"/>
</g>
<defs>
<clipPath id="clip0_242_13">
<rect width="579.443" height="246.169" fill="white" transform="matrix(0.868347 -0.495957 0.496476 0.86805 0.565979 287.379)"/>
</clipPath>
</defs>
</svg>
