<svg width="490" height="511" viewBox="0 0 490 511" fill="none" xmlns="http://www.w3.org/2000/svg">
<path d="M461.891 492.8L453.404 495.608L438.548 464.166L451.072 460.02L461.891 492.8Z" fill="#FFB8B8"/>
<path d="M446.541 495.187L462.906 489.77L466.312 500.089L439.643 508.917C439.196 507.562 439.019 506.132 439.124 504.708C439.229 503.285 439.612 501.896 440.253 500.621C440.893 499.346 441.778 498.21 442.857 497.278C443.936 496.345 445.188 495.635 446.541 495.187Z" fill="#2F2E41"/>
<path d="M405.908 500.606L396.971 500.605L392.72 466.082L405.91 466.082L405.908 500.606Z" fill="#FFB8B8"/>
<path d="M390.587 498.048H407.823V508.916H379.734C379.734 507.489 380.015 506.076 380.56 504.757C381.106 503.439 381.905 502.24 382.913 501.231C383.921 500.222 385.117 499.421 386.434 498.875C387.75 498.329 389.161 498.048 390.587 498.048Z" fill="#2F2E41"/>
<path d="M397.648 372.45L397.192 374.47C391.035 401.781 388.841 441.52 390.681 469.458L392.102 491.04C392.15 491.78 392.478 492.473 393.018 492.98C393.559 493.486 394.271 493.768 395.011 493.768H405.726C406.44 493.768 407.13 493.506 407.664 493.03C408.197 492.555 408.538 491.9 408.622 491.189L416.938 420.398C417.016 419.735 417.318 419.118 417.795 418.651C418.272 418.184 418.895 417.895 419.559 417.832C420.223 417.769 420.888 417.936 421.444 418.305C422 418.674 422.413 419.223 422.614 419.86L444.167 483.831C444.344 484.393 444.686 484.887 445.149 485.251C445.612 485.614 446.173 485.828 446.76 485.866L463.126 486.924C463.599 486.954 464.071 486.869 464.504 486.676C464.936 486.482 465.314 486.186 465.607 485.813C465.899 485.441 466.097 485.002 466.182 484.536C466.267 484.069 466.238 483.589 466.097 483.137L456.245 456.008C448.633 431.662 444.541 394.669 444.094 369.161C444.087 368.759 443.997 368.362 443.83 367.996C443.662 367.63 443.421 367.303 443.121 367.035C442.822 366.766 442.47 366.563 442.088 366.438C441.706 366.312 441.302 366.267 440.902 366.305L400.216 370.186C399.604 370.244 399.027 370.495 398.565 370.901C398.104 371.308 397.783 371.85 397.648 372.45Z" fill="#2F2E41"/>
<path d="M421.472 259.046C431.36 259.046 439.376 251.018 439.376 241.115C439.376 231.212 431.36 223.184 421.472 223.184C411.584 223.184 403.567 231.212 403.567 241.115C403.567 251.018 411.584 259.046 421.472 259.046Z" fill="#FFB8B8"/>
<path d="M409.719 378.325C406.153 378.317 402.59 378.129 399.043 377.761C397.904 377.636 396.858 377.071 396.13 376.185C395.401 375.299 395.048 374.162 395.145 373.019L401.249 313.951C402.721 297.244 404.996 281.116 416.503 267.457C416.894 266.994 417.376 266.617 417.919 266.35C418.463 266.083 419.056 265.931 419.66 265.904L420.093 265.888C424.632 265.698 426.724 265.864 427.312 266.454L430.478 269.578C449.784 283.877 450.586 374.462 445.83 372.676C444.91 372.333 433.922 372.678 433.158 373.2C426.956 377.434 416.988 378.324 409.719 378.325Z" fill="#1574BC"/>
<path d="M339.47 345.538C339.926 344.567 340.589 343.707 341.412 343.02C342.236 342.333 343.199 341.835 344.236 341.562C345.272 341.288 346.355 341.245 347.41 341.436C348.464 341.627 349.464 342.048 350.339 342.668L371.526 327.489L372.04 341.036L351.842 353.373C350.704 354.776 349.093 355.712 347.312 356.005C345.532 356.297 343.706 355.925 342.181 354.959C340.656 353.993 339.538 352.501 339.038 350.764C338.539 349.028 338.692 347.169 339.47 345.538Z" fill="#FFB8B8"/>
<path d="M360.512 349.543L353.336 336.892L418.701 289.69C420.176 288.624 421.855 287.875 423.632 287.489C425.409 287.103 427.247 287.088 429.03 287.445C430.813 287.802 432.504 288.524 433.996 289.565C435.488 290.606 436.75 291.944 437.703 293.495C438.655 295.047 439.278 296.778 439.532 298.582C439.786 300.385 439.666 302.222 439.18 303.976C438.693 305.731 437.851 307.367 436.705 308.781C435.558 310.195 434.134 311.357 432.519 312.195L360.512 349.543Z" fill="#1574BC"/>
<path d="M429.517 256.275C430.123 256.874 430.925 257.234 431.775 257.289C432.625 257.343 433.465 257.089 434.143 256.572C438.363 253.44 442.067 249.54 444.26 244.784C446.772 239.334 447.052 232.646 444.023 227.467C441.463 223.088 436.942 220.262 432.436 217.942C430.686 216.953 428.801 216.226 426.841 215.783C424.861 215.345 422.788 215.68 421.045 216.719C420.192 217.255 419.521 218.035 419.117 218.959C418.714 219.882 418.598 220.906 418.785 221.896C416.62 219.423 413.848 217.559 410.743 216.49C408.787 215.724 406.646 215.568 404.601 216.044C401.741 216.856 399.654 219.401 398.512 222.149C397.589 224.239 397.27 226.547 397.592 228.811C397.761 229.937 398.165 231.015 398.776 231.975C399.388 232.935 400.194 233.756 401.142 234.384C403.506 235.849 406.522 235.744 409.238 235.145C411.953 234.547 414.581 233.506 417.349 233.243C420.116 232.979 423.198 233.67 424.882 235.886C426.069 237.445 426.373 239.484 426.639 241.426L428.024 251.53C428.138 252.991 428.51 254.421 429.125 255.751C429.232 255.943 429.363 256.119 429.517 256.275Z" fill="#2F2E41"/>
<path d="M468.147 381.914C467.278 381.285 466.557 380.474 466.036 379.536C465.514 378.598 465.204 377.558 465.128 376.487C465.051 375.417 465.21 374.342 465.593 373.34C465.976 372.337 466.573 371.431 467.344 370.685L456.375 347.022L469.763 349.026L478.127 371.19C479.292 372.569 479.912 374.329 479.869 376.135C479.826 377.941 479.123 379.669 477.893 380.991C476.663 382.313 474.991 383.137 473.195 383.307C471.398 383.477 469.602 382.981 468.147 381.914Z" fill="#FFB8B8"/>
<path d="M475.483 356.777L462.85 363.963L415.719 298.5C414.655 297.023 413.907 295.342 413.521 293.562C413.136 291.782 413.121 289.942 413.478 288.156C413.834 286.37 414.555 284.677 415.594 283.183C416.634 281.688 417.97 280.425 419.519 279.471C421.068 278.517 422.797 277.893 424.597 277.638C426.398 277.384 428.232 277.504 429.984 277.991C431.736 278.478 433.369 279.322 434.781 280.47C436.193 281.618 437.354 283.045 438.19 284.662L475.483 356.777Z" fill="#1574BC"/>
<path d="M360.422 121.739H357.636V45.3081C357.636 33.5756 352.982 22.3236 344.698 14.0274C336.415 5.73122 325.179 1.07048 313.464 1.07047H151.772C140.057 1.07047 128.822 5.73121 120.538 14.0274C112.254 22.3236 107.601 33.5756 107.601 45.3081V464.619C107.601 476.352 112.254 487.604 120.538 495.9C128.822 504.196 140.057 508.857 151.772 508.857H313.464C325.179 508.857 336.414 504.196 344.698 495.9C352.982 487.604 357.635 476.352 357.635 464.619V176.143H360.421L360.422 121.739Z" fill="#4A4A4A"/>
<path d="M315.247 12.5753H294.142C295.113 14.9586 295.484 17.5444 295.221 20.1049C294.959 22.6654 294.072 25.122 292.638 27.2583C291.204 29.3945 289.268 31.1449 287 32.3551C284.732 33.5653 282.201 34.1982 279.631 34.1981H186.999C184.429 34.198 181.899 33.5649 179.631 32.3546C177.362 31.1443 175.426 29.3939 173.993 27.2577C172.559 25.1215 171.672 22.665 171.41 20.1046C171.148 17.5442 171.518 14.9585 172.489 12.5753H152.776C144.027 12.5753 135.637 16.0559 129.451 22.2514C123.264 28.4469 119.789 36.8498 119.789 45.6115V464.314C119.789 473.076 123.264 481.478 129.451 487.674C135.637 493.869 144.027 497.35 152.776 497.35H315.247C323.996 497.35 332.386 493.869 338.572 487.674C344.758 481.478 348.234 473.076 348.234 464.314V45.6109C348.234 36.8492 344.758 28.4465 338.572 22.2511C332.386 16.0558 323.995 12.5753 315.247 12.5753Z" fill="#E8E8E8"/>
<path d="M234.011 260.245C218.872 260.245 204.073 255.75 191.486 247.326C178.898 238.903 169.088 226.931 163.294 212.924C157.501 198.916 155.985 183.503 158.939 168.633C161.892 153.763 169.182 140.104 179.887 129.383C190.591 118.662 204.23 111.361 219.078 108.404C233.926 105.446 249.316 106.964 263.302 112.766C277.289 118.568 289.243 128.393 297.654 141C306.065 153.606 310.554 168.427 310.554 183.588C310.531 203.912 302.459 223.397 288.109 237.768C273.76 252.139 254.304 260.222 234.011 260.245ZM234.011 108.391C219.16 108.391 204.643 112.801 192.296 121.064C179.948 129.327 170.324 141.071 164.641 154.811C158.958 168.552 157.471 183.671 160.369 198.258C163.266 212.845 170.417 226.244 180.918 236.761C191.418 247.277 204.797 254.439 219.362 257.34C233.927 260.242 249.025 258.753 262.745 253.061C276.464 247.37 288.191 237.732 296.442 225.365C304.692 212.999 309.096 198.461 309.096 183.588C309.073 163.651 301.155 144.538 287.079 130.44C273.003 116.343 253.918 108.413 234.011 108.391Z" fill="#4A4A4A"/>
<path d="M262.125 161.319C268.68 155.772 272.662 147.008 271.618 138.477C270.574 129.946 264.106 122.103 255.716 120.291C247.327 118.479 237.763 123.494 235.215 131.702C233.813 115.878 232.197 99.3912 223.796 85.9157C216.19 73.7139 203.016 64.9831 188.737 63.4211C174.459 61.8592 159.426 67.7585 150.522 79.0448C141.617 90.3312 139.437 106.739 145.673 119.697C150.268 129.242 158.732 136.346 167.6 142.126C195.894 160.564 230.992 166.793 264.389 161.871L262.125 161.319Z" fill="#4A4A4A"/>
<path d="M164.641 68.0855C176.423 77.6958 187.231 88.4441 196.909 100.175C212.056 118.471 224.313 138.984 233.253 161C233.907 162.606 231.303 163.305 230.656 161.717C216.028 125.937 192.677 94.4007 162.737 69.9926C161.393 68.8962 163.308 66.9981 164.641 68.0855Z" fill="#E8E8E8"/>
<path d="M168.65 335.443C173.078 335.443 176.668 331.847 176.668 327.412C176.668 322.977 173.078 319.381 168.65 319.381C164.221 319.381 160.631 322.977 160.631 327.412C160.631 331.847 164.221 335.443 168.65 335.443Z" fill="#4A4A4A"/>
<path d="M301.56 333.253H199.503C197.956 333.253 196.473 332.637 195.379 331.542C194.285 330.447 193.671 328.961 193.671 327.412C193.671 325.863 194.285 324.377 195.379 323.282C196.473 322.187 197.956 321.571 199.503 321.571H301.56C303.107 321.571 304.59 322.187 305.684 323.282C306.777 324.377 307.392 325.863 307.392 327.412C307.392 328.961 306.777 330.447 305.684 331.542C304.59 332.637 303.107 333.253 301.56 333.253Z" fill="#E8E8E8"/>
<path d="M269.908 333.323H199.082C197.517 333.323 196.015 332.7 194.908 331.592C193.802 330.483 193.18 328.98 193.18 327.412C193.18 325.844 193.802 324.341 194.908 323.232C196.015 322.124 197.517 321.501 199.082 321.501H269.908C271.473 321.501 272.974 322.124 274.081 323.232C275.188 324.341 275.81 325.844 275.81 327.412C275.81 328.98 275.188 330.483 274.081 331.592C272.974 332.7 271.473 333.323 269.908 333.323Z" fill="#1574BC"/>
<path d="M168.65 370.486C173.078 370.486 176.668 366.891 176.668 362.455C176.668 358.02 173.078 354.425 168.65 354.425C164.221 354.425 160.631 358.02 160.631 362.455C160.631 366.891 164.221 370.486 168.65 370.486Z" fill="#4A4A4A"/>
<path d="M301.56 368.296H199.503C197.956 368.296 196.473 367.681 195.379 366.585C194.285 365.49 193.671 364.004 193.671 362.455C193.671 360.906 194.285 359.421 195.379 358.325C196.473 357.23 197.956 356.615 199.503 356.615H301.56C303.107 356.615 304.59 357.23 305.684 358.325C306.777 359.421 307.392 360.906 307.392 362.455C307.392 364.004 306.777 365.49 305.684 366.585C304.59 367.681 303.107 368.296 301.56 368.296Z" fill="#E8E8E8"/>
<path d="M168.65 405.529C173.078 405.529 176.668 401.934 176.668 397.499C176.668 393.063 173.078 389.468 168.65 389.468C164.221 389.468 160.631 393.063 160.631 397.499C160.631 401.934 164.221 405.529 168.65 405.529Z" fill="#4A4A4A"/>
<path d="M301.56 403.339H199.503C197.956 403.339 196.473 402.724 195.379 401.629C194.285 400.533 193.671 399.048 193.671 397.499C193.671 395.95 194.285 394.464 195.379 393.369C196.473 392.273 197.956 391.658 199.503 391.658H301.56C303.107 391.658 304.59 392.273 305.684 393.369C306.777 394.464 307.392 395.95 307.392 397.499C307.392 399.048 306.777 400.533 305.684 401.629C304.59 402.724 303.107 403.339 301.56 403.339Z" fill="#E8E8E8"/>
<path d="M246.58 368.366H199.082C197.517 368.366 196.015 367.744 194.908 366.635C193.802 365.526 193.18 364.023 193.18 362.455C193.18 360.888 193.802 359.384 194.908 358.276C196.015 357.167 197.517 356.544 199.082 356.544H246.58C248.146 356.544 249.647 357.167 250.754 358.276C251.861 359.384 252.483 360.888 252.483 362.455C252.483 364.023 251.861 365.526 250.754 366.635C249.647 367.744 248.146 368.366 246.58 368.366Z" fill="#1574BC"/>
<path d="M288.861 403.41H199.082C197.517 403.41 196.015 402.787 194.908 401.678C193.802 400.57 193.18 399.066 193.18 397.499C193.18 395.931 193.802 394.428 194.908 393.319C196.015 392.21 197.517 391.588 199.082 391.588H288.861C290.427 391.588 291.928 392.21 293.035 393.319C294.142 394.428 294.763 395.931 294.763 397.499C294.763 399.066 294.142 400.57 293.035 401.678C291.928 402.787 290.427 403.41 288.861 403.41Z" fill="#1574BC"/>
<path d="M274.539 171.668H264.52V142.017C264.521 141.146 264.866 140.311 265.481 139.695C266.096 139.079 266.93 138.733 267.8 138.732H271.258C272.128 138.733 272.962 139.079 273.577 139.695C274.192 140.311 274.538 141.146 274.539 142.017V171.668Z" fill="#4A4A4A"/>
<path d="M280.613 222.126H184.84L184.496 168.067C184.493 167.232 184.656 166.404 184.978 165.634C185.3 164.863 185.773 164.165 186.369 163.581L210.428 140.113C211.569 138.995 213.099 138.364 214.695 138.353L254.962 137.984C255.875 137.978 256.778 138.174 257.607 138.556C258.437 138.938 259.172 139.498 259.762 140.196L259.765 140.201L278.891 163.691C280.003 165.06 280.611 166.77 280.613 168.535L280.613 222.126Z" fill="#4A4A4A"/>
<path d="M280.612 222.126H229.145V173.678C229.145 172.201 229.67 170.774 230.627 169.65L252.989 143.394C253.57 142.71 254.292 142.162 255.106 141.785C255.92 141.409 256.806 141.215 257.703 141.215H257.726C258.627 141.218 259.516 141.418 260.331 141.8C261.147 142.183 261.869 142.739 262.448 143.43L279.161 163.356C280.098 164.474 280.612 165.888 280.612 167.348V222.126Z" fill="#1574BC"/>
<path d="M258.78 203.517H251.333C250.85 203.517 250.387 203.324 250.045 202.982C249.703 202.64 249.511 202.176 249.511 201.692V195.44C249.511 194.956 249.703 194.492 250.045 194.15C250.387 193.807 250.85 193.615 251.333 193.614H258.78C259.263 193.615 259.726 193.807 260.068 194.15C260.409 194.492 260.601 194.956 260.602 195.44V201.692C260.601 202.176 260.409 202.64 260.068 202.982C259.726 203.324 259.263 203.517 258.78 203.517Z" fill="#E8E8E8"/>
<path d="M258.78 187.495H251.333C250.85 187.495 250.387 187.302 250.045 186.96C249.703 186.618 249.511 186.154 249.511 185.67V179.563C249.511 179.079 249.703 178.615 250.045 178.273C250.387 177.931 250.85 177.738 251.333 177.738H258.78C259.263 177.738 259.726 177.931 260.068 178.273C260.409 178.615 260.601 179.079 260.602 179.563V185.67C260.601 186.154 260.409 186.618 260.068 186.96C259.726 187.302 259.263 187.495 258.78 187.495Z" fill="#E8E8E8"/>
<path d="M212.73 201.083H205.283C204.8 201.083 204.337 200.89 203.995 200.548C203.654 200.206 203.462 199.742 203.461 199.258V193.006C203.462 192.522 203.654 192.058 203.995 191.716C204.337 191.374 204.8 191.181 205.283 191.181H212.73C213.213 191.181 213.676 191.374 214.018 191.716C214.359 192.058 214.552 192.522 214.552 193.006V199.258C214.552 199.742 214.359 200.206 214.018 200.548C213.676 200.89 213.213 201.083 212.73 201.083Z" fill="#E8E8E8"/>
<path d="M212.73 185.061H205.283C204.8 185.06 204.337 184.868 203.995 184.526C203.654 184.184 203.462 183.72 203.461 183.236V177.129C203.462 176.645 203.654 176.181 203.995 175.839C204.337 175.497 204.8 175.304 205.283 175.304H212.73C213.213 175.304 213.676 175.497 214.018 175.839C214.359 176.181 214.552 176.645 214.552 177.129V183.236C214.552 183.72 214.359 184.184 214.018 184.526C213.676 184.868 213.213 185.061 212.73 185.061Z" fill="#E8E8E8"/>
<path d="M299.148 222.758H168.876C168.683 222.758 168.498 222.681 168.361 222.544C168.224 222.407 168.147 222.222 168.147 222.028C168.147 221.834 168.224 221.649 168.361 221.512C168.498 221.375 168.683 221.298 168.876 221.298H299.148C299.341 221.298 299.526 221.375 299.663 221.512C299.8 221.649 299.877 221.834 299.877 222.028C299.877 222.222 299.8 222.407 299.663 222.544C299.526 222.681 299.341 222.758 299.148 222.758Z" fill="#4A4A4A"/>
</svg>
