<svg width="217" height="189" viewBox="0 0 217 189" fill="none" xmlns="http://www.w3.org/2000/svg">
<g clip-path="url(#clip0_348_250)">
<path d="M217 91.8358C217 133.662 180.105 168.92 129.761 179.744C121.585 181.497 113.279 182.58 104.926 182.981C104.52 183.001 104.113 183.021 103.704 183.036C101.53 183.125 99.3399 183.171 97.1332 183.172C93.2964 183.172 89.505 183.036 85.759 182.763C83.6809 182.616 81.6202 182.428 79.5769 182.199C59.7047 179.976 41.4171 174.038 25.9709 165.339C24.0408 164.253 22.1563 163.124 20.3171 161.952C16.9494 159.813 13.6981 157.498 10.5769 155.015C-10.0558 138.613 7.14635 103.601 17.8994 81.5587C46.9228 22.0674 30.9339 0.5 97.1332 0.5C163.333 0.5 217 41.3912 217 91.8358Z" fill="white"/>
<path d="M169.558 38.154C148.983 37.7859 148.986 7.28657 169.559 6.92157C190.133 7.28957 190.13 37.7889 169.558 38.154Z" fill="white"/>
<path d="M130.647 83.6048C110.072 83.2368 110.075 52.7374 130.648 52.3724C151.222 52.7404 151.219 83.2397 130.647 83.6048Z" fill="white"/>
<path d="M171.236 129.757C150.661 129.389 150.664 98.8901 171.236 98.5251C191.811 98.8931 191.808 129.392 171.236 129.757Z" fill="white"/>
<path d="M169.558 38.154C148.983 37.7859 148.986 7.28657 169.559 6.92157C190.133 7.28957 190.13 37.7889 169.558 38.154ZM169.558 7.86798C150.23 8.21377 150.233 36.8646 169.559 37.2075C188.886 36.8617 188.883 8.21095 169.558 7.86798Z" fill="#E8E8E8"/>
<path d="M79.5052 181.982C79.4589 181.835 79.4269 181.683 79.4095 181.53L73.4335 147.543C73.4247 147.456 73.4111 147.369 73.393 147.283C73.2665 146.663 72.9513 146.098 72.4905 145.664C72.0298 145.229 71.4459 144.948 70.8186 144.857L36.7422 145.005C36.0975 144.908 35.4387 145.02 34.8622 145.324C34.2857 145.627 33.8217 146.107 33.538 146.692C32.9838 147.845 32.4411 149.013 31.9099 150.198C29.7592 154.972 27.7798 160.019 25.9717 165.339C41.418 174.038 59.7055 179.976 79.5777 182.199L79.5052 181.982Z" fill="#2F2E41"/>
<path d="M112.769 91.0335C112.685 91.401 112.63 91.7745 112.605 92.1505L83.2757 109.028L76.1468 104.934L68.5469 114.858L80.4612 123.328C81.4238 124.013 82.5828 124.367 83.7645 124.338C84.9461 124.31 86.0865 123.899 87.0145 123.169L117.258 99.3701C118.623 99.8741 120.11 99.9516 121.52 99.5924C122.93 99.2332 124.197 98.4543 125.152 97.3592C126.108 96.2642 126.707 94.905 126.869 93.4623C127.031 92.0196 126.749 90.5619 126.06 89.283C125.371 88.0042 124.309 86.9648 123.013 86.303C121.718 85.6413 120.251 85.3887 118.808 85.5787C117.365 85.7688 116.015 86.3925 114.936 87.3669C113.857 88.3413 113.101 89.6202 112.769 91.0335Z" fill="#FFB8B8"/>
<path d="M82.8745 107.341C82.7855 106.91 82.6044 106.502 82.3435 106.146C82.0825 105.791 81.7479 105.495 81.3624 105.28L67.9042 97.7734C66.1158 96.397 63.8533 95.7842 61.6126 96.0691C59.372 96.3541 57.336 97.5136 55.9511 99.2935C54.5662 101.073 53.9454 103.328 54.2247 105.564C54.5041 107.8 55.6608 109.834 57.4413 111.22L68.1712 122.334C68.4775 122.651 68.8487 122.899 69.2596 123.061C69.6705 123.222 70.1114 123.293 70.5523 123.269C70.9933 123.245 71.4239 123.127 71.8148 122.922C72.2058 122.717 72.5479 122.431 72.8179 122.082L74.9075 119.378L75.6215 118.458L82.2968 109.828C82.5406 109.513 82.7192 109.153 82.8222 108.768C82.9528 108.304 82.9707 107.814 82.8745 107.341Z" fill="#1574BC"/>
<path d="M63.3884 84.452C69.9372 77.9199 69.9372 67.3292 63.3884 60.797C56.8396 54.2649 46.2219 54.2649 39.6731 60.797C33.1243 67.3292 33.1243 77.9199 39.6731 84.452C46.2219 90.9841 56.8396 90.9841 63.3884 84.452Z" fill="#FFB8B8"/>
<path d="M72.7336 135.935C73.4068 134.93 77.6878 128.15 76.0683 120.203C75.9493 119.614 75.8001 119.032 75.6213 118.458C74.8581 116.066 73.639 113.843 72.0311 111.912C72.0515 111.38 72.0457 110.856 72.0138 110.335V110.332C71.7771 106.711 70.2371 103.298 67.6772 100.72C65.1174 98.1419 61.71 96.5733 58.0826 96.3027L39.3277 94.8813C36.9136 94.6849 34.4879 95.0767 32.2593 96.0227C30.0307 96.9688 28.0659 98.4409 26.5341 100.312C26.1814 100.739 25.851 101.183 25.5444 101.644L25.5433 101.644L25.5424 101.645L25.5417 101.646L25.5416 101.647C24.359 103.427 23.5743 105.44 23.2408 107.55C22.9073 109.659 23.0327 111.815 23.6086 113.872L23.7683 114.573L25.7679 123.318L29.1114 137.952L31.9093 150.198L32.2053 151.489C32.3614 152.165 32.7424 152.769 33.2862 153.202C33.8301 153.634 34.5048 153.87 35.2005 153.872C35.3677 153.873 35.5348 153.859 35.6997 153.831L71.9905 147.897C72.5027 147.815 72.9853 147.604 73.3924 147.283C73.6368 147.089 73.851 146.859 74.028 146.603C74.2645 146.261 74.4282 145.875 74.5091 145.469C74.5899 145.062 74.5862 144.643 74.4981 144.237L72.7336 135.935Z" fill="#1574BC"/>
<path d="M1.31229 185.329C0.696752 184.453 0.281206 183.453 0.0949262 182.4C-0.0913539 181.347 -0.0438366 180.265 0.234131 179.232C0.512098 178.199 1.01376 177.24 1.70377 176.421C2.39378 175.602 3.25535 174.945 4.22781 174.494L24.8905 111.127L36.8649 116.794L14.2567 178.494C14.9073 180.174 14.9177 182.033 14.2857 183.72C13.6538 185.407 12.4235 186.804 10.8279 187.646C9.23234 188.489 7.3824 188.718 5.62861 188.291C3.87482 187.864 2.33905 186.81 1.31229 185.329Z" fill="#FFB8B8"/>
<path d="M36.7248 96.158C34.5112 95.4937 32.1275 95.6903 30.0533 96.7081C27.9791 97.7259 26.3683 99.4894 25.545 101.644L25.5438 101.644L25.5429 101.645L25.5423 101.646L25.5421 101.647C25.4666 101.841 25.397 102.043 25.3361 102.246L23.5859 105.949L18.2979 117.138C18.0957 117.564 17.9882 118.029 17.9826 118.5C17.9771 118.972 18.0736 119.439 18.2657 119.87C18.4577 120.301 18.7407 120.686 19.0954 120.997C19.4501 121.309 19.868 121.541 20.3207 121.677L21.3512 121.987L25.7684 123.318L33.6077 125.681L36.2198 126.468C36.6724 126.605 37.1491 126.642 37.6175 126.578C38.0859 126.514 38.535 126.35 38.9341 126.097C39.3332 125.844 39.673 125.509 39.9303 125.113C40.1877 124.718 40.3565 124.271 40.4252 123.805L42.8401 107.466C43.5261 105.157 43.2679 102.672 42.122 100.553C40.976 98.434 39.0355 96.8539 36.7248 96.158Z" fill="#1574BC"/>
<path d="M66.9291 66.542C60.9537 71.7557 51.7805 72.9663 44.6514 69.482C47.8539 73.2715 53.9358 91.978 53.9358 91.978C53.9358 91.978 36.7629 90.1778 34.3366 89.6603C20.0062 86.6037 25.2151 49.5849 40.485 49.7718C43.0713 49.8034 45.3322 50.1154 47.0536 52.0409C48.1962 48.8463 51.8293 46.9646 55.2209 47.2082C58.6125 47.4518 61.6796 49.4837 63.8614 52.0852C65.6025 54.1913 66.8592 56.6528 67.543 59.296C68.2268 61.9392 68.3209 64.6998 67.8189 67.3833L66.9291 66.542Z" fill="#2F2E41"/>
<path d="M130.647 83.6048C110.072 83.2368 110.075 52.7374 130.648 52.3724C151.222 52.7404 151.219 83.2397 130.647 83.6048ZM130.647 53.3188C111.319 53.6646 111.322 82.3154 130.648 82.6583C149.975 82.3125 149.972 53.6618 130.647 53.3188Z" fill="#E8E8E8"/>
<path d="M171.236 129.757C150.661 129.389 150.664 98.8901 171.236 98.5251C191.811 98.8931 191.808 129.392 171.236 129.757ZM171.236 99.4715C151.908 99.8173 151.911 128.468 171.236 128.811C190.564 128.465 190.561 99.8145 171.236 99.4715Z" fill="#E8E8E8"/>
<path d="M172.902 14.5325C169.042 14.6431 161.536 13.267 161.532 19.2026C161.643 23.0524 160.264 30.5391 166.214 30.5429C170.074 30.4325 177.58 31.8086 177.583 25.873C177.473 22.0232 178.852 14.5365 172.902 14.5325Z" fill="#1574BC"/>
<path d="M173.906 19.2024C172.607 19.2187 172.611 17.1834 173.91 17.2054C175.209 17.1893 175.204 19.2242 173.906 19.2024Z" fill="white"/>
<path d="M169.558 19.8693C173.029 19.8184 173.029 25.2576 169.558 25.2064C166.087 25.2566 166.087 19.8185 169.558 19.8693ZM169.558 18.5352C164.352 18.4593 164.351 26.617 169.558 26.5405C174.765 26.6163 174.764 18.4587 169.558 18.5352Z" fill="white"/>
<path d="M142.972 116.774C142.878 116.777 142.786 116.752 142.707 116.702C142.627 116.652 142.564 116.58 142.526 116.495C142.488 116.41 142.476 116.315 142.492 116.223C142.508 116.131 142.55 116.045 142.615 115.977L144.194 114.313C144.244 114.26 144.27 114.191 144.268 114.119C144.266 114.047 144.236 113.979 144.184 113.929L142.506 112.345C142.459 112.302 142.422 112.249 142.396 112.191C142.37 112.133 142.355 112.07 142.354 112.006C142.352 111.943 142.363 111.879 142.386 111.82C142.408 111.76 142.443 111.706 142.487 111.659C142.575 111.566 142.697 111.512 142.825 111.508C142.953 111.504 143.078 111.551 143.172 111.638L145.43 113.742C145.474 113.784 145.51 113.834 145.535 113.889C145.56 113.945 145.574 114.004 145.575 114.065C145.577 114.126 145.567 114.186 145.545 114.243C145.523 114.3 145.49 114.351 145.448 114.395L143.301 116.629C143.215 116.719 143.097 116.771 142.972 116.774Z" fill="#E8E8E8"/>
<path d="M141.247 114.352C141.196 114.399 141.129 114.426 141.059 114.428L135.796 114.573C135.757 114.574 135.72 114.567 135.684 114.554C135.648 114.54 135.616 114.52 135.588 114.494C135.56 114.467 135.538 114.436 135.522 114.401C135.507 114.367 135.498 114.329 135.497 114.291C135.496 114.253 135.503 114.215 135.516 114.18C135.53 114.144 135.55 114.112 135.577 114.084C135.603 114.056 135.634 114.034 135.669 114.019C135.704 114.003 135.742 113.995 135.78 113.994L141.043 113.849C141.102 113.847 141.16 113.864 141.21 113.896C141.259 113.928 141.298 113.975 141.32 114.03C141.342 114.084 141.347 114.144 141.334 114.202C141.321 114.259 141.291 114.312 141.247 114.352Z" fill="#E8E8E8"/>
<path d="M102.339 70.6216C102.246 70.6243 102.153 70.5992 102.074 70.5495C101.994 70.4998 101.932 70.4277 101.893 70.3423C101.855 70.257 101.843 70.1622 101.859 70.07C101.875 69.9779 101.918 69.8925 101.982 69.8246L103.561 68.1599C103.611 68.1076 103.638 68.0379 103.636 67.9661C103.634 67.8942 103.603 67.8261 103.551 67.7766L101.873 66.1926C101.826 66.1488 101.789 66.0963 101.763 66.0381C101.737 65.98 101.723 65.9172 101.721 65.8535C101.719 65.7898 101.73 65.7264 101.753 65.6669C101.776 65.6073 101.81 65.5529 101.854 65.5066C101.942 65.4138 102.064 65.3595 102.192 65.3556C102.321 65.3516 102.445 65.3984 102.539 65.4856L104.797 67.5898C104.841 67.6312 104.877 67.6811 104.902 67.7365C104.927 67.7919 104.941 67.8517 104.943 67.9124C104.944 67.9731 104.934 68.0336 104.912 68.0902C104.89 68.1469 104.857 68.1987 104.815 68.2425L102.668 70.4766C102.582 70.5663 102.464 70.6185 102.339 70.6216Z" fill="#E8E8E8"/>
<path d="M100.615 68.1988C100.563 68.2462 100.496 68.2733 100.426 68.2751L95.1628 68.4198C95.1247 68.4209 95.0867 68.4145 95.0511 68.401C95.0154 68.3874 94.9828 68.367 94.9551 68.3409C94.9274 68.3147 94.9051 68.2834 94.8896 68.2487C94.874 68.2139 94.8654 68.1765 94.8644 68.1385C94.8633 68.1004 94.8698 68.0626 94.8834 68.0271C94.8971 67.9915 94.9176 67.959 94.9438 67.9314C94.97 67.9038 95.0015 67.8816 95.0363 67.8661C95.0711 67.8506 95.1087 67.8421 95.1468 67.8411L100.41 67.6964C100.469 67.6948 100.527 67.7112 100.577 67.7434C100.626 67.7757 100.665 67.8222 100.687 67.8769C100.709 67.9315 100.714 67.9916 100.701 68.0491C100.688 68.1067 100.658 68.1589 100.615 68.1988Z" fill="#E8E8E8"/>
<path d="M141.231 25.1708C141.137 25.1735 141.045 25.1484 140.965 25.0987C140.886 25.049 140.823 24.9769 140.785 24.8915C140.747 24.8062 140.735 24.7114 140.751 24.6192C140.766 24.5271 140.809 24.4417 140.874 24.3738L142.453 22.7091C142.503 22.6568 142.529 22.5871 142.527 22.5153C142.525 22.4434 142.495 22.3753 142.442 22.3258L140.764 20.7418C140.718 20.698 140.681 20.6455 140.655 20.5873C140.629 20.5292 140.614 20.4664 140.612 20.4027C140.611 20.339 140.622 20.2756 140.644 20.2161C140.667 20.1565 140.702 20.1021 140.745 20.0558C140.834 19.963 140.956 19.9087 141.084 19.9048C141.212 19.9008 141.337 19.9476 141.431 20.0348L143.688 22.139C143.733 22.1804 143.769 22.2303 143.794 22.2857C143.819 22.3411 143.833 22.4009 143.834 22.4616C143.836 22.5223 143.825 22.5828 143.804 22.6394C143.782 22.6961 143.749 22.7479 143.707 22.7917L141.56 25.0258C141.474 25.1155 141.356 25.1677 141.231 25.1708Z" fill="#E8E8E8"/>
<path d="M139.506 22.748C139.455 22.7954 139.388 22.8225 139.318 22.8243L134.054 22.969C134.016 22.9701 133.978 22.9637 133.943 22.9502C133.907 22.9366 133.874 22.9162 133.847 22.89C133.819 22.8639 133.797 22.8326 133.781 22.7979C133.766 22.7631 133.757 22.7257 133.756 22.6877C133.755 22.6496 133.761 22.6118 133.775 22.5762C133.789 22.5407 133.809 22.5082 133.835 22.4806C133.862 22.453 133.893 22.4308 133.928 22.4153C133.963 22.3998 134 22.3913 134.038 22.3903L139.302 22.2456C139.361 22.244 139.419 22.2604 139.469 22.2926C139.518 22.3249 139.556 22.3714 139.579 22.4261C139.601 22.4807 139.606 22.5408 139.593 22.5983C139.58 22.6559 139.55 22.7081 139.506 22.748Z" fill="#E8E8E8"/>
<path d="M135.842 172.715C134.481 175.535 132.264 177.816 129.762 179.744C121.586 181.497 113.28 182.58 104.927 182.981C104.52 183.001 104.114 183.021 103.705 183.036C101.531 183.125 99.3405 183.171 97.1338 183.172C93.297 183.172 89.5056 183.036 85.7596 182.763C85.617 181.904 85.5974 181.029 85.7015 180.164C86.1166 176.78 88.691 173.67 92.0315 172.952C95.3722 172.235 99.1799 174.223 100.193 177.477C100.753 171.201 101.395 164.664 104.741 159.32C107.768 154.483 113.013 151.02 118.698 150.401C122.04 150.054 125.411 150.67 128.412 152.175C128.688 152.314 128.961 152.459 129.231 152.61C131.032 153.628 132.621 154.981 133.912 156.596C137.459 161.072 138.327 167.579 135.842 172.715Z" fill="white"/>
<path d="M129.23 152.61C129.237 152.686 129.224 152.762 129.193 152.832C129.161 152.901 129.112 152.961 129.05 153.006C118.977 161.186 110.755 171.402 104.926 182.981C104.52 183.001 104.113 183.021 103.704 183.036C104.221 181.991 104.757 180.956 105.312 179.932C108.196 174.631 111.59 169.622 115.444 164.974C119.298 160.323 123.6 156.062 128.29 152.251C128.327 152.22 128.368 152.195 128.412 152.175C128.493 152.141 128.582 152.124 128.671 152.128C128.76 152.132 128.847 152.155 128.925 152.197C129.004 152.239 129.072 152.297 129.125 152.369C129.177 152.44 129.213 152.523 129.23 152.61Z" fill="white"/>
<path d="M179.736 110.201C179.736 110.201 178.407 111.686 178.152 111.782C177.449 119.404 172.678 121.136 168.847 121.136C166.092 121.136 163.823 120.241 163.898 119.995C167.985 120.091 168.333 118.417 168.333 118.417C165.959 118.067 165.483 116.521 165.483 116.521C165.696 116.633 165.943 116.663 166.176 116.604C166.41 116.546 166.613 116.404 166.748 116.206C164.186 115.54 164.534 113.044 164.534 113.044C164.99 113.374 165.524 113.581 166.084 113.646C165.799 113.299 163.402 110.433 164.844 108.948C164.929 109.174 167.425 112.564 171.595 112.318C171.496 111.834 171.506 111.334 171.624 110.854C171.742 110.374 171.964 109.927 172.276 109.543C172.588 109.159 172.981 108.849 173.428 108.635C173.874 108.421 174.362 108.309 174.857 108.305C177.075 108.305 177.551 109.57 177.551 109.57L179.136 108.621C179.104 108.621 178.944 110.201 178.152 110.517L179.736 110.201Z" fill="#1574BC"/>
<path fill-rule="evenodd" clip-rule="evenodd" d="M139.273 68.0393C139.274 70.1054 138.535 72.1039 137.19 73.6752C135.845 75.2465 133.982 76.2876 131.936 76.6112V70.5492H133.962L134.348 68.0393H131.936C131.855 65.9491 131.774 64.7767 134.45 65.0575V62.9239C130.442 62.0438 128.77 64.0703 129.22 68.0393H127.011V70.5492H129.22V76.6083C118.824 75.0132 120.045 59.3255 130.575 59.366C131.717 59.3658 132.848 59.5899 133.903 60.0257C134.959 60.4614 135.917 61.1003 136.725 61.9057C137.533 62.7111 138.174 63.6673 138.611 64.7197C139.048 65.7721 139.273 66.9001 139.273 68.0393Z" fill="#1574BC"/>
</g>
<defs>
<clipPath id="clip0_348_250">
<rect width="217" height="188" fill="white" transform="translate(0 0.5)"/>
</clipPath>
</defs>
</svg>
