<svg width="350" height="242" viewBox="0 0 350 242" fill="none" xmlns="http://www.w3.org/2000/svg">
<g clip-path="url(#clip0_242_45)">
<path d="M130.945 69.137L117.433 78.7774L125.841 79.6807L137.552 69.7404L130.945 69.137Z" fill="#2F2E41"/>
<path d="M78.0818 233.741L86.2086 233.741L90.0748 202.298L78.0803 202.298L78.0818 233.741Z" fill="#FFB8B8"/>
<path d="M76.0086 231.08L92.0133 231.079H92.014C94.7189 231.079 97.3131 232.157 99.2258 234.076C101.139 235.994 102.213 238.597 102.213 241.31V241.642L76.0091 241.643L76.0086 231.08Z" fill="#2F2E41"/>
<path d="M72.9724 121.434C72.9724 121.434 69.4503 125.427 75.2824 140.995L74.2551 226.356L93.1551 225.986L97.3095 184.347L104.873 123.585L72.9724 121.434Z" fill="#2F2E41"/>
<path d="M54.1025 107.959C52.9859 107.956 51.9144 107.516 51.1154 106.734C50.3164 105.951 49.8529 104.887 49.8232 103.767L48.9363 70.2392L64.1125 41.3585C64.4571 40.7082 64.9613 40.1567 65.5775 39.7562C66.1937 39.3557 66.9015 39.1195 67.6341 39.0698L79.1997 38.325L78.201 105.909L54.4786 107.942C54.3527 107.953 54.2274 107.959 54.1025 107.959Z" fill="#FF9900"/>
<path d="M111.356 133.235L111.149 133.204C86.9704 129.505 68.725 125.959 68.5435 125.923L68.3169 125.879L74.655 110.416C74.605 108.8 73.233 63.425 75.8594 50.3883C78.402 37.768 90.3867 35.6998 91.7524 35.5052L93.1237 30.9475L110.449 39.9904L113.47 50.4218L114.084 79.0117L111.356 133.235Z" fill="#2F2E41"/>
<path d="M87.5469 89.9523C76.3848 89.9523 67.3037 77.7785 67.3037 62.8148C67.3037 47.8511 76.3848 35.6772 87.5469 35.6772C98.709 35.6772 107.79 47.8511 107.79 62.8148C107.79 77.7785 98.709 89.9523 87.5469 89.9523ZM87.5469 38.3341C77.8453 38.3341 69.9524 49.3161 69.9524 62.8148C69.9524 76.3135 77.8453 87.2955 87.5469 87.2955C97.2486 87.2955 105.141 76.3135 105.141 62.8148C105.141 49.3161 97.2486 38.3341 87.5469 38.3341Z" fill="#FF9900"/>
<path d="M121.79 74.3909C121.01 74.3907 120.238 74.5525 119.523 74.8661C118.809 75.1796 118.166 75.6382 117.637 76.213H88.5164L77.8498 78.4905L79.6011 92.0397L117.545 83.8542C118.173 84.5658 118.969 85.1083 119.86 85.4321C120.751 85.7558 121.709 85.8505 122.646 85.7076C123.583 85.5646 124.469 85.1885 125.224 84.6137C125.978 84.0388 126.577 83.2835 126.966 82.4166C127.355 81.5498 127.521 80.599 127.45 79.6512C127.378 78.7034 127.071 77.7887 126.556 76.9906C126.041 76.1924 125.335 75.5364 124.503 75.0823C123.67 74.6282 122.738 74.3905 121.79 74.3909Z" fill="#FFB8B8"/>
<path d="M119.652 29.0275C125.133 23.5298 125.133 14.6162 119.652 9.11854C114.171 3.62084 105.285 3.62084 99.8044 9.11854C94.3236 14.6162 94.3236 23.5298 99.8044 29.0275C105.285 34.5252 114.171 34.5252 119.652 29.0275Z" fill="#FFB8B8"/>
<path d="M96.5286 7.8186L95.8483 6.44497L99.2718 4.73877C99.2718 4.73877 103.048 -1.42526 109.882 0.30697C116.716 2.0392 119.791 3.0759 119.791 3.0759L123.206 4.79944L121.492 6.50997L124.567 7.54671L122.513 8.57042L124.903 9.94838L123.616 17.0123C123.616 17.0123 121.479 11.6546 117.371 13.702C113.263 15.7494 105.748 12.6436 105.748 12.6436L99.22 25.3172C99.22 25.3172 97.8732 20.8745 95.4719 22.0591C95.4719 22.0591 89.3371 12.259 96.5286 7.8186Z" fill="#2F2E41"/>
<path d="M218.475 94.4871L217.875 83.2019L211.821 78.2678L208.314 88.7181L188.698 114.961C187.77 115.11 186.905 115.523 186.204 116.15C185.503 116.776 184.995 117.592 184.742 118.499C184.488 119.406 184.499 120.367 184.773 121.268C185.046 122.17 185.572 122.973 186.287 123.584C187.002 124.195 187.876 124.588 188.807 124.716C189.737 124.844 190.685 124.703 191.537 124.307C192.39 123.912 193.112 123.28 193.618 122.487C194.124 121.693 194.392 120.77 194.392 119.828C194.392 119.762 194.385 119.697 194.382 119.631L218.475 94.4871Z" fill="#FFB8B8"/>
<path d="M230.133 236.718L225.494 236.717L223.287 218.769L230.133 218.77L230.133 236.718Z" fill="#FFB8B8"/>
<path d="M231.316 241.228L216.358 241.228V241.038C216.358 239.489 216.972 238.004 218.064 236.909C219.155 235.813 220.636 235.198 222.18 235.198L231.316 235.198L231.316 241.228Z" fill="#2F2E41"/>
<path d="M251.7 236.718L247.062 236.717L244.855 218.769L251.701 218.77L251.7 236.718Z" fill="#FFB8B8"/>
<path d="M252.883 241.228L237.926 241.228V241.038C237.926 239.489 238.539 238.004 239.631 236.909C240.723 235.813 242.204 235.198 243.748 235.198L252.884 235.198L252.883 241.228Z" fill="#2F2E41"/>
<path d="M246.797 47.343C248.761 39.2088 250.425 30.0344 246.721 22.5427C244.151 17.3446 234.644 15.5941 229.194 17.4668C223.744 19.3395 219.804 24.4201 218.071 29.9597C216.338 35.4992 216.54 41.4685 217.295 47.2272C227.318 47.0341 237.341 46.841 246.797 47.343Z" fill="#2F2E41"/>
<path d="M235.489 45.904C241.153 42.7982 243.235 35.6746 240.139 29.9931C237.042 24.3115 229.941 22.2235 224.277 25.3293C218.613 28.4351 216.531 35.5587 219.627 41.2402C222.724 46.9218 229.825 49.0098 235.489 45.904Z" fill="#FFB8B8"/>
<path d="M244.171 33.2018C244.209 31.2285 243.85 29.268 243.117 27.4365C242.384 25.6051 241.291 23.9401 239.904 22.5406C238.517 21.1411 236.863 20.0356 235.041 19.2898C233.22 18.5439 231.267 18.173 229.3 18.199C227.333 18.225 225.391 18.6475 223.589 19.4412C221.788 20.235 220.164 21.3838 218.814 22.8195C217.464 24.2552 216.415 25.9485 215.731 27.7987C215.046 29.6489 214.739 31.6182 214.828 33.5898C224.832 33.6111 234.836 33.6324 244.171 33.2018Z" fill="#2F2E41"/>
<path d="M211.114 106.252C211.114 106.252 209.212 133.963 210.244 142.416C211.276 150.869 222.515 224.771 222.515 224.771L230.992 224.756L233.509 137.667L243.534 225.602L252.3 224.688L257.274 138.671C257.274 138.671 256.494 106.468 250.155 103.239L211.114 106.252Z" fill="#2F2E41"/>
<path d="M224.411 133.721C218.185 133.719 212.048 132.229 206.51 129.373L206.389 129.311L211.075 98.1229L210.771 60.9526C210.762 59.9324 210.957 58.9207 211.342 57.9766C211.728 57.0325 212.297 56.1749 213.017 55.4538C213.736 54.7328 214.592 54.1627 215.533 53.7768C216.475 53.3909 217.484 53.197 218.501 53.2064L243.644 53.4378C244.758 53.4481 245.857 53.688 246.874 54.1427C247.89 54.5974 248.803 55.2571 249.555 56.0808C250.306 56.9045 250.881 57.8745 251.243 58.9305C251.605 59.9866 251.747 61.1061 251.659 62.2193L249.306 92.0175L257.087 116.204L255.734 118.007C252.088 122.886 247.359 126.846 241.922 129.574C236.486 132.301 230.49 133.721 224.411 133.721Z" fill="#2F2E41"/>
<path d="M208.244 85.2737L210.879 58.3061L211.726 57.0974C212.306 56.2696 213.043 55.5649 213.896 55.0237C214.748 54.4824 215.698 54.1154 216.692 53.9436C217.687 53.7718 218.705 53.7986 219.688 54.0226C220.672 54.2465 221.602 54.6631 222.425 55.2485L223.151 55.765L222.434 83.0943L208.244 85.2737Z" fill="#2F2E41"/>
<path d="M316.205 217.026C323.016 215.139 325.923 225.514 319.129 227.462C312.318 229.349 309.411 218.974 316.205 217.026Z" fill="#2F2E41"/>
<path d="M278.44 230.38C285.251 228.493 288.158 238.868 281.364 240.815C274.553 242.703 271.646 232.327 278.44 230.38Z" fill="#2F2E41"/>
<path d="M263.156 120.954L263.261 120.924L280.805 168.702L283.118 168.05L265.448 119.93C265.41 119.188 265.12 118.482 264.627 117.928C264.133 117.375 263.466 117.007 262.735 116.887C253.961 115.495 250.405 123.307 250.405 123.307L250.44 123.359L268.377 172.207L270.69 171.554L253.281 124.144C258.581 118.886 263.156 120.954 263.156 120.954Z" fill="#2F2E41"/>
<path d="M283.263 233.068C280.76 233.046 278.329 232.223 276.325 230.719C274.32 229.215 272.847 227.108 272.119 224.705C268.771 213.712 260.871 187.371 259.824 180.223C258.461 170.915 266.141 168.269 266.312 168.212C266.519 168.142 269.606 167.275 273.88 166.075C281.145 164.036 292.123 160.954 292.526 160.772C294.227 160.179 296.032 159.945 297.828 160.084C299.623 160.223 301.371 160.732 302.961 161.581C304.6 162.445 306.046 163.635 307.212 165.078C308.378 166.521 309.239 168.187 309.744 169.974L321.044 210.302C321.741 212.774 321.546 215.414 320.492 217.756C319.438 220.097 317.593 221.99 315.284 223.101C306.564 227.303 293.776 232.908 283.435 233.067C283.378 233.067 283.32 233.068 283.263 233.068Z" fill="#FF9900"/>
<path d="M261.29 119.301L255.61 86.0161L254.976 74.7827L245.792 77.8002L253.537 121.385C253.225 122.233 253.151 123.151 253.323 124.039C253.496 124.927 253.908 125.75 254.515 126.418C255.123 127.086 255.902 127.574 256.767 127.828C257.632 128.083 258.55 128.093 259.421 127.859C260.292 127.625 261.082 127.155 261.705 126.501C262.327 125.847 262.759 125.034 262.952 124.151C263.145 123.267 263.092 122.348 262.799 121.492C262.506 120.637 261.984 119.879 261.29 119.301Z" fill="#FFB8B8"/>
<path d="M257.163 83.9286L242.829 83.1465L239.461 56.0172L239.789 55.732C240.596 55.0297 241.534 54.4942 242.548 54.1563C243.562 53.8184 244.632 53.6847 245.698 53.7629C246.764 53.8411 247.803 54.1296 248.758 54.612C249.712 55.0943 250.562 55.7609 251.258 56.5735L251.921 57.3471L251.931 57.396L257.163 83.9286Z" fill="#2F2E41"/>
<path d="M315.535 216.448L300.884 166.708L266.433 176.474L266.227 175.744L301.398 165.774L301.504 166.133L316.261 216.234L315.535 216.448Z" fill="#2F2E41"/>
<path d="M55.196 104.393L53.6359 70.271L69.6156 38.938L70.2891 39.2838L54.4014 70.4372L55.952 104.358L55.196 104.393Z" fill="#2F2E41"/>
<path d="M79.7875 94.5796L76.4573 84.6432L75.6518 51.5208L77.0707 46.8214C77.5814 45.1299 78.4273 43.5593 79.5577 42.2037C80.688 40.848 82.0796 39.7353 83.649 38.932C85.2184 38.1288 86.9333 37.6516 88.6909 37.5291C90.4485 37.4066 92.2127 37.6413 93.8778 38.2192C95.5428 38.797 97.0744 39.7061 98.3808 40.8919C99.6872 42.0777 100.741 43.5159 101.48 45.1203C102.219 46.7246 102.628 48.4621 102.681 50.2286C102.735 51.9951 102.432 53.7542 101.792 55.4006L94.1866 74.9494L94.5732 75.702L111.05 75.5682L116.903 86.1358L79.7875 94.5796Z" fill="#2F2E41"/>
<path d="M184.751 165.289L184.74 165.291L166.477 168.959L150.768 175.305C150.564 175.387 150.347 175.428 150.128 175.426C149.909 175.424 149.693 175.378 149.492 175.292C149.29 175.206 149.108 175.081 148.954 174.924C148.801 174.768 148.68 174.582 148.598 174.378C148.579 174.33 148.562 174.282 148.547 174.232L137.071 135.685C136.95 135.285 136.983 134.855 137.164 134.479C137.344 134.103 137.659 133.809 138.045 133.655L154.043 127.192L154.054 127.19L172.316 123.523L188.026 117.177C188.436 117.011 188.895 117.016 189.302 117.189C189.709 117.363 190.03 117.692 190.196 118.103C190.215 118.151 190.232 118.2 190.247 118.249L201.723 156.797C201.844 157.196 201.811 157.627 201.63 158.002C201.45 158.378 201.135 158.673 200.748 158.827L184.751 165.289Z" fill="#E8E8E8"/>
<path d="M165.155 139.396C160.967 137.914 156.638 136.615 152.29 135.537L152.072 135.482L154.28 142.897L165.526 139.528L165.155 139.396ZM154.452 142.577L152.447 135.841C156.585 136.874 160.703 138.107 164.697 139.508L154.452 142.577ZM187.099 149.419C185.15 148.314 183.172 147.255 181.167 146.243C180.614 145.963 180.059 145.688 179.503 145.417C176.107 143.759 172.659 142.249 169.159 140.884L169.119 140.868L154.94 145.116L158.812 158.121L187.362 149.568L187.099 149.419ZM158.984 157.8L155.259 145.289L169.108 141.14C172.483 142.457 175.819 143.915 179.116 145.515C179.689 145.793 180.259 146.074 180.828 146.36C182.814 147.358 184.775 148.403 186.71 149.495L158.984 157.8ZM187.099 149.419C185.15 148.314 183.172 147.255 181.167 146.243C180.614 145.963 180.059 145.688 179.503 145.417C176.107 143.759 172.659 142.249 169.159 140.884L169.119 140.868L154.94 145.116L158.812 158.121L187.362 149.568L187.099 149.419ZM158.984 157.8L155.259 145.289L169.108 141.14C172.483 142.457 175.819 143.915 179.116 145.515C179.689 145.793 180.259 146.074 180.828 146.36C182.814 147.358 184.775 148.403 186.71 149.495L158.984 157.8ZM165.155 139.396C160.967 137.914 156.638 136.615 152.29 135.537L152.072 135.482L154.28 142.897L165.526 139.528L165.155 139.396ZM154.452 142.577L152.447 135.841C156.585 136.874 160.703 138.107 164.697 139.508L154.452 142.577ZM165.155 139.396C160.967 137.914 156.638 136.615 152.29 135.537L152.072 135.482L154.28 142.897L165.526 139.528L165.155 139.396ZM154.452 142.577L152.447 135.841C156.585 136.874 160.703 138.107 164.697 139.508L154.452 142.577ZM187.099 149.419C185.15 148.314 183.172 147.255 181.167 146.243C180.614 145.963 180.059 145.688 179.503 145.417C176.107 143.759 172.659 142.249 169.159 140.884L169.119 140.868L154.94 145.116L158.812 158.121L187.362 149.568L187.099 149.419ZM158.984 157.8L155.259 145.289L169.108 141.14C172.483 142.457 175.819 143.915 179.116 145.515C179.689 145.793 180.259 146.074 180.828 146.36C182.814 147.358 184.775 148.403 186.71 149.495L158.984 157.8ZM147.308 163.984L147.381 164.23L157.088 161.322L158.153 164.897L148.446 167.805L148.519 168.051L158.472 165.07L157.261 161.002L147.308 163.984ZM161.344 166.626L162.088 169.124L162.327 169.028L161.664 166.799L199.513 155.461L199.44 155.214L161.344 166.626ZM197.642 149.174L197.568 148.927L159.473 160.339L160.684 164.407L198.779 152.995L198.706 152.749L160.856 164.087L159.792 160.512L197.642 149.174ZM169.349 138.114C163.548 135.878 157.588 134.079 151.521 132.731L150.777 130.235L150.538 130.331L151.287 132.847L151.539 132.999C157.583 134.345 163.519 136.14 169.298 138.37L169.339 138.386L192.375 131.485L192.302 131.238L169.349 138.114ZM151.748 143.387L142.042 146.295L142.115 146.541L152.068 143.56L148.388 131.2L148.149 131.296L151.748 143.387ZM193.036 133.704L172.784 139.77L173.114 139.909C176.22 141.22 179.318 142.67 182.408 144.257C182.847 144.483 183.286 144.711 183.725 144.943C185.906 146.092 188.07 147.305 190.217 148.582L190.456 148.641L196.908 146.708L196.834 146.462L190.398 148.39C188.273 147.125 186.129 145.922 183.965 144.779C183.532 144.55 183.099 144.324 182.665 144.1C179.64 142.542 176.599 141.112 173.542 139.812L193.109 133.95L193.036 133.704ZM149.18 170.27L149.253 170.517L158.96 167.609L159.698 170.089L159.937 169.993L159.132 167.289L149.18 170.27ZM142.776 148.76L142.849 149.007L152.556 146.099L156.281 158.61L146.574 161.518L146.647 161.765L156.6 158.783L152.728 145.778L142.776 148.76ZM165.155 139.396C160.967 137.914 156.638 136.615 152.29 135.537L152.072 135.482L154.28 142.897L165.526 139.528L165.155 139.396ZM154.452 142.577L152.447 135.841C156.585 136.874 160.703 138.107 164.697 139.508L154.452 142.577ZM187.099 149.419C185.15 148.314 183.172 147.255 181.167 146.243C180.614 145.963 180.059 145.688 179.503 145.417C176.107 143.759 172.659 142.249 169.159 140.884L169.119 140.868L154.94 145.116L158.812 158.121L187.362 149.568L187.099 149.419ZM158.984 157.8L155.259 145.289L169.108 141.14C172.483 142.457 175.819 143.915 179.116 145.515C179.689 145.793 180.259 146.074 180.828 146.36C182.814 147.358 184.775 148.403 186.71 149.495L158.984 157.8ZM165.155 139.396C160.967 137.914 156.638 136.615 152.29 135.537L152.072 135.482L154.28 142.897L165.526 139.528L165.155 139.396ZM154.452 142.577L152.447 135.841C156.585 136.874 160.703 138.107 164.697 139.508L154.452 142.577ZM187.099 149.419C185.15 148.314 183.172 147.255 181.167 146.243C180.614 145.963 180.059 145.688 179.503 145.417C176.107 143.759 172.659 142.249 169.159 140.884L169.119 140.868L154.94 145.116L158.812 158.121L187.362 149.568L187.099 149.419ZM158.984 157.8L155.259 145.289L169.108 141.14C172.483 142.457 175.819 143.915 179.116 145.515C179.689 145.793 180.259 146.074 180.828 146.36C182.814 147.358 184.775 148.403 186.71 149.495L158.984 157.8Z" fill="#E8E8E8"/>
<path d="M168.415 140.557C169.345 143.679 165.78 152.322 165.78 152.322C165.78 152.322 158.074 147.056 157.145 143.934C156.699 142.435 156.864 140.819 157.605 139.442C158.347 138.066 159.603 137.041 161.097 136.593C162.592 136.145 164.202 136.311 165.575 137.055C166.947 137.798 167.969 139.058 168.415 140.557Z" fill="#FF9900"/>
<path d="M165.283 141.228C165.435 141.739 165.433 142.284 165.276 142.794C165.12 143.304 164.816 143.755 164.404 144.092C163.991 144.429 163.488 144.635 162.959 144.685C162.43 144.735 161.897 144.626 161.429 144.373C160.962 144.119 160.579 143.732 160.331 143.261C160.082 142.789 159.978 142.255 160.033 141.724C160.087 141.193 160.297 140.691 160.636 140.28C160.975 139.869 161.428 139.568 161.938 139.416C162.276 139.314 162.631 139.281 162.982 139.317C163.334 139.353 163.674 139.458 163.985 139.627C164.296 139.795 164.57 140.023 164.793 140.298C165.016 140.573 165.182 140.889 165.283 141.228Z" fill="#E8E8E8"/>
<path d="M166.541 156.468C167.417 156.468 168.127 155.756 168.127 154.878C168.127 154 167.417 153.288 166.541 153.288C165.666 153.288 164.956 154 164.956 154.878C164.956 155.756 165.666 156.468 166.541 156.468Z" fill="#FF9900"/>
<path d="M183.84 133.969L172.822 137.27C172.808 137.274 172.794 137.277 172.78 137.279L175.295 126.664C175.31 126.598 175.343 126.537 175.389 126.488C175.435 126.438 175.493 126.402 175.558 126.383C175.622 126.363 175.691 126.362 175.756 126.377C175.822 126.393 175.882 126.426 175.931 126.473L181.237 131.502L181.491 131.742L183.84 133.969Z" fill="#E8E8E8"/>
<path opacity="0.2" d="M183.84 133.969L180.078 135.096L181.124 131.852L181.199 131.618L181.237 131.501L181.491 131.742L183.84 133.969Z" fill="#4A4A4A"/>
<path d="M189.975 132.131L180.445 134.986L181.491 131.742L181.566 131.509L182.929 127.281C182.955 127.215 182.995 127.155 183.047 127.105C183.098 127.056 183.159 127.017 183.226 126.993C183.293 126.968 183.364 126.958 183.435 126.963C183.506 126.968 183.575 126.988 183.638 127.022C183.655 127.031 183.671 127.042 183.686 127.054L189.975 132.131Z" fill="#E8E8E8"/>
</g>
<defs>
<clipPath id="clip0_242_45">
<rect width="349.242" height="242" fill="white" transform="translate(0.0402832)"/>
</clipPath>
</defs>
</svg>
