<svg width="582" height="376" viewBox="0 0 582 376" fill="none" xmlns="http://www.w3.org/2000/svg">
<g clip-path="url(#clip0_305_453)">
<path d="M43.1455 346.938C35.2689 344.764 31.9076 356.715 39.7644 358.959C47.6407 361.133 51.0019 349.181 43.1455 346.938Z" fill="#2F2E41"/>
<path d="M86.8176 362.32C78.941 360.146 75.5797 372.098 83.4365 374.341C91.3128 376.515 94.6741 364.564 86.8176 362.32Z" fill="#2F2E41"/>
<path d="M104.492 236.27L104.371 236.236L84.0822 291.272L81.4073 290.521L101.841 235.09C101.885 234.235 102.221 233.422 102.792 232.784C103.362 232.146 104.134 231.723 104.979 231.584C115.125 229.981 119.238 238.981 119.238 238.981L119.197 239.04L98.4549 295.309L95.7801 294.557L115.912 239.945C109.783 233.888 104.492 236.27 104.492 236.27Z" fill="#2F2E41"/>
<path d="M81.0412 365.415C69.0824 365.233 54.2939 358.776 44.2107 353.935C41.5397 352.656 39.4067 350.475 38.188 347.778C36.9693 345.08 36.7432 342.039 37.5496 339.191L50.6175 292.737C51.2007 290.678 52.1967 288.759 53.5451 287.097C54.8935 285.435 56.5661 284.064 58.4612 283.068C60.3 282.091 62.3209 281.504 64.3973 281.344C66.4737 281.184 68.5608 281.454 70.5279 282.137C70.9946 282.347 83.6899 285.897 92.0907 288.246C97.0328 289.628 100.604 290.627 100.843 290.707C101.04 290.772 109.922 293.821 108.346 304.543C107.135 312.777 97.9989 343.119 94.1269 355.783C93.2855 358.551 91.5818 360.978 89.2638 362.71C86.9458 364.443 84.1347 365.391 81.2399 365.416C81.1741 365.416 81.1072 365.416 81.0412 365.415Z" fill="#055999"/>
<path d="M43.9205 346.272L60.8625 288.975L100.703 300.225L100.941 299.384L60.2682 287.898L60.1457 288.313L43.0813 346.025L43.9205 346.272Z" fill="#2F2E41"/>
<path d="M582 10.0597H233.022V175.521H582V10.0597Z" fill="#CCCCCC"/>
<path d="M572.436 24.2483H243.416V162.298H572.436V24.2483Z" fill="#E8E8E8"/>
<path d="M581.851 0.5H232.874V15.3136H581.851V0.5Z" fill="#055999"/>
<path d="M243.891 10.625C245.408 10.625 246.639 9.39575 246.639 7.87937C246.639 6.36299 245.408 5.13373 243.891 5.13373C242.373 5.13373 241.143 6.36299 241.143 7.87937C241.143 9.39575 242.373 10.625 243.891 10.625Z" fill="#E8E8E8"/>
<path d="M254.321 10.625C255.838 10.625 257.069 9.39575 257.069 7.87937C257.069 6.36299 255.838 5.13373 254.321 5.13373C252.803 5.13373 251.573 6.36299 251.573 7.87937C251.573 9.39575 252.803 10.625 254.321 10.625Z" fill="#E8E8E8"/>
<path d="M264.751 10.625C266.269 10.625 267.499 9.39575 267.499 7.87937C267.499 6.36299 266.269 5.13373 264.751 5.13373C263.234 5.13373 262.003 6.36299 262.003 7.87937C262.003 9.39575 263.234 10.625 264.751 10.625Z" fill="#E8E8E8"/>
<path d="M398.727 91.3576C398.734 97.6034 397.62 103.8 395.436 109.652C394.444 112.333 393.227 114.925 391.799 117.4C387.206 125.408 380.579 132.061 372.587 136.689C364.595 141.316 355.523 143.753 346.286 143.753C337.05 143.753 327.977 141.316 319.985 136.689C311.994 132.061 305.366 125.408 300.774 117.4C300.309 116.595 299.868 115.778 299.451 114.948C295.887 107.883 293.969 100.103 293.844 92.1912C293.718 84.2797 295.387 76.4426 298.725 69.2676C302.064 62.0927 306.985 55.7663 313.12 50.7631C319.255 45.7599 326.444 42.2098 334.148 40.3791C341.852 38.5484 349.871 38.4847 357.603 40.1927C365.335 41.9007 372.58 45.3361 378.793 50.2412C385.007 55.1462 390.028 61.3936 393.481 68.5145C396.933 75.6355 398.726 83.4452 398.727 91.3576Z" fill="#E8E8E8"/>
<path d="M349.012 100.203C354.549 100.203 359.038 95.7186 359.038 90.1861C359.038 84.6536 354.549 80.1687 349.012 80.1687C343.475 80.1687 338.987 84.6536 338.987 90.1861C338.987 95.7186 343.475 100.203 349.012 100.203Z" fill="#055999"/>
<path d="M299.451 114.948C303.868 110.179 309.774 102.606 315.312 108.078C318.091 110.659 322.441 117.055 326.605 112.873L359.122 80.383C359.734 79.7792 360.461 79.3036 361.259 78.9844C362.058 78.6651 362.913 78.5086 363.773 78.524C364.633 78.5394 365.481 78.7264 366.268 79.074C367.055 79.4216 367.764 79.9228 368.354 80.5482L395.436 109.652C394.444 112.333 393.227 114.925 391.799 117.4H300.774L299.451 114.948Z" fill="#E8E8E8"/>
<path d="M505.813 81.092C505.454 81.092 505.109 81.2346 504.855 81.4885C504.601 81.7423 504.458 82.0867 504.458 82.4457C504.458 82.8047 504.601 83.149 504.855 83.4029C505.109 83.6567 505.454 83.7993 505.813 83.7993H520.029C520.389 83.7993 520.733 83.6567 520.987 83.4029C521.241 83.149 521.384 82.8047 521.384 82.4457C521.384 82.0867 521.241 81.7423 520.987 81.4885C520.733 81.2346 520.389 81.092 520.029 81.092H505.813Z" fill="#055999"/>
<path d="M441.764 61.2095C441.586 61.2091 441.409 61.2438 441.245 61.3117C441.08 61.3795 440.93 61.4792 440.804 61.6049C440.678 61.7307 440.578 61.88 440.51 62.0444C440.441 62.2089 440.406 62.3851 440.406 62.5631C440.406 62.7412 440.441 62.9174 440.51 63.0818C440.578 63.2463 440.678 63.3956 440.804 63.5214C440.93 63.6471 441.08 63.7467 441.245 63.8146C441.409 63.8825 441.586 63.9172 441.764 63.9168H520.651C521.01 63.916 521.354 63.7731 521.607 63.5193C521.861 63.2655 522.003 62.9217 522.003 62.5631C522.003 62.2046 521.861 61.8608 521.607 61.607C521.354 61.3532 521.01 61.2102 520.651 61.2095H441.764Z" fill="#CCCCCC"/>
<path d="M441.764 71.1508C441.586 71.1504 441.409 71.1851 441.245 71.253C441.08 71.3208 440.93 71.4205 440.804 71.5462C440.678 71.672 440.578 71.8213 440.51 71.9857C440.441 72.1502 440.406 72.3264 440.406 72.5044C440.406 72.6824 440.441 72.8587 440.51 73.0231C440.578 73.1875 440.678 73.3369 440.804 73.4627C440.93 73.5884 441.08 73.688 441.245 73.7559C441.409 73.8237 441.586 73.8585 441.764 73.8581H520.651C521.01 73.8573 521.354 73.7144 521.607 73.4606C521.861 73.2068 522.003 72.8629 522.003 72.5044C522.003 72.1459 521.861 71.802 521.607 71.5483C521.354 71.2945 521.01 71.1515 520.651 71.1508H441.764Z" fill="#CCCCCC"/>
<path d="M505.813 144.882C505.454 144.883 505.11 145.026 504.857 145.279C504.604 145.533 504.461 145.877 504.461 146.236C504.461 146.594 504.604 146.938 504.857 147.192C505.11 147.445 505.454 147.588 505.813 147.589H520.029C520.208 147.59 520.384 147.555 520.549 147.487C520.713 147.419 520.863 147.319 520.989 147.194C521.115 147.068 521.215 146.919 521.284 146.754C521.352 146.59 521.387 146.414 521.387 146.236C521.387 146.057 521.352 145.881 521.284 145.717C521.215 145.552 521.115 145.403 520.989 145.277C520.863 145.152 520.713 145.052 520.549 144.984C520.384 144.916 520.208 144.881 520.029 144.882H505.813Z" fill="#055999"/>
<path d="M441.764 124.999C441.405 124.999 441.06 125.142 440.806 125.396C440.552 125.65 440.409 125.994 440.409 126.353C440.409 126.712 440.552 127.056 440.806 127.31C441.06 127.564 441.405 127.707 441.764 127.707H520.651C521.01 127.707 521.355 127.564 521.609 127.31C521.863 127.056 522.006 126.712 522.006 126.353C522.006 125.994 521.863 125.65 521.609 125.396C521.355 125.142 521.01 124.999 520.651 124.999H441.764Z" fill="#CCCCCC"/>
<path d="M441.764 134.941C441.586 134.94 441.409 134.975 441.245 135.043C441.08 135.111 440.93 135.21 440.804 135.336C440.678 135.462 440.578 135.611 440.51 135.776C440.441 135.94 440.406 136.116 440.406 136.294C440.406 136.472 440.441 136.648 440.51 136.813C440.578 136.977 440.678 137.127 440.804 137.252C440.93 137.378 441.08 137.478 441.245 137.546C441.409 137.614 441.586 137.648 441.764 137.648H520.651C521.01 137.648 521.355 137.505 521.609 137.251C521.863 136.998 522.006 136.653 522.006 136.294C522.006 135.935 521.863 135.591 521.609 135.337C521.355 135.083 521.01 134.941 520.651 134.941H441.764Z" fill="#CCCCCC"/>
<path d="M489.119 46.0424H484.847L481.18 40.7919H479.628L481.47 46.0424H477.29L475.575 44.3284H474.123L474.848 47.4994L474.123 50.2714H475.575L477.29 48.5574L477.317 48.5121H481.518L479.628 53.901H481.18L484.862 48.6288L484.905 48.5121H489.119C489.447 48.5121 489.761 48.382 489.993 48.1504C490.225 47.9189 490.355 47.6048 490.355 47.2773C490.355 46.9498 490.225 46.6357 489.993 46.4041C489.761 46.1725 489.447 46.0424 489.119 46.0424Z" fill="#CCCCCC"/>
<path d="M485.497 114.552H478.747C478.143 114.551 477.563 114.311 477.136 113.884C476.708 113.457 476.468 112.878 476.467 112.274V106.138C476.465 105.73 476.597 105.333 476.844 105.008C477.091 104.683 477.438 104.448 477.832 104.34C480.638 103.598 483.59 103.6 486.395 104.346C486.793 104.452 487.144 104.686 487.395 105.012C487.645 105.338 487.779 105.739 487.777 106.15V112.274C487.777 112.878 487.536 113.457 487.109 113.884C486.681 114.311 486.102 114.551 485.497 114.552Z" fill="#CCCCCC"/>
<path d="M486.48 106.361H477.764V109.627H486.48V106.361Z" fill="#E8E8E8"/>
<path d="M478.853 112.893C479.455 112.893 479.943 112.406 479.943 111.805C479.943 111.203 479.455 110.716 478.853 110.716C478.252 110.716 477.764 111.203 477.764 111.805C477.764 112.406 478.252 112.893 478.853 112.893Z" fill="#E8E8E8"/>
<path d="M485.391 112.893C485.993 112.893 486.48 112.406 486.48 111.805C486.48 111.203 485.993 110.716 485.391 110.716C484.789 110.716 484.301 111.203 484.301 111.805C484.301 112.406 484.789 112.893 485.391 112.893Z" fill="#E8E8E8"/>
<path d="M487.323 117.659H476.804L479.292 115.587H484.836L487.323 117.659ZM478.44 117.067H485.688L484.622 116.179H479.506L478.44 117.067Z" fill="#CCCCCC"/>
<path d="M487.867 114.966H476.26C476.095 114.966 475.937 114.901 475.82 114.784C475.703 114.668 475.638 114.51 475.638 114.345C475.638 114.18 475.703 114.022 475.82 113.905C475.937 113.789 476.095 113.723 476.26 113.723H487.867C488.032 113.723 488.19 113.789 488.307 113.905C488.424 114.022 488.489 114.18 488.489 114.345C488.489 114.51 488.424 114.668 488.307 114.784C488.19 114.901 488.032 114.966 487.867 114.966Z" fill="#CCCCCC"/>
<path d="M114.431 240.921C114.797 240.176 114.995 239.36 115.011 238.53C115.027 237.7 114.861 236.877 114.525 236.119C114.188 235.36 113.689 234.685 113.063 234.139C112.437 233.594 111.699 233.193 110.901 232.964L109.809 212.823L101.376 219.058L103.706 237.228C103.41 238.594 103.625 240.02 104.311 241.238C104.996 242.455 106.105 243.379 107.427 243.834C108.749 244.289 110.192 244.244 111.483 243.707C112.774 243.17 113.822 242.179 114.431 240.921Z" fill="#FFB8B8"/>
<path d="M179.754 244.668C179.278 243.989 178.956 243.213 178.812 242.396C178.668 241.579 178.705 240.74 178.921 239.938C179.136 239.137 179.525 238.393 180.059 237.758C180.594 237.123 181.261 236.612 182.015 236.263L179.986 216.195L189.279 221.057L189.781 239.368C190.285 240.672 190.292 242.114 189.802 243.423C189.313 244.731 188.36 245.815 187.124 246.468C185.888 247.121 184.455 247.299 183.097 246.967C181.739 246.636 180.549 245.818 179.754 244.668Z" fill="#FFB8B8"/>
<path d="M130.159 368.044L136.798 368.044L139.958 342.454H130.158L130.159 368.044Z" fill="#FFB8B8"/>
<path d="M128.465 365.878L141.541 365.878C143.751 365.878 145.871 366.755 147.434 368.316C148.997 369.878 149.875 371.996 149.875 374.204V374.474L128.466 374.475L128.465 365.878Z" fill="#2F2E41"/>
<path d="M163.694 364.06L170.186 365.45L178.641 341.089L169.059 339.038L163.694 364.06Z" fill="#FFB8B8"/>
<path d="M162.492 361.587L175.278 364.324C177.439 364.787 179.328 366.089 180.528 367.943C181.729 369.797 182.143 372.051 181.68 374.211L181.623 374.475L160.689 369.993L162.492 361.587Z" fill="#2F2E41"/>
<path d="M118.187 221.601C118.187 221.601 111.123 243.415 118.041 268.083L125.083 297.633L126.83 363.017L141.089 358.444L146.898 258.714L173.655 304.093L159.573 358.444L175.768 358.971L193.256 300.194L177.88 245.346L175.064 231.978L118.187 221.601Z" fill="#2F2E41"/>
<path d="M175.917 149.155L161.734 141.078L137.198 139.66L120.179 148.588L127.096 196C127.096 196 113.905 214.917 118.714 227.521C124.65 243.077 176.556 251.192 175.541 236.011C173.939 212.053 171.465 213.705 169.65 201.957C167.66 189.066 181.59 172.537 181.59 172.537L175.917 149.155Z" fill="#CCCCCC"/>
<path d="M125.427 153.265L123.846 146.419C123.846 146.419 117.101 147.291 112.427 160.336C107.753 173.38 99.4446 200.879 99.4446 200.879L99.8785 210.869C99.8785 210.869 96.6766 214.566 98.8858 216.254C101.095 217.943 94.8951 220.232 98.0348 222.631C99.4133 223.687 100.457 225.117 101.041 226.751C101.625 228.386 101.723 230.154 101.325 231.842L110.969 228.867L110.26 213.137L114.081 200.738L124.292 169.703L125.427 153.265Z" fill="#CCCCCC"/>
<path d="M170.724 154.432L172.872 147.792C172.872 147.792 176.828 146.175 179.749 155.291C182.669 164.407 184.055 187.476 184.055 187.476L189.728 214.974C189.728 214.974 191.848 218.476 190.721 219.48C189.594 220.484 195.671 221.895 192.139 223.755C188.607 225.614 192.444 223.354 191.124 227.594C190.257 230.379 191.147 231.842 191.147 231.842L180.226 229.647L177.248 215.552L170.492 189.344L170.724 154.432Z" fill="#CCCCCC"/>
<path d="M149.52 133.699C159.922 133.699 168.354 125.273 168.354 114.879C168.354 104.486 159.922 96.0598 149.52 96.0598C139.118 96.0598 130.685 104.486 130.685 114.879C130.685 125.273 139.118 133.699 149.52 133.699Z" fill="#2F2E41"/>
<path d="M147.585 103.167C143.532 99.0609 138.628 95.8919 133.217 93.8836C129.743 92.5979 125.963 91.8036 122.332 92.5337C118.701 93.2639 115.267 95.7738 114.254 99.3337C113.425 102.245 114.281 105.379 115.566 108.119C116.852 110.859 118.568 113.4 119.608 116.243C120.668 119.143 120.987 122.262 120.536 125.317C120.084 128.371 118.876 131.265 117.021 133.735C115.166 136.205 112.723 138.173 109.914 139.46C107.105 140.747 104.019 141.313 100.936 141.106C104.503 141.584 107.792 143.26 111.279 144.151C114.767 145.043 118.883 144.983 121.474 142.486C124.216 139.845 124.271 135.551 124.139 131.747C123.942 126.094 123.744 120.44 123.547 114.786C123.447 111.903 123.361 108.928 124.402 106.236C125.442 103.545 127.915 101.189 130.803 101.213C132.991 101.232 134.928 102.556 136.683 103.863C138.438 105.169 140.295 106.563 142.475 106.757C144.654 106.951 147.143 105.339 146.98 103.159L147.585 103.167Z" fill="#2F2E41"/>
<path d="M163.58 128.441C167.253 121.728 164.784 113.311 158.065 109.641C151.346 105.971 142.922 108.438 139.249 115.151C135.576 121.865 138.046 130.282 144.764 133.952C151.483 137.622 159.907 135.155 163.58 128.441Z" fill="#FFB8B8"/>
<path d="M170.913 120.749H150.893L150.688 117.877L149.661 120.749H146.578L146.172 115.057L144.137 120.749H138.172V120.467C138.177 116.504 139.754 112.705 142.559 109.903C145.363 107.101 149.165 105.524 153.131 105.52H155.954C159.92 105.524 163.722 107.101 166.527 109.903C169.331 112.705 170.908 116.504 170.913 120.467V120.749Z" fill="#2F2E41"/>
<path d="M141.197 131.072L133.886 123.759L132.653 107.572H148.791L148.391 107.97C142.832 113.517 136.831 121.657 141.197 131.072Z" fill="#2F2E41"/>
</g>
<defs>
<clipPath id="clip0_305_453">
<rect width="582" height="375" fill="white" transform="translate(0 0.5)"/>
</clipPath>
</defs>
</svg>
