<svg width="217" height="184" viewBox="0 0 217 184" fill="none" xmlns="http://www.w3.org/2000/svg">
<path d="M217 91.8358C217 133.662 180.105 168.92 129.761 179.744C121.585 181.497 113.279 182.58 104.926 182.981C104.52 183.001 104.113 183.021 103.704 183.036C101.53 183.125 99.3399 183.171 97.1332 183.172C93.2964 183.172 89.505 183.036 85.759 182.763C83.6809 182.616 81.6202 182.428 79.5769 182.199C59.7047 179.976 41.4171 174.038 25.9709 165.339C24.0408 164.253 22.1563 163.124 20.3171 161.952C16.9494 159.813 13.6981 157.498 10.5769 155.015C-10.0558 138.613 7.14635 103.601 17.8994 81.5587C46.9228 22.0674 30.9339 0.5 97.1332 0.5C163.333 0.5 217 41.3912 217 91.8358Z" fill="white"/>
</svg>
